solid Cheetah3Dfile
 facet normal -0.0000 -0.0000 -1.0000
   outer loop
     vertex 6.3287 2.5682 0.5000
     vertex 6.2216 2.6300 0.5000
     vertex 6.0791 2.7123 0.5000
   endloop
 endfacet
 facet normal -0.0000 0.0000 1.0000
   outer loop
     vertex 6.0791 2.7123 0.5000
     vertex 5.9563 2.4995 0.5000
     vertex 6.3287 2.5682 0.5000
   endloop
 endfacet
 facet normal -0.0000 -0.0000 1.0000
   outer loop
     vertex 5.9563 2.4995 0.5000
     vertex 6.0791 2.7123 0.5000
     vertex 6.0790 2.7123 0.5000
   endloop
 endfacet
 facet normal 0.0000 -0.0000 1.0000
   outer loop
     vertex 6.0790 2.7123 0.5000
     vertex 3.9978 3.9135 0.5000
     vertex 5.9563 2.4995 0.5000
   endloop
 endfacet
 facet normal -0.0000 0.0000 1.0000
   outer loop
     vertex 5.9563 2.4995 0.5000
     vertex 5.0888 0.1860 0.5000
     vertex 6.4304 2.5095 0.5000
   endloop
 endfacet
 facet normal 0.0000 -0.0000 1.0000
   outer loop
     vertex 6.4304 2.5095 0.5000
     vertex 6.3287 2.5682 0.5000
     vertex 5.9563 2.4995 0.5000
   endloop
 endfacet
 facet normal 0.4999 0.8661 0.0000
   outer loop
     vertex 6.2216 2.6300 0.5000
     vertex 6.3287 2.5682 0.5000
     vertex 6.2306 2.6249 0.0000
   endloop
 endfacet
 facet normal 0.4985 0.8669 0.0000
   outer loop
     vertex 6.4304 2.5095 0.5000
     vertex 6.4304 2.5095 0.0000
     vertex 6.4304 2.5095 0.5000
   endloop
 endfacet
 facet normal 0.4999 0.8661 0.0000
   outer loop
     vertex 6.2306 2.6249 0.0000
     vertex 6.3287 2.5682 0.5000
     vertex 6.4304 2.5095 0.0000
   endloop
 endfacet
 facet normal 0.4999 0.8661 0.0000
   outer loop
     vertex 6.4304 2.5095 0.5000
     vertex 6.4304 2.5095 0.0000
     vertex 6.3287 2.5682 0.5000
   endloop
 endfacet
 facet normal 0.4997 0.8662 0.0000
   outer loop
     vertex 6.0790 2.7123 0.5000
     vertex 6.0791 2.7123 0.5000
     vertex 6.0790 2.7123 0.0000
   endloop
 endfacet
 facet normal 0.4999 0.8661 0.0000
   outer loop
     vertex 6.2216 2.6300 0.5000
     vertex 6.2306 2.6249 0.0000
     vertex 6.0791 2.7123 0.5000
   endloop
 endfacet
 facet normal 0.4999 0.8661 -0.0000
   outer loop
     vertex 6.0790 2.7123 0.0000
     vertex 6.0791 2.7123 0.5000
     vertex 6.2306 2.6249 0.0000
   endloop
 endfacet
 facet normal 0.4999 0.8661 0.0000
   outer loop
     vertex 3.9864 3.9201 0.5000
     vertex 3.9978 3.9135 0.5000
     vertex 4.0762 3.8683 0.0000
   endloop
 endfacet
 facet normal 0.4999 0.8661 0.0000
   outer loop
     vertex 6.0790 2.7123 0.5000
     vertex 6.0790 2.7123 0.0000
     vertex 3.9978 3.9135 0.5000
   endloop
 endfacet
 facet normal 0.4999 0.8661 0.0000
   outer loop
     vertex 4.0762 3.8683 0.0000
     vertex 3.9978 3.9135 0.5000
     vertex 6.0790 2.7123 0.0000
   endloop
 endfacet
 facet normal 0.0000 -0.0000 1.0000
   outer loop
     vertex 5.9563 2.4995 0.5000
     vertex 3.9978 3.9135 0.5000
     vertex 4.7376 0.3889 0.5000
   endloop
 endfacet
 facet normal 0.0000 0.0000 1.0000
   outer loop
     vertex 3.9864 3.9201 0.5000
     vertex 3.2554 4.3420 0.5000
     vertex 3.9978 3.9135 0.5000
   endloop
 endfacet
 facet normal -0.0000 -0.0000 1.0000
   outer loop
     vertex 4.7376 0.3889 0.5000
     vertex 3.9978 3.9135 0.5000
     vertex 3.2554 4.3420 0.5000
   endloop
 endfacet
 facet normal -0.0000 -0.0000 1.0000
   outer loop
     vertex 4.7376 0.3889 0.5000
     vertex 5.0888 0.1860 0.5000
     vertex 5.9563 2.4995 0.5000
   endloop
 endfacet
 facet normal 0.0000 -0.0000 1.0000
   outer loop
     vertex 9.0312 0.9867 0.5000
     vertex 7.6081 1.7773 0.5000
     vertex 5.0888 0.1860 0.5000
   endloop
 endfacet
 facet normal 0.0000 0.0000 1.0000
   outer loop
     vertex 6.4304 2.5095 0.5000
     vertex 6.4304 2.5095 0.5000
     vertex 7.6081 1.7773 0.5000
   endloop
 endfacet
 facet normal -0.0000 -0.0000 1.0000
   outer loop
     vertex 5.0888 0.1860 0.5000
     vertex 7.6081 1.7773 0.5000
     vertex 6.4304 2.5095 0.5000
   endloop
 endfacet
 facet normal 0.5280 0.8492 -0.0000
   outer loop
     vertex 6.4304 2.5095 0.0000
     vertex 6.4304 2.5095 0.5000
     vertex 7.6081 1.7773 0.5000
   endloop
 endfacet
 facet normal 0.5280 0.8492 -0.0000
   outer loop
     vertex 7.6081 1.7773 0.5000
     vertex 7.6898 1.7265 0.0000
     vertex 6.4304 2.5095 0.0000
   endloop
 endfacet
 facet normal 0.4999 0.8661 0.0000
   outer loop
     vertex 3.1000 4.4317 0.5000
     vertex 3.1026 4.4302 0.5000
     vertex 3.1000 4.4317 0.0000
   endloop
 endfacet
 facet normal 0.4999 0.8661 -0.0000
   outer loop
     vertex 3.9864 3.9201 0.5000
     vertex 4.0762 3.8683 0.0000
     vertex 3.2554 4.3420 0.5000
   endloop
 endfacet
 facet normal 0.4999 0.8661 0.0000
   outer loop
     vertex 3.1000 4.4317 0.0000
     vertex 3.1026 4.4302 0.5000
     vertex 4.0762 3.8683 0.0000
   endloop
 endfacet
 facet normal 0.4999 0.8661 0.0000
   outer loop
     vertex 3.2554 4.3420 0.5000
     vertex 4.0762 3.8683 0.0000
     vertex 3.1026 4.4302 0.5000
   endloop
 endfacet
 facet normal -0.0000 -0.0000 1.0000
   outer loop
     vertex -2.3453 1.1193 0.5000
     vertex -2.3080 1.0204 0.5000
     vertex 3.1026 4.4302 0.5000
   endloop
 endfacet
 facet normal -0.0000 -0.0000 1.0000
   outer loop
     vertex -2.3340 1.0053 0.5000
     vertex 4.7376 0.3889 0.5000
     vertex -2.3080 1.0204 0.5000
   endloop
 endfacet
 facet normal 0.0000 0.0000 1.0000
   outer loop
     vertex 3.2554 4.3420 0.5000
     vertex 3.1026 4.4302 0.5000
     vertex 4.7376 0.3889 0.5000
   endloop
 endfacet
 facet normal -0.0000 -0.0000 1.0000
   outer loop
     vertex -2.3080 1.0204 0.5000
     vertex 4.7376 0.3889 0.5000
     vertex 3.1026 4.4302 0.5000
   endloop
 endfacet
 facet normal -0.0000 -0.0000 1.0000
   outer loop
     vertex -2.6926 -5.6633 0.5000
     vertex 5.0888 0.1860 0.5000
     vertex 4.7376 0.3889 0.5000
   endloop
 endfacet
 facet normal -0.0000 -0.0000 1.0000
   outer loop
     vertex 4.7376 0.3889 0.5000
     vertex -2.6961 -5.6614 0.5000
     vertex -2.6926 -5.6633 0.5000
   endloop
 endfacet
 facet normal -0.0000 -0.0000 1.0000
   outer loop
     vertex 5.0888 0.1860 0.5000
     vertex 7.1504 -2.3415 0.5000
     vertex 9.0312 0.9867 0.5000
   endloop
 endfacet
 facet normal 0.0000 -0.0000 1.0000
   outer loop
     vertex 9.0613 0.9700 0.5000
     vertex 9.0312 0.9867 0.5000
     vertex 8.3264 -0.3036 0.5000
   endloop
 endfacet
 facet normal -0.0000 -0.0000 1.0000
   outer loop
     vertex 7.1504 -2.3415 0.5000
     vertex 8.3264 -0.3036 0.5000
     vertex 9.0312 0.9867 0.5000
   endloop
 endfacet
 facet normal 0.4856 0.8741 -0.0095
   outer loop
     vertex 7.6081 1.7773 0.5000
     vertex 9.0312 0.9867 0.5000
     vertex 7.6898 1.7265 0.0000
   endloop
 endfacet
 facet normal 0.4856 0.8741 -0.0095
   outer loop
     vertex 9.0613 0.9700 0.5000
     vertex 9.0589 0.9659 0.0000
     vertex 9.0312 0.9867 0.5000
   endloop
 endfacet
 facet normal 0.4856 0.8741 -0.0095
   outer loop
     vertex 7.6898 1.7265 0.0000
     vertex 9.0312 0.9867 0.5000
     vertex 9.0589 0.9659 0.0000
   endloop
 endfacet
 facet normal 1.0000 0.0001 -0.0000
   outer loop
     vertex 3.0997 6.4373 0.5000
     vertex 3.1000 4.6719 0.5000
     vertex 3.0997 6.6403 0.0000
   endloop
 endfacet
 facet normal 1.0000 0.0001 0.0000
   outer loop
     vertex 3.1000 4.4317 0.5000
     vertex 3.1000 4.4317 0.0000
     vertex 3.1000 4.4906 0.5000
   endloop
 endfacet
 facet normal 1.0000 0.0001 -0.0000
   outer loop
     vertex 3.0997 6.6403 0.0000
     vertex 3.1000 4.6719 0.5000
     vertex 3.1000 4.4317 0.0000
   endloop
 endfacet
 facet normal 1.0000 0.0001 0.0000
   outer loop
     vertex 3.1000 4.4906 0.5000
     vertex 3.1000 4.4317 0.0000
     vertex 3.1000 4.6719 0.5000
   endloop
 endfacet
 facet normal 0.0000 -0.0000 1.0000
   outer loop
     vertex 3.1026 4.4302 0.5000
     vertex 3.1000 4.4317 0.5000
     vertex -2.3453 1.1193 0.5000
   endloop
 endfacet
 facet normal 0.0000 0.0000 1.0000
   outer loop
     vertex 3.1000 4.4906 0.5000
     vertex -4.4374 4.5741 0.5000
     vertex 3.1000 4.4317 0.5000
   endloop
 endfacet
 facet normal -0.0000 -0.0000 1.0000
   outer loop
     vertex -4.4410 4.5680 0.5000
     vertex -2.3594 1.1568 0.5000
     vertex -4.4374 4.5741 0.5000
   endloop
 endfacet
 facet normal -0.0000 -0.0000 1.0000
   outer loop
     vertex -2.3453 1.1193 0.5000
     vertex 3.1000 4.4317 0.5000
     vertex -2.3594 1.1568 0.5000
   endloop
 endfacet
 facet normal -0.0000 -0.0000 1.0000
   outer loop
     vertex -4.4374 4.5741 0.5000
     vertex -2.3594 1.1568 0.5000
     vertex 3.1000 4.4317 0.5000
   endloop
 endfacet
 facet normal -0.9336 -0.3522 0.0658
   outer loop
     vertex -2.3080 1.0204 0.5000
     vertex -2.3453 1.1193 0.5000
     vertex -2.3369 1.0037 0.0000
   endloop
 endfacet
 facet normal -0.9336 -0.3522 0.0658
   outer loop
     vertex -2.3594 1.1568 0.5000
     vertex -2.4517 1.3081 0.0000
     vertex -2.3453 1.1193 0.5000
   endloop
 endfacet
 facet normal -0.9336 -0.3522 0.0658
   outer loop
     vertex -2.3369 1.0037 0.0000
     vertex -2.3453 1.1193 0.5000
     vertex -2.4517 1.3081 0.0000
   endloop
 endfacet
 facet normal -0.5000 0.8660 -0.0000
   outer loop
     vertex -3.7281 0.2005 0.5000
     vertex -2.5125 0.9023 0.5000
     vertex -3.3715 0.4064 0.0000
   endloop
 endfacet
 facet normal -0.5000 0.8660 -0.0000
   outer loop
     vertex -2.3080 1.0204 0.5000
     vertex -2.3369 1.0037 0.0000
     vertex -2.3340 1.0053 0.5000
   endloop
 endfacet
 facet normal -0.5000 0.8660 -0.0000
   outer loop
     vertex -3.3715 0.4064 0.0000
     vertex -2.5125 0.9023 0.5000
     vertex -2.3369 1.0037 0.0000
   endloop
 endfacet
 facet normal -0.5000 0.8660 -0.0000
   outer loop
     vertex -2.3340 1.0053 0.5000
     vertex -2.3369 1.0037 0.0000
     vertex -2.5125 0.9023 0.5000
   endloop
 endfacet
 facet normal 0.0000 -0.0000 1.0000
   outer loop
     vertex 4.7376 0.3889 0.5000
     vertex -2.3340 1.0053 0.5000
     vertex -2.6961 -5.6614 0.5000
   endloop
 endfacet
 facet normal -0.0000 0.0000 1.0000
   outer loop
     vertex -2.5125 0.9023 0.5000
     vertex -2.7651 -5.6230 0.5000
     vertex -2.3340 1.0053 0.5000
   endloop
 endfacet
 facet normal -0.0000 -0.0000 1.0000
   outer loop
     vertex -2.6961 -5.6614 0.5000
     vertex -2.3340 1.0053 0.5000
     vertex -2.7651 -5.6230 0.5000
   endloop
 endfacet
 facet normal -0.4855 -0.8741 -0.0133
   outer loop
     vertex 0.4922 -7.4323 0.5000
     vertex -2.6563 -5.6834 0.5000
     vertex 0.3042 -7.3203 0.0000
   endloop
 endfacet
 facet normal -0.4855 -0.8741 -0.0133
   outer loop
     vertex -2.8128 -5.5965 0.5000
     vertex -2.8095 -5.5908 0.0000
     vertex -2.7651 -5.6230 0.5000
   endloop
 endfacet
 facet normal -0.4855 -0.8741 -0.0133
   outer loop
     vertex 0.3042 -7.3203 0.0000
     vertex -2.6563 -5.6834 0.5000
     vertex -2.8095 -5.5908 0.0000
   endloop
 endfacet
 facet normal -0.4855 -0.8741 -0.0133
   outer loop
     vertex -2.7651 -5.6230 0.5000
     vertex -2.8095 -5.5908 0.0000
     vertex -2.6961 -5.6614 0.5000
   endloop
 endfacet
 facet normal -0.4855 -0.8741 -0.0133
   outer loop
     vertex -2.6563 -5.6834 0.5000
     vertex -2.6926 -5.6633 0.5000
     vertex -2.8095 -5.5908 0.0000
   endloop
 endfacet
 facet normal -0.4855 -0.8741 -0.0133
   outer loop
     vertex -2.6961 -5.6614 0.5000
     vertex -2.8095 -5.5908 0.0000
     vertex -2.6926 -5.6633 0.5000
   endloop
 endfacet
 facet normal -0.0000 0.0000 1.0000
   outer loop
     vertex 5.0888 0.1860 0.5000
     vertex -2.6926 -5.6633 0.5000
     vertex 7.1504 -2.3415 0.5000
   endloop
 endfacet
 facet normal -0.0000 -0.0000 1.0000
   outer loop
     vertex -2.6563 -5.6834 0.5000
     vertex 7.1092 -2.4604 0.5000
     vertex -2.6926 -5.6633 0.5000
   endloop
 endfacet
 facet normal -0.0000 -0.0000 1.0000
   outer loop
     vertex 7.1504 -2.3415 0.5000
     vertex -2.6926 -5.6633 0.5000
     vertex 7.0959 -2.4359 0.5000
   endloop
 endfacet
 facet normal 0.0000 -0.0000 1.0000
   outer loop
     vertex 7.1092 -2.4604 0.5000
     vertex 7.0959 -2.4359 0.5000
     vertex -2.6926 -5.6633 0.5000
   endloop
 endfacet
 facet normal 0.8661 -0.4998 0.0000
   outer loop
     vertex 8.3264 -0.3036 0.5000
     vertex 7.1504 -2.3415 0.5000
     vertex 8.2730 -0.3961 0.0000
   endloop
 endfacet
 facet normal 0.8661 -0.4998 -0.0000
   outer loop
     vertex 7.0959 -2.4359 0.5000
     vertex 7.0967 -2.4345 0.0000
     vertex 7.1504 -2.3415 0.5000
   endloop
 endfacet
 facet normal 0.8661 -0.4998 -0.0000
   outer loop
     vertex 8.2730 -0.3961 0.0000
     vertex 7.1504 -2.3415 0.5000
     vertex 7.0967 -2.4345 0.0000
   endloop
 endfacet
 facet normal 0.8661 -0.4998 -0.0000
   outer loop
     vertex 9.0589 0.9659 0.0000
     vertex 9.0613 0.9700 0.5000
     vertex 8.3264 -0.3036 0.5000
   endloop
 endfacet
 facet normal 0.8661 -0.4998 0.0000
   outer loop
     vertex 8.3264 -0.3036 0.5000
     vertex 8.2730 -0.3961 0.0000
     vertex 9.0589 0.9659 0.0000
   endloop
 endfacet
 facet normal 1.0000 0.0001 -0.0000
   outer loop
     vertex 3.0990 11.3253 0.5000
     vertex 3.0997 6.4373 0.5000
     vertex 3.0997 6.6403 0.0000
   endloop
 endfacet
 facet normal 1.0000 0.0001 -0.0000
   outer loop
     vertex 3.0997 6.6403 0.0000
     vertex 3.0990 11.3253 0.0000
     vertex 3.0990 11.3253 0.5000
   endloop
 endfacet
 facet normal -0.0000 -0.0000 1.0000
   outer loop
     vertex 3.1000 4.6719 0.5000
     vertex 3.0997 6.4373 0.5000
     vertex -0.5468 11.3177 0.5000
   endloop
 endfacet
 facet normal -0.0000 0.0000 1.0000
   outer loop
     vertex 3.0990 11.3253 0.5000
     vertex 0.8084 11.3097 0.5000
     vertex 3.0997 6.4373 0.5000
   endloop
 endfacet
 facet normal -0.0000 -0.0000 1.0000
   outer loop
     vertex -0.5468 11.3177 0.5000
     vertex 3.0997 6.4373 0.5000
     vertex 0.8084 11.3097 0.5000
   endloop
 endfacet
 facet normal -0.0000 -0.0000 1.0000
   outer loop
     vertex 3.1000 4.4906 0.5000
     vertex 3.1000 4.6719 0.5000
     vertex -4.4374 4.5741 0.5000
   endloop
 endfacet
 facet normal 0.0000 0.0000 1.0000
   outer loop
     vertex -0.5468 11.3177 0.5000
     vertex -0.5525 11.3178 0.5000
     vertex 3.1000 4.6719 0.5000
   endloop
 endfacet
 facet normal -0.0000 -0.0000 1.0000
   outer loop
     vertex -4.4374 4.5741 0.5000
     vertex 3.1000 4.6719 0.5000
     vertex -2.9194 7.1877 0.5000
   endloop
 endfacet
 facet normal -0.0000 0.0000 1.0000
   outer loop
     vertex -0.5525 11.3178 0.5000
     vertex -2.9194 7.1877 0.5000
     vertex 3.1000 4.6719 0.5000
   endloop
 endfacet
 facet normal -0.8647 0.5023 0.0024
   outer loop
     vertex -4.4410 4.5680 0.5000
     vertex -4.4374 4.5741 0.5000
     vertex -4.4417 4.5692 0.0000
   endloop
 endfacet
 facet normal -0.8647 0.5022 0.0024
   outer loop
     vertex -2.9194 7.1877 0.5000
     vertex -2.8145 7.3707 0.0000
     vertex -4.4374 4.5741 0.5000
   endloop
 endfacet
 facet normal -0.8647 0.5022 0.0024
   outer loop
     vertex -4.4417 4.5692 0.0000
     vertex -4.4374 4.5741 0.5000
     vertex -2.8145 7.3707 0.0000
   endloop
 endfacet
 facet normal -0.8536 -0.5209 -0.0001
   outer loop
     vertex -2.4517 1.3081 0.0000
     vertex -2.3594 1.1568 0.5000
     vertex -4.4410 4.5680 0.5000
   endloop
 endfacet
 facet normal -0.8536 -0.5209 -0.0001
   outer loop
     vertex -4.4410 4.5680 0.5000
     vertex -4.4417 4.5692 0.0000
     vertex -2.4517 1.3081 0.0000
   endloop
 endfacet
 facet normal -0.5000 0.8660 -0.0000
   outer loop
     vertex -8.5266 -2.5699 0.5000
     vertex -8.5212 -2.5668 0.5000
     vertex -8.5253 -2.5692 0.0000
   endloop
 endfacet
 facet normal -0.5000 0.8660 -0.0000
   outer loop
     vertex -3.7281 0.2005 0.5000
     vertex -3.3715 0.4064 0.0000
     vertex -8.5212 -2.5668 0.5000
   endloop
 endfacet
 facet normal -0.5000 0.8660 -0.0000
   outer loop
     vertex -8.5253 -2.5692 0.0000
     vertex -8.5212 -2.5668 0.5000
     vertex -3.3715 0.4064 0.0000
   endloop
 endfacet
 facet normal -0.0000 -0.0000 1.0000
   outer loop
     vertex -2.8567 -5.6725 0.5000
     vertex -2.8128 -5.5965 0.5000
     vertex -8.5212 -2.5668 0.5000
   endloop
 endfacet
 facet normal -0.0000 -0.0000 1.0000
   outer loop
     vertex -2.7651 -5.6230 0.5000
     vertex -2.5125 0.9023 0.5000
     vertex -2.8128 -5.5965 0.5000
   endloop
 endfacet
 facet normal -0.0000 -0.0000 1.0000
   outer loop
     vertex -8.5212 -2.5668 0.5000
     vertex -2.8128 -5.5965 0.5000
     vertex -3.7281 0.2005 0.5000
   endloop
 endfacet
 facet normal -0.0000 -0.0000 1.0000
   outer loop
     vertex -2.5125 0.9023 0.5000
     vertex -3.7281 0.2005 0.5000
     vertex -2.8128 -5.5965 0.5000
   endloop
 endfacet
 facet normal -0.5119 -0.8590 0.0000
   outer loop
     vertex 3.3513 -9.1361 0.0000
     vertex 3.3525 -9.1368 0.5000
     vertex 0.4922 -7.4323 0.5000
   endloop
 endfacet
 facet normal -0.5119 -0.8590 0.0000
   outer loop
     vertex 0.4922 -7.4323 0.5000
     vertex 0.3042 -7.3203 0.0000
     vertex 3.3513 -9.1361 0.0000
   endloop
 endfacet
 facet normal 0.0000 -0.0000 1.0000
   outer loop
     vertex 7.1524 -2.5404 0.5000
     vertex 7.1092 -2.4604 0.5000
     vertex 3.4473 -9.0816 0.5000
   endloop
 endfacet
 facet normal -0.0000 -0.0000 1.0000
   outer loop
     vertex -2.6563 -5.6834 0.5000
     vertex 0.4922 -7.4323 0.5000
     vertex 7.1092 -2.4604 0.5000
   endloop
 endfacet
 facet normal -0.0000 -0.0000 1.0000
   outer loop
     vertex 3.3525 -9.1368 0.5000
     vertex 3.4473 -9.0816 0.5000
     vertex 0.4922 -7.4323 0.5000
   endloop
 endfacet
 facet normal -0.0000 -0.0000 1.0000
   outer loop
     vertex 7.1092 -2.4604 0.5000
     vertex 0.4922 -7.4323 0.5000
     vertex 3.4473 -9.0816 0.5000
   endloop
 endfacet
 facet normal 0.8662 -0.4997 0.0000
   outer loop
     vertex -2.8128 -5.5965 0.5000
     vertex -2.8567 -5.6725 0.5000
     vertex -2.8095 -5.5908 0.0000
   endloop
 endfacet
 facet normal 0.8662 -0.4997 0.0000
   outer loop
     vertex -3.2499 -6.3541 0.5000
     vertex -3.3283 -6.4900 0.0000
     vertex -2.8567 -5.6725 0.5000
   endloop
 endfacet
 facet normal 0.8662 -0.4997 0.0000
   outer loop
     vertex -2.8095 -5.5908 0.0000
     vertex -2.8567 -5.6725 0.5000
     vertex -3.3283 -6.4900 0.0000
   endloop
 endfacet
 facet normal 0.8799 0.4751 0.0027
   outer loop
     vertex 7.0959 -2.4359 0.5000
     vertex 7.1092 -2.4604 0.5000
     vertex 7.0967 -2.4345 0.0000
   endloop
 endfacet
 facet normal 0.8799 0.4751 0.0027
   outer loop
     vertex 7.7776 -3.6984 0.5000
     vertex 7.8474 -3.8249 0.0000
     vertex 7.1524 -2.5404 0.5000
   endloop
 endfacet
 facet normal 0.8799 0.4751 0.0027
   outer loop
     vertex 7.0967 -2.4345 0.0000
     vertex 7.1092 -2.4604 0.5000
     vertex 7.8474 -3.8249 0.0000
   endloop
 endfacet
 facet normal 0.8799 0.4751 0.0027
   outer loop
     vertex 7.1524 -2.5404 0.5000
     vertex 7.8474 -3.8249 0.0000
     vertex 7.1092 -2.4604 0.5000
   endloop
 endfacet
 facet normal -0.0068 1.0000 0.0000
   outer loop
     vertex 0.9035 11.3103 0.0000
     vertex 0.8084 11.3097 0.5000
     vertex 3.0990 11.3253 0.5000
   endloop
 endfacet
 facet normal -0.0068 1.0000 -0.0000
   outer loop
     vertex 3.0990 11.3253 0.5000
     vertex 3.0990 11.3253 0.0000
     vertex 0.9035 11.3103 0.0000
   endloop
 endfacet
 facet normal 0.0061 1.0000 0.0024
   outer loop
     vertex -0.5525 11.3178 0.5000
     vertex -0.5468 11.3177 0.5000
     vertex -0.5518 11.3190 0.0000
   endloop
 endfacet
 facet normal 0.0060 1.0000 0.0024
   outer loop
     vertex 0.8084 11.3097 0.5000
     vertex 0.9035 11.3103 0.0000
     vertex -0.5468 11.3177 0.5000
   endloop
 endfacet
 facet normal 0.0060 1.0000 0.0024
   outer loop
     vertex -0.5518 11.3190 0.0000
     vertex -0.5468 11.3177 0.5000
     vertex 0.9035 11.3103 0.0000
   endloop
 endfacet
 facet normal -0.8676 0.4972 -0.0000
   outer loop
     vertex -2.8145 7.3707 0.0000
     vertex -2.9194 7.1877 0.5000
     vertex -0.5525 11.3178 0.5000
   endloop
 endfacet
 facet normal -0.8676 0.4972 -0.0000
   outer loop
     vertex -0.5525 11.3178 0.5000
     vertex -0.5518 11.3190 0.0000
     vertex -2.8145 7.3707 0.0000
   endloop
 endfacet
 facet normal -1.0000 -0.0033 -0.0026
   outer loop
     vertex -8.5141 -6.3337 0.5000
     vertex -8.5262 -2.6842 0.5000
     vertex -8.5134 -6.1604 0.0000
   endloop
 endfacet
 facet normal -1.0000 -0.0033 -0.0026
   outer loop
     vertex -8.5266 -2.5699 0.5000
     vertex -8.5253 -2.5692 0.0000
     vertex -8.5262 -2.6842 0.5000
   endloop
 endfacet
 facet normal -1.0000 -0.0033 -0.0026
   outer loop
     vertex -8.5134 -6.1604 0.0000
     vertex -8.5262 -2.6842 0.5000
     vertex -8.5253 -2.5692 0.0000
   endloop
 endfacet
 facet normal -0.0000 0.0000 1.0000
   outer loop
     vertex -8.5212 -2.5668 0.5000
     vertex -8.5266 -2.5699 0.5000
     vertex -2.8567 -5.6725 0.5000
   endloop
 endfacet
 facet normal -0.0000 -0.0000 1.0000
   outer loop
     vertex -8.5262 -2.6842 0.5000
     vertex -4.8800 -9.1685 0.5000
     vertex -8.5266 -2.5699 0.5000
   endloop
 endfacet
 facet normal -0.0000 -0.0000 1.0000
   outer loop
     vertex -4.8738 -9.1687 0.5000
     vertex -3.2499 -6.3541 0.5000
     vertex -4.8800 -9.1685 0.5000
   endloop
 endfacet
 facet normal 0.0000 -0.0000 1.0000
   outer loop
     vertex -2.8567 -5.6725 0.5000
     vertex -8.5266 -2.5699 0.5000
     vertex -3.2499 -6.3541 0.5000
   endloop
 endfacet
 facet normal -0.0000 -0.0000 1.0000
   outer loop
     vertex -4.8800 -9.1685 0.5000
     vertex -3.2499 -6.3541 0.5000
     vertex -8.5266 -2.5699 0.5000
   endloop
 endfacet
 facet normal 0.5029 -0.8643 -0.0024
   outer loop
     vertex 6.6060 -7.2436 0.5000
     vertex 3.4473 -9.0816 0.5000
     vertex 6.4556 -7.3297 0.0000
   endloop
 endfacet
 facet normal 0.5029 -0.8643 -0.0024
   outer loop
     vertex 3.3525 -9.1368 0.5000
     vertex 3.3513 -9.1361 0.0000
     vertex 3.4473 -9.0816 0.5000
   endloop
 endfacet
 facet normal 0.5029 -0.8643 -0.0024
   outer loop
     vertex 6.4556 -7.3297 0.0000
     vertex 3.4473 -9.0816 0.5000
     vertex 3.3513 -9.1361 0.0000
   endloop
 endfacet
 facet normal -0.0000 -0.0000 1.0000
   outer loop
     vertex 3.4473 -9.0816 0.5000
     vertex 6.6060 -7.2436 0.5000
     vertex 7.1524 -2.5404 0.5000
   endloop
 endfacet
 facet normal 0.0000 -0.0000 1.0000
   outer loop
     vertex 9.0499 -5.8447 0.5000
     vertex 7.7776 -3.6984 0.5000
     vertex 6.6060 -7.2436 0.5000
   endloop
 endfacet
 facet normal -0.0000 0.0000 1.0000
   outer loop
     vertex 7.1524 -2.5404 0.5000
     vertex 6.6060 -7.2436 0.5000
     vertex 7.7776 -3.6984 0.5000
   endloop
 endfacet
 facet normal 0.8662 -0.4997 0.0000
   outer loop
     vertex -3.3283 -6.4900 0.0000
     vertex -3.2499 -6.3541 0.5000
     vertex -4.8738 -9.1687 0.5000
   endloop
 endfacet
 facet normal 0.8662 -0.4997 0.0000
   outer loop
     vertex -4.8738 -9.1687 0.5000
     vertex -4.8745 -9.1700 0.0000
     vertex -3.3283 -6.4900 0.0000
   endloop
 endfacet
 facet normal 0.8602 0.5099 -0.0088
   outer loop
     vertex 7.8474 -3.8249 0.0000
     vertex 7.7776 -3.6984 0.5000
     vertex 9.0499 -5.8447 0.5000
   endloop
 endfacet
 facet normal 0.8602 0.5099 -0.0088
   outer loop
     vertex 9.0499 -5.8447 0.5000
     vertex 9.0460 -5.8469 0.0000
     vertex 7.8474 -3.8249 0.0000
   endloop
 endfacet
 facet normal -1.0000 0.0041 0.0000
   outer loop
     vertex -8.5257 -9.1546 0.0000
     vertex -8.5257 -9.1585 0.5000
     vertex -8.5141 -6.3337 0.5000
   endloop
 endfacet
 facet normal -1.0000 0.0041 0.0000
   outer loop
     vertex -8.5141 -6.3337 0.5000
     vertex -8.5134 -6.1604 0.0000
     vertex -8.5257 -9.1546 0.0000
   endloop
 endfacet
 facet normal -0.0000 -0.0000 1.0000
   outer loop
     vertex -8.5262 -2.6842 0.5000
     vertex -8.5141 -6.3337 0.5000
     vertex -4.8800 -9.1685 0.5000
   endloop
 endfacet
 facet normal -0.0000 -0.0000 1.0000
   outer loop
     vertex -8.5257 -9.1585 0.5000
     vertex -6.3200 -9.1198 0.5000
     vertex -8.5141 -6.3337 0.5000
   endloop
 endfacet
 facet normal -0.0000 -0.0000 1.0000
   outer loop
     vertex -4.8800 -9.1685 0.5000
     vertex -8.5141 -6.3337 0.5000
     vertex -6.3200 -9.1198 0.5000
   endloop
 endfacet
 facet normal -0.0338 -0.9994 0.0026
   outer loop
     vertex -4.8738 -9.1687 0.5000
     vertex -4.8800 -9.1685 0.5000
     vertex -4.8745 -9.1700 0.0000
   endloop
 endfacet
 facet normal -0.0338 -0.9994 0.0026
   outer loop
     vertex -6.3200 -9.1198 0.5000
     vertex -6.4211 -9.1176 0.0000
     vertex -4.8800 -9.1685 0.5000
   endloop
 endfacet
 facet normal -0.0338 -0.9994 0.0026
   outer loop
     vertex -4.8745 -9.1700 0.0000
     vertex -4.8800 -9.1685 0.5000
     vertex -6.4211 -9.1176 0.0000
   endloop
 endfacet
 facet normal 0.4968 -0.8679 0.0000
   outer loop
     vertex 9.0460 -5.8469 0.0000
     vertex 9.0499 -5.8447 0.5000
     vertex 6.6060 -7.2436 0.5000
   endloop
 endfacet
 facet normal 0.4968 -0.8679 0.0000
   outer loop
     vertex 6.6060 -7.2436 0.5000
     vertex 6.4556 -7.3297 0.0000
     vertex 9.0460 -5.8469 0.0000
   endloop
 endfacet
 facet normal 0.0176 -0.9998 -0.0078
   outer loop
     vertex -6.4211 -9.1176 0.0000
     vertex -6.3200 -9.1198 0.5000
     vertex -8.5257 -9.1585 0.5000
   endloop
 endfacet
 facet normal 0.0176 -0.9998 -0.0078
   outer loop
     vertex -8.5257 -9.1585 0.5000
     vertex -8.5257 -9.1546 0.0000
     vertex -6.4211 -9.1176 0.0000
   endloop
 endfacet
 facet normal -0.0000 -0.0000 -1.0000
   outer loop
     vertex -0.5518 11.3190 0.0000
     vertex 0.9035 11.3103 0.0000
     vertex -2.8145 7.3707 0.0000
   endloop
 endfacet
 facet normal -0.0000 -0.0000 -1.0000
   outer loop
     vertex 3.0990 11.3253 0.0000
     vertex 3.0997 6.6403 0.0000
     vertex 0.9035 11.3103 0.0000
   endloop
 endfacet
 facet normal -0.0000 -0.0000 -1.0000
   outer loop
     vertex 6.2306 2.6249 0.0000
     vertex 6.4304 2.5095 0.0000
     vertex 6.0790 2.7123 0.0000
   endloop
 endfacet
 facet normal -0.0000 -0.0000 -1.0000
   outer loop
     vertex 9.0589 0.9659 0.0000
     vertex 8.2730 -0.3961 0.0000
     vertex 7.6898 1.7265 0.0000
   endloop
 endfacet
 facet normal -0.0000 -0.0000 -1.0000
   outer loop
     vertex 9.0460 -5.8469 0.0000
     vertex 6.4556 -7.3297 0.0000
     vertex 7.8474 -3.8249 0.0000
   endloop
 endfacet
 facet normal -0.0000 0.0000 -1.0000
   outer loop
     vertex 3.3513 -9.1361 0.0000
     vertex 0.3042 -7.3203 0.0000
     vertex 6.4556 -7.3297 0.0000
   endloop
 endfacet
 facet normal -0.0000 0.0000 -1.0000
   outer loop
     vertex -4.8745 -9.1700 0.0000
     vertex -6.4211 -9.1176 0.0000
     vertex -3.3283 -6.4900 0.0000
   endloop
 endfacet
 facet normal -0.0000 -0.0000 -1.0000
   outer loop
     vertex -8.5257 -9.1546 0.0000
     vertex -8.5134 -6.1604 0.0000
     vertex -6.4211 -9.1176 0.0000
   endloop
 endfacet
 facet normal 0.0000 -0.0000 -1.0000
   outer loop
     vertex -8.5253 -2.5692 0.0000
     vertex -3.3715 0.4064 0.0000
     vertex -8.5134 -6.1604 0.0000
   endloop
 endfacet
 facet normal 0.0000 -0.0000 -1.0000
   outer loop
     vertex -4.4417 4.5692 0.0000
     vertex -2.8145 7.3707 0.0000
     vertex -2.4517 1.3081 0.0000
   endloop
 endfacet
 facet normal -0.0000 -0.0000 -1.0000
   outer loop
     vertex 0.9035 11.3103 0.0000
     vertex 3.0997 6.6403 0.0000
     vertex -2.8145 7.3707 0.0000
   endloop
 endfacet
 facet normal -0.0000 -0.0000 -1.0000
   outer loop
     vertex 6.4304 2.5095 0.0000
     vertex 7.6898 1.7265 0.0000
     vertex 6.0790 2.7123 0.0000
   endloop
 endfacet
 facet normal -0.0000 -0.0000 -1.0000
   outer loop
     vertex 8.2730 -0.3961 0.0000
     vertex 7.0967 -2.4345 0.0000
     vertex 7.6898 1.7265 0.0000
   endloop
 endfacet
 facet normal -0.0000 -0.0000 -1.0000
   outer loop
     vertex 7.8474 -3.8249 0.0000
     vertex 6.4556 -7.3297 0.0000
     vertex 7.0967 -2.4345 0.0000
   endloop
 endfacet
 facet normal 0.0000 0.0000 -1.0000
   outer loop
     vertex 0.3042 -7.3203 0.0000
     vertex -2.8095 -5.5908 0.0000
     vertex 6.4556 -7.3297 0.0000
   endloop
 endfacet
 facet normal -0.0000 0.0000 -1.0000
   outer loop
     vertex -3.3283 -6.4900 0.0000
     vertex -6.4211 -9.1176 0.0000
     vertex -2.8095 -5.5908 0.0000
   endloop
 endfacet
 facet normal 0.0000 -0.0000 -1.0000
   outer loop
     vertex -8.5134 -6.1604 0.0000
     vertex -3.3715 0.4064 0.0000
     vertex -6.4211 -9.1176 0.0000
   endloop
 endfacet
 facet normal 0.0000 0.0000 -1.0000
   outer loop
     vertex -2.4517 1.3081 0.0000
     vertex -2.8145 7.3707 0.0000
     vertex -2.3369 1.0037 0.0000
   endloop
 endfacet
 facet normal -0.0000 -0.0000 -1.0000
   outer loop
     vertex 3.0997 6.6403 0.0000
     vertex 3.1000 4.4317 0.0000
     vertex -2.8145 7.3707 0.0000
   endloop
 endfacet
 facet normal -0.0000 -0.0000 -1.0000
   outer loop
     vertex 6.0790 2.7123 0.0000
     vertex 7.6898 1.7265 0.0000
     vertex 4.0762 3.8683 0.0000
   endloop
 endfacet
 facet normal -0.0000 0.0000 -1.0000
   outer loop
     vertex 6.4556 -7.3297 0.0000
     vertex -2.8095 -5.5908 0.0000
     vertex 7.0967 -2.4345 0.0000
   endloop
 endfacet
 facet normal -0.0000 -0.0000 -1.0000
   outer loop
     vertex -6.4211 -9.1176 0.0000
     vertex -3.3715 0.4064 0.0000
     vertex -2.8095 -5.5908 0.0000
   endloop
 endfacet
 facet normal -0.0000 -0.0000 -1.0000
   outer loop
     vertex -2.8145 7.3707 0.0000
     vertex 3.1000 4.4317 0.0000
     vertex -2.3369 1.0037 0.0000
   endloop
 endfacet
 facet normal -0.0000 -0.0000 -1.0000
   outer loop
     vertex 4.0762 3.8683 0.0000
     vertex 7.6898 1.7265 0.0000
     vertex 3.1000 4.4317 0.0000
   endloop
 endfacet
 facet normal -0.0000 0.0000 -1.0000
   outer loop
     vertex 7.0967 -2.4345 0.0000
     vertex -2.8095 -5.5908 0.0000
     vertex 7.6898 1.7265 0.0000
   endloop
 endfacet
 facet normal 0.0000 -0.0000 -1.0000
   outer loop
     vertex -3.3715 0.4064 0.0000
     vertex -2.3369 1.0037 0.0000
     vertex -2.8095 -5.5908 0.0000
   endloop
 endfacet
 facet normal -0.0000 -0.0000 -1.0000
   outer loop
     vertex 3.1000 4.4317 0.0000
     vertex 7.6898 1.7265 0.0000
     vertex -2.3369 1.0037 0.0000
   endloop
 endfacet
 facet normal -0.0000 -0.0000 -1.0000
   outer loop
     vertex -2.8095 -5.5908 0.0000
     vertex -2.3369 1.0037 0.0000
     vertex 7.6898 1.7265 0.0000
   endloop
 endfacet
endsolid
