solid Cheetah3Dfile
 facet normal -0.0000 0.0000 1.0000
   outer loop
     vertex 45.4994 22.9704 1.8165
     vertex 45.0316 22.1596 1.8165
     vertex 60.7942 14.5848 1.8165
   endloop
 endfacet
 facet normal -0.0000 0.0000 1.0000
   outer loop
     vertex 44.6559 22.3764 1.8165
     vertex 43.9783 4.8764 1.8165
     vertex 45.0316 22.1596 1.8165
   endloop
 endfacet
 facet normal 0.0000 -0.0000 1.0000
   outer loop
     vertex 60.7942 14.5848 1.8165
     vertex 45.0316 22.1596 1.8165
     vertex 43.9783 4.8764 1.8165
   endloop
 endfacet
 facet normal 0.5000 -0.8660 -0.0000
   outer loop
     vertex 60.8180 14.5986 1.8165
     vertex 60.7942 14.5848 1.8165
     vertex 60.8180 14.5986 0.3165
   endloop
 endfacet
 facet normal 0.5000 -0.8660 -0.0000
   outer loop
     vertex 42.6848 4.1296 1.8165
     vertex 42.6848 4.1296 0.3165
     vertex 42.8008 4.1966 1.8165
   endloop
 endfacet
 facet normal 0.5000 -0.8660 0.0000
   outer loop
     vertex 60.8180 14.5986 0.3165
     vertex 60.7942 14.5848 1.8165
     vertex 42.6848 4.1296 0.3165
   endloop
 endfacet
 facet normal 0.5000 -0.8660 -0.0000
   outer loop
     vertex 42.8008 4.1966 1.8165
     vertex 42.6848 4.1296 0.3165
     vertex 43.9783 4.8764 1.8165
   endloop
 endfacet
 facet normal 0.5000 -0.8660 -0.0000
   outer loop
     vertex 60.7942 14.5848 1.8165
     vertex 43.9783 4.8764 1.8165
     vertex 42.6848 4.1296 0.3165
   endloop
 endfacet
 facet normal -0.0000 -0.0000 1.0000
   outer loop
     vertex 60.7942 14.5848 1.8165
     vertex 60.8180 14.5986 1.8165
     vertex 45.4994 22.9704 1.8165
   endloop
 endfacet
 facet normal 0.0000 -0.0000 1.0000
   outer loop
     vertex 60.8183 15.6979 1.8165
     vertex 51.1864 32.8273 1.8165
     vertex 60.8180 14.5986 1.8165
   endloop
 endfacet
 facet normal -0.0000 -0.0000 1.0000
   outer loop
     vertex 45.4994 22.9704 1.8165
     vertex 60.8180 14.5986 1.8165
     vertex 51.1864 32.8273 1.8165
   endloop
 endfacet
 facet normal -0.8662 0.4997 -0.0000
   outer loop
     vertex 45.0316 22.1596 1.8165
     vertex 45.4994 22.9704 1.8165
     vertex 45.0316 22.1596 0.3165
   endloop
 endfacet
 facet normal -0.8661 0.4998 -0.0000
   outer loop
     vertex 51.1933 32.8393 1.8165
     vertex 51.1933 32.8393 0.3165
     vertex 51.1864 32.8273 1.8165
   endloop
 endfacet
 facet normal -0.8662 0.4997 0.0000
   outer loop
     vertex 45.0316 22.1596 0.3165
     vertex 45.4994 22.9704 1.8165
     vertex 51.1933 32.8393 0.3165
   endloop
 endfacet
 facet normal -0.8662 0.4997 -0.0000
   outer loop
     vertex 51.1864 32.8273 1.8165
     vertex 51.1933 32.8393 0.3165
     vertex 45.4994 22.9704 1.8165
   endloop
 endfacet
 facet normal 0.4997 0.8662 0.0000
   outer loop
     vertex 26.8870 32.6281 1.8165
     vertex 43.5298 23.0261 1.8165
     vertex 26.8870 32.6281 0.3165
   endloop
 endfacet
 facet normal 0.4997 0.8662 0.0000
   outer loop
     vertex 45.0316 22.1596 1.8165
     vertex 45.0316 22.1596 0.3165
     vertex 44.6559 22.3764 1.8165
   endloop
 endfacet
 facet normal 0.4997 0.8662 0.0000
   outer loop
     vertex 26.8870 32.6281 0.3165
     vertex 43.5298 23.0261 1.8165
     vertex 45.0316 22.1596 0.3165
   endloop
 endfacet
 facet normal 0.4997 0.8662 -0.0000
   outer loop
     vertex 44.6559 22.3764 1.8165
     vertex 45.0316 22.1596 0.3165
     vertex 43.5298 23.0261 1.8165
   endloop
 endfacet
 facet normal -0.0000 0.0000 1.0000
   outer loop
     vertex 35.7163 9.8831 1.8165
     vertex 35.6753 9.4668 1.8165
     vertex 42.8008 4.1966 1.8165
   endloop
 endfacet
 facet normal -0.0000 -0.0000 1.0000
   outer loop
     vertex 35.7163 9.8831 1.8165
     vertex 42.8008 4.1966 1.8165
     vertex 35.6753 10.2994 1.8165
   endloop
 endfacet
 facet normal 0.0000 -0.0000 1.0000
   outer loop
     vertex 43.9783 4.8764 1.8165
     vertex 44.6559 22.3764 1.8165
     vertex 42.8008 4.1966 1.8165
   endloop
 endfacet
 facet normal -0.0000 0.0000 1.0000
   outer loop
     vertex 43.5298 23.0261 1.8165
     vertex 16.5223 14.1125 1.8165
     vertex 44.6559 22.3764 1.8165
   endloop
 endfacet
 facet normal -0.0000 -0.0000 1.0000
   outer loop
     vertex 16.5120 13.5082 1.8165
     vertex 42.8008 4.1966 1.8165
     vertex 16.6915 13.8194 1.8165
   endloop
 endfacet
 facet normal -0.0000 0.0000 1.0000
   outer loop
     vertex 35.6753 9.4668 1.8165
     vertex 35.5539 9.0664 1.8165
     vertex 42.8008 4.1966 1.8165
   endloop
 endfacet
 facet normal -0.0000 -0.0000 1.0000
   outer loop
     vertex 35.6753 10.2994 1.8165
     vertex 42.8008 4.1966 1.8165
     vertex 35.5539 10.6997 1.8165
   endloop
 endfacet
 facet normal -0.0000 -0.0000 1.0000
   outer loop
     vertex 16.5223 14.1125 1.8165
     vertex 16.6915 13.8194 1.8165
     vertex 44.6559 22.3764 1.8165
   endloop
 endfacet
 facet normal -0.0000 0.0000 1.0000
   outer loop
     vertex 35.5539 9.0664 1.8165
     vertex 35.3567 8.6975 1.8165
     vertex 42.8008 4.1966 1.8165
   endloop
 endfacet
 facet normal -0.0000 -0.0000 1.0000
   outer loop
     vertex 35.5539 10.6997 1.8165
     vertex 42.8008 4.1966 1.8165
     vertex 35.3567 11.0687 1.8165
   endloop
 endfacet
 facet normal -0.0000 0.0000 1.0000
   outer loop
     vertex 35.3567 8.6975 1.8165
     vertex 35.0913 8.3741 1.8165
     vertex 42.8008 4.1966 1.8165
   endloop
 endfacet
 facet normal -0.0000 -0.0000 1.0000
   outer loop
     vertex 35.3567 11.0687 1.8165
     vertex 42.8008 4.1966 1.8165
     vertex 35.0913 11.3920 1.8165
   endloop
 endfacet
 facet normal -0.0000 0.0000 1.0000
   outer loop
     vertex 35.0913 8.3741 1.8165
     vertex 34.7679 8.1087 1.8165
     vertex 42.8008 4.1966 1.8165
   endloop
 endfacet
 facet normal -0.0000 -0.0000 1.0000
   outer loop
     vertex 42.8008 4.1966 1.8165
     vertex 44.6559 22.3764 1.8165
     vertex 35.0913 11.3920 1.8165
   endloop
 endfacet
 facet normal -0.0000 0.0000 1.0000
   outer loop
     vertex 34.7679 8.1087 1.8165
     vertex 34.3989 7.9115 1.8165
     vertex 42.8008 4.1966 1.8165
   endloop
 endfacet
 facet normal -0.0000 -0.0000 1.0000
   outer loop
     vertex 35.0913 11.3920 1.8165
     vertex 44.6559 22.3764 1.8165
     vertex 34.7679 11.6574 1.8165
   endloop
 endfacet
 facet normal -0.0000 0.0000 1.0000
   outer loop
     vertex 34.3989 7.9115 1.8165
     vertex 33.9986 7.7901 1.8165
     vertex 42.8008 4.1966 1.8165
   endloop
 endfacet
 facet normal -0.0000 -0.0000 1.0000
   outer loop
     vertex 34.7679 11.6574 1.8165
     vertex 44.6559 22.3764 1.8165
     vertex 34.3989 11.8546 1.8165
   endloop
 endfacet
 facet normal -0.0000 0.0000 1.0000
   outer loop
     vertex 33.9986 7.7901 1.8165
     vertex 33.5823 7.7491 1.8165
     vertex 42.8008 4.1966 1.8165
   endloop
 endfacet
 facet normal -0.0000 -0.0000 1.0000
   outer loop
     vertex 34.3989 11.8546 1.8165
     vertex 44.6559 22.3764 1.8165
     vertex 33.9986 11.9761 1.8165
   endloop
 endfacet
 facet normal 0.0000 0.0000 1.0000
   outer loop
     vertex 33.5823 7.7491 1.8165
     vertex 33.1660 7.7901 1.8165
     vertex 42.8008 4.1966 1.8165
   endloop
 endfacet
 facet normal -0.0000 -0.0000 1.0000
   outer loop
     vertex 33.9986 11.9761 1.8165
     vertex 44.6559 22.3764 1.8165
     vertex 33.5823 12.0171 1.8165
   endloop
 endfacet
 facet normal 0.0000 0.0000 1.0000
   outer loop
     vertex 33.1660 7.7901 1.8165
     vertex 32.7657 7.9115 1.8165
     vertex 42.8008 4.1966 1.8165
   endloop
 endfacet
 facet normal 0.0000 -0.0000 1.0000
   outer loop
     vertex 33.5823 12.0171 1.8165
     vertex 44.6559 22.3764 1.8165
     vertex 33.1660 11.9761 1.8165
   endloop
 endfacet
 facet normal -0.0000 -0.0000 1.0000
   outer loop
     vertex 42.8008 4.1966 1.8165
     vertex 32.7657 7.9115 1.8165
     vertex 16.6915 13.8194 1.8165
   endloop
 endfacet
 facet normal 0.0000 -0.0000 1.0000
   outer loop
     vertex 33.1660 11.9761 1.8165
     vertex 44.6559 22.3764 1.8165
     vertex 32.7657 11.8546 1.8165
   endloop
 endfacet
 facet normal -0.0000 -0.0000 1.0000
   outer loop
     vertex 32.7657 7.9115 1.8165
     vertex 32.3967 8.1087 1.8165
     vertex 16.6915 13.8194 1.8165
   endloop
 endfacet
 facet normal 0.0000 -0.0000 1.0000
   outer loop
     vertex 32.7657 11.8546 1.8165
     vertex 44.6559 22.3764 1.8165
     vertex 32.3967 11.6574 1.8165
   endloop
 endfacet
 facet normal -0.0000 -0.0000 1.0000
   outer loop
     vertex 32.3967 8.1087 1.8165
     vertex 32.0733 8.3741 1.8165
     vertex 16.6915 13.8194 1.8165
   endloop
 endfacet
 facet normal 0.0000 -0.0000 1.0000
   outer loop
     vertex 32.3967 11.6574 1.8165
     vertex 44.6559 22.3764 1.8165
     vertex 32.0733 11.3920 1.8165
   endloop
 endfacet
 facet normal -0.0000 -0.0000 1.0000
   outer loop
     vertex 32.0733 8.3741 1.8165
     vertex 31.8079 8.6975 1.8165
     vertex 16.6915 13.8194 1.8165
   endloop
 endfacet
 facet normal -0.0000 -0.0000 1.0000
   outer loop
     vertex 44.6559 22.3764 1.8165
     vertex 16.6915 13.8194 1.8165
     vertex 32.0733 11.3920 1.8165
   endloop
 endfacet
 facet normal -0.0000 -0.0000 1.0000
   outer loop
     vertex 31.8079 8.6975 1.8165
     vertex 31.6107 9.0664 1.8165
     vertex 16.6915 13.8194 1.8165
   endloop
 endfacet
 facet normal 0.0000 -0.0000 1.0000
   outer loop
     vertex 32.0733 11.3920 1.8165
     vertex 16.6915 13.8194 1.8165
     vertex 31.8079 11.0687 1.8165
   endloop
 endfacet
 facet normal -0.0000 -0.0000 1.0000
   outer loop
     vertex 31.6107 9.0664 1.8165
     vertex 31.4893 9.4668 1.8165
     vertex 16.6915 13.8194 1.8165
   endloop
 endfacet
 facet normal 0.0000 -0.0000 1.0000
   outer loop
     vertex 31.8079 11.0687 1.8165
     vertex 16.6915 13.8194 1.8165
     vertex 31.6107 10.6997 1.8165
   endloop
 endfacet
 facet normal -0.0000 -0.0000 1.0000
   outer loop
     vertex 31.4893 9.4668 1.8165
     vertex 31.4483 9.8831 1.8165
     vertex 16.6915 13.8194 1.8165
   endloop
 endfacet
 facet normal 0.0000 -0.0000 1.0000
   outer loop
     vertex 31.6107 10.6997 1.8165
     vertex 16.6915 13.8194 1.8165
     vertex 31.4893 10.2994 1.8165
   endloop
 endfacet
 facet normal -0.0000 -0.0000 1.0000
   outer loop
     vertex 31.4483 9.8831 1.8165
     vertex 31.4893 10.2994 1.8165
     vertex 16.6915 13.8194 1.8165
   endloop
 endfacet
 facet normal 0.0000 0.0000 -1.0000
   outer loop
     vertex 18.2381 0.0025 0.3165
     vertex 11.0971 4.1243 0.3165
     vertex 28.2422 -5.7714 0.3165
   endloop
 endfacet
 facet normal 0.0000 -0.0000 -1.0000
   outer loop
     vertex 11.0972 23.5090 0.3165
     vertex 26.8870 32.6281 0.3165
     vertex 16.6915 13.8194 0.3165
   endloop
 endfacet
 facet normal -0.0000 -0.0000 -1.0000
   outer loop
     vertex 51.1933 32.8393 0.3165
     vertex 60.8234 32.8342 0.3165
     vertex 45.0316 22.1596 0.3165
   endloop
 endfacet
 facet normal -0.0000 0.0000 -1.0000
   outer loop
     vertex 60.8180 14.5986 0.3165
     vertex 42.6848 4.1296 0.3165
     vertex 60.8234 32.8342 0.3165
   endloop
 endfacet
 facet normal -0.0000 -0.0000 -1.0000
   outer loop
     vertex 48.8527 -6.5508 0.3165
     vertex 37.8726 -25.5678 0.3165
     vertex 42.6848 4.1296 0.3165
   endloop
 endfacet
 facet normal -0.0000 0.0000 -1.0000
   outer loop
     vertex 28.2450 -25.5678 0.3165
     vertex 28.2422 -5.7714 0.3165
     vertex 37.8726 -25.5678 0.3165
   endloop
 endfacet
 facet normal 0.0000 -0.0000 -1.0000
   outer loop
     vertex 11.0971 4.1243 0.3165
     vertex 16.6915 13.8194 0.3165
     vertex 28.2422 -5.7714 0.3165
   endloop
 endfacet
 facet normal -0.0000 -0.0000 -1.0000
   outer loop
     vertex 26.8870 32.6281 0.3165
     vertex 45.0316 22.1596 0.3165
     vertex 16.6915 13.8194 0.3165
   endloop
 endfacet
 facet normal -0.0000 -0.0000 -1.0000
   outer loop
     vertex 60.8234 32.8342 0.3165
     vertex 42.6848 4.1296 0.3165
     vertex 45.0316 22.1596 0.3165
   endloop
 endfacet
 facet normal -0.0000 0.0000 -1.0000
   outer loop
     vertex 37.8726 -25.5678 0.3165
     vertex 28.2422 -5.7714 0.3165
     vertex 42.6848 4.1296 0.3165
   endloop
 endfacet
 facet normal 0.0000 -0.0000 -1.0000
   outer loop
     vertex 16.6915 13.8194 0.3165
     vertex 45.0316 22.1596 0.3165
     vertex 28.2422 -5.7714 0.3165
   endloop
 endfacet
 facet normal -0.0000 0.0000 -1.0000
   outer loop
     vertex 42.6848 4.1296 0.3165
     vertex 28.2422 -5.7714 0.3165
     vertex 45.0316 22.1596 0.3165
   endloop
 endfacet
 facet normal 1.0000 -0.0003 -0.0000
   outer loop
     vertex 60.8234 32.8342 1.8165
     vertex 60.8183 15.6979 1.8165
     vertex 60.8234 32.8342 0.3165
   endloop
 endfacet
 facet normal 1.0000 -0.0003 -0.0000
   outer loop
     vertex 60.8180 14.5986 1.8165
     vertex 60.8180 14.5986 0.3165
     vertex 60.8183 15.6979 1.8165
   endloop
 endfacet
 facet normal 1.0000 -0.0003 0.0000
   outer loop
     vertex 60.8234 32.8342 0.3165
     vertex 60.8183 15.6979 1.8165
     vertex 60.8180 14.5986 0.3165
   endloop
 endfacet
 facet normal 0.0000 -0.0000 1.0000
   outer loop
     vertex 42.8786 3.7942 1.8165
     vertex 42.6848 4.1296 1.8165
     vertex 11.6778 3.7891 1.8165
   endloop
 endfacet
 facet normal 0.0000 -0.0000 1.0000
   outer loop
     vertex 42.8008 4.1966 1.8165
     vertex 16.5120 13.5082 1.8165
     vertex 42.6848 4.1296 1.8165
   endloop
 endfacet
 facet normal -0.0000 -0.0000 1.0000
   outer loop
     vertex 11.0971 4.1243 1.8165
     vertex 11.6778 3.7891 1.8165
     vertex 16.5120 13.5082 1.8165
   endloop
 endfacet
 facet normal 0.0000 -0.0000 1.0000
   outer loop
     vertex 42.6848 4.1296 1.8165
     vertex 16.5120 13.5082 1.8165
     vertex 11.6778 3.7891 1.8165
   endloop
 endfacet
 facet normal 0.8660 0.5001 0.0000
   outer loop
     vertex 42.6848 4.1296 1.8165
     vertex 42.8786 3.7942 1.8165
     vertex 42.6848 4.1296 0.3165
   endloop
 endfacet
 facet normal 0.8660 0.5001 0.0000
   outer loop
     vertex 48.8527 -6.5508 1.8165
     vertex 48.8527 -6.5508 0.3165
     vertex 48.8459 -6.5389 1.8165
   endloop
 endfacet
 facet normal 0.8660 0.5001 0.0000
   outer loop
     vertex 42.6848 4.1296 0.3165
     vertex 42.8786 3.7942 1.8165
     vertex 48.8527 -6.5508 0.3165
   endloop
 endfacet
 facet normal 0.8660 0.5001 -0.0000
   outer loop
     vertex 48.8459 -6.5389 1.8165
     vertex 48.8527 -6.5508 0.3165
     vertex 43.1533 3.3184 1.8165
   endloop
 endfacet
 facet normal 0.8660 0.5001 -0.0000
   outer loop
     vertex 42.8786 3.7942 1.8165
     vertex 42.9757 3.6259 1.8165
     vertex 48.8527 -6.5508 0.3165
   endloop
 endfacet
 facet normal 0.8660 0.5001 0.0000
   outer loop
     vertex 43.1533 3.3184 1.8165
     vertex 48.8527 -6.5508 0.3165
     vertex 42.9757 3.6259 1.8165
   endloop
 endfacet
 facet normal -0.0000 -0.0000 1.0000
   outer loop
     vertex 51.1864 32.8273 1.8165
     vertex 60.8183 15.6979 1.8165
     vertex 60.8234 32.8342 1.8165
   endloop
 endfacet
 facet normal 0.0000 -0.0000 1.0000
   outer loop
     vertex 60.8234 32.8342 1.8165
     vertex 51.1933 32.8393 1.8165
     vertex 51.1864 32.8273 1.8165
   endloop
 endfacet
 facet normal 0.0005 1.0000 -0.0000
   outer loop
     vertex 51.1933 32.8393 0.3165
     vertex 51.1933 32.8393 1.8165
     vertex 60.8234 32.8342 1.8165
   endloop
 endfacet
 facet normal 0.0005 1.0000 0.0000
   outer loop
     vertex 60.8234 32.8342 1.8165
     vertex 60.8234 32.8342 0.3165
     vertex 51.1933 32.8393 0.3165
   endloop
 endfacet
 facet normal -0.5001 0.8660 -0.0000
   outer loop
     vertex 11.0972 23.5090 1.8165
     vertex 25.9962 32.1136 1.8165
     vertex 11.0972 23.5090 0.3165
   endloop
 endfacet
 facet normal -0.5001 0.8660 -0.0000
   outer loop
     vertex 26.8870 32.6281 1.8165
     vertex 26.8870 32.6281 0.3165
     vertex 25.9962 32.1136 1.8165
   endloop
 endfacet
 facet normal -0.5001 0.8660 -0.0000
   outer loop
     vertex 11.0972 23.5090 0.3165
     vertex 25.9962 32.1136 1.8165
     vertex 26.8870 32.6281 0.3165
   endloop
 endfacet
 facet normal -0.0000 -0.0000 1.0000
   outer loop
     vertex 16.1576 14.7442 1.8165
     vertex 16.5223 14.1125 1.8165
     vertex 25.9962 32.1136 1.8165
   endloop
 endfacet
 facet normal 0.0000 -0.0000 1.0000
   outer loop
     vertex 43.5298 23.0261 1.8165
     vertex 26.8870 32.6281 1.8165
     vertex 16.5223 14.1125 1.8165
   endloop
 endfacet
 facet normal -0.0000 0.0000 1.0000
   outer loop
     vertex 25.9962 32.1136 1.8165
     vertex 16.5223 14.1125 1.8165
     vertex 26.8870 32.6281 1.8165
   endloop
 endfacet
 facet normal -0.8661 0.4998 0.0000
   outer loop
     vertex 11.0971 4.1243 1.8165
     vertex 16.5120 13.5082 1.8165
     vertex 11.0971 4.1243 0.3165
   endloop
 endfacet
 facet normal -0.8661 0.4998 -0.0000
   outer loop
     vertex 16.6915 13.8194 1.8165
     vertex 16.6915 13.8194 0.3165
     vertex 16.5120 13.5082 1.8165
   endloop
 endfacet
 facet normal -0.8661 0.4998 0.0000
   outer loop
     vertex 11.0971 4.1243 0.3165
     vertex 16.5120 13.5082 1.8165
     vertex 16.6915 13.8194 0.3165
   endloop
 endfacet
 facet normal -0.8660 -0.5000 -0.0000
   outer loop
     vertex 16.6915 13.8194 1.8165
     vertex 16.5223 14.1125 1.8165
     vertex 16.6915 13.8194 0.3165
   endloop
 endfacet
 facet normal -0.8660 -0.5000 -0.0000
   outer loop
     vertex 11.0972 23.5090 1.8165
     vertex 11.0972 23.5090 0.3165
     vertex 16.1576 14.7442 1.8165
   endloop
 endfacet
 facet normal -0.8660 -0.5000 0.0000
   outer loop
     vertex 16.6915 13.8194 0.3165
     vertex 16.5223 14.1125 1.8165
     vertex 11.0972 23.5090 0.3165
   endloop
 endfacet
 facet normal -0.8660 -0.5000 -0.0000
   outer loop
     vertex 16.1576 14.7442 1.8165
     vertex 11.0972 23.5090 0.3165
     vertex 16.5223 14.1125 1.8165
   endloop
 endfacet
 facet normal -0.0000 -1.0000 0.0000
   outer loop
     vertex 37.8726 -25.5678 0.3165
     vertex 37.8726 -25.5678 1.8165
     vertex 28.2450 -25.5678 1.8165
   endloop
 endfacet
 facet normal -0.0000 -1.0000 -0.0000
   outer loop
     vertex 28.2450 -25.5678 1.8165
     vertex 28.2450 -25.5678 0.3165
     vertex 37.8726 -25.5678 0.3165
   endloop
 endfacet
 facet normal -1.0000 -0.0001 -0.0000
   outer loop
     vertex 28.2450 -25.5678 1.8165
     vertex 28.2425 -7.9704 1.8165
     vertex 28.2450 -25.5678 0.3165
   endloop
 endfacet
 facet normal -1.0000 -0.0001 -0.0000
   outer loop
     vertex 28.2422 -5.7714 1.8165
     vertex 28.2422 -5.7714 0.3165
     vertex 28.2422 -6.3106 1.8165
   endloop
 endfacet
 facet normal -1.0000 -0.0001 0.0000
   outer loop
     vertex 28.2450 -25.5678 0.3165
     vertex 28.2425 -7.9704 1.8165
     vertex 28.2422 -5.7714 0.3165
   endloop
 endfacet
 facet normal -1.0000 -0.0001 -0.0000
   outer loop
     vertex 28.2422 -6.3106 1.8165
     vertex 28.2422 -5.7714 0.3165
     vertex 28.2425 -7.9704 1.8165
   endloop
 endfacet
 facet normal -0.4999 -0.8661 -0.0000
   outer loop
     vertex 28.2422 -5.7714 1.8165
     vertex 28.2188 -5.7579 1.8165
     vertex 28.2422 -5.7714 0.3165
   endloop
 endfacet
 facet normal -0.4999 -0.8661 -0.0000
   outer loop
     vertex 18.2381 0.0025 1.8165
     vertex 18.2381 0.0025 0.3165
     vertex 19.1859 -0.5445 1.8165
   endloop
 endfacet
 facet normal -0.4999 -0.8661 0.0000
   outer loop
     vertex 28.2422 -5.7714 0.3165
     vertex 28.2188 -5.7579 1.8165
     vertex 18.2381 0.0025 0.3165
   endloop
 endfacet
 facet normal -0.4999 -0.8661 0.0000
   outer loop
     vertex 19.1859 -0.5445 1.8165
     vertex 18.2381 0.0025 0.3165
     vertex 28.2188 -5.7579 1.8165
   endloop
 endfacet
 facet normal -0.4999 -0.8661 -0.0000
   outer loop
     vertex 18.2381 0.0025 1.8165
     vertex 11.6778 3.7891 1.8165
     vertex 18.2381 0.0025 0.3165
   endloop
 endfacet
 facet normal -0.4999 -0.8661 -0.0000
   outer loop
     vertex 11.0971 4.1243 1.8165
     vertex 11.0971 4.1243 0.3165
     vertex 11.6778 3.7891 1.8165
   endloop
 endfacet
 facet normal -0.4999 -0.8661 -0.0000
   outer loop
     vertex 18.2381 0.0025 0.3165
     vertex 11.6778 3.7891 1.8165
     vertex 11.0971 4.1243 0.3165
   endloop
 endfacet
 facet normal 0.8660 -0.5000 -0.0000
   outer loop
     vertex 48.8527 -6.5508 1.8165
     vertex 37.8861 -25.5445 1.8165
     vertex 48.8527 -6.5508 0.3165
   endloop
 endfacet
 facet normal 0.8660 -0.5000 -0.0000
   outer loop
     vertex 37.8726 -25.5678 1.8165
     vertex 37.8726 -25.5678 0.3165
     vertex 37.8861 -25.5445 1.8165
   endloop
 endfacet
 facet normal 0.8660 -0.5000 0.0000
   outer loop
     vertex 48.8527 -6.5508 0.3165
     vertex 37.8861 -25.5445 1.8165
     vertex 37.8726 -25.5678 0.3165
   endloop
 endfacet
 facet normal 0.0000 -0.0000 1.0000
   outer loop
     vertex 42.9757 3.6259 1.8165
     vertex 42.8786 3.7942 1.8165
     vertex 19.1859 -0.5445 1.8165
   endloop
 endfacet
 facet normal -0.0000 -0.0000 1.0000
   outer loop
     vertex 11.6778 3.7891 1.8165
     vertex 18.2381 0.0025 1.8165
     vertex 42.8786 3.7942 1.8165
   endloop
 endfacet
 facet normal -0.0000 -0.0000 1.0000
   outer loop
     vertex 19.1859 -0.5445 1.8165
     vertex 42.8786 3.7942 1.8165
     vertex 18.2381 0.0025 1.8165
   endloop
 endfacet
 facet normal -0.0000 -0.0000 1.0000
   outer loop
     vertex 42.9757 3.6259 1.8165
     vertex 19.1859 -0.5445 1.8165
     vertex 28.2188 -5.7579 1.8165
   endloop
 endfacet
 facet normal -0.0000 -0.0000 1.0000
   outer loop
     vertex 28.2188 -5.7579 1.8165
     vertex 43.1533 3.3184 1.8165
     vertex 42.9757 3.6259 1.8165
   endloop
 endfacet
 facet normal -0.0000 -0.0000 1.0000
   outer loop
     vertex 28.2188 -5.7579 1.8165
     vertex 28.2422 -5.7714 1.8165
     vertex 43.1533 3.3184 1.8165
   endloop
 endfacet
 facet normal -0.0000 -0.0000 1.0000
   outer loop
     vertex 28.2422 -6.3106 1.8165
     vertex 48.8459 -6.5389 1.8165
     vertex 28.2422 -5.7714 1.8165
   endloop
 endfacet
 facet normal -0.0000 0.0000 1.0000
   outer loop
     vertex 43.1533 3.3184 1.8165
     vertex 28.2422 -5.7714 1.8165
     vertex 48.8459 -6.5389 1.8165
   endloop
 endfacet
 facet normal -0.0000 -0.0000 1.0000
   outer loop
     vertex 28.2422 -6.3106 1.8165
     vertex 28.2425 -7.9704 1.8165
     vertex 48.8459 -6.5389 1.8165
   endloop
 endfacet
 facet normal -0.0000 -0.0000 1.0000
   outer loop
     vertex 37.8861 -25.5445 1.8165
     vertex 48.8527 -6.5508 1.8165
     vertex 28.2425 -7.9704 1.8165
   endloop
 endfacet
 facet normal -0.0000 0.0000 1.0000
   outer loop
     vertex 48.8459 -6.5389 1.8165
     vertex 28.2425 -7.9704 1.8165
     vertex 48.8527 -6.5508 1.8165
   endloop
 endfacet
 facet normal -0.0000 -0.0000 1.0000
   outer loop
     vertex 16.1576 14.7442 1.8165
     vertex 25.9962 32.1136 1.8165
     vertex 11.0972 23.5090 1.8165
   endloop
 endfacet
 facet normal 0.0000 -0.0000 1.0000
   outer loop
     vertex 37.8861 -25.5445 1.8165
     vertex 28.2425 -7.9704 1.8165
     vertex 28.2450 -25.5678 1.8165
   endloop
 endfacet
 facet normal -0.0000 -0.0000 1.0000
   outer loop
     vertex 28.2450 -25.5678 1.8165
     vertex 37.8726 -25.5678 1.8165
     vertex 37.8861 -25.5445 1.8165
   endloop
 endfacet
 facet normal -0.0000 -0.0000 1.0000
   outer loop
     vertex 33.5823 12.0171 20.6455
     vertex 33.1660 11.9761 20.6455
     vertex 33.5823 9.8831 20.6455
   endloop
 endfacet
 facet normal 0.0000 -0.0000 1.0000
   outer loop
     vertex 33.9986 11.9761 20.6455
     vertex 33.5823 12.0171 20.6455
     vertex 33.5823 9.8831 20.6455
   endloop
 endfacet
 facet normal -0.0980 0.9952 -0.0000
   outer loop
     vertex 33.1660 11.9761 1.8165
     vertex 33.1660 11.9761 20.6455
     vertex 33.5823 12.0171 20.6455
   endloop
 endfacet
 facet normal -0.0980 0.9952 -0.0000
   outer loop
     vertex 33.5823 12.0171 20.6455
     vertex 33.5823 12.0171 1.8165
     vertex 33.1660 11.9761 1.8165
   endloop
 endfacet
 facet normal -0.0000 0.0000 1.0000
   outer loop
     vertex 33.1660 11.9761 20.6455
     vertex 32.7657 11.8546 20.6455
     vertex 33.5823 9.8831 20.6455
   endloop
 endfacet
 facet normal 0.0000 -0.0000 1.0000
   outer loop
     vertex 34.3989 11.8546 20.6455
     vertex 33.9986 11.9761 20.6455
     vertex 33.5823 9.8831 20.6455
   endloop
 endfacet
 facet normal 0.0980 0.9952 -0.0000
   outer loop
     vertex 33.5823 12.0171 1.8165
     vertex 33.5823 12.0171 20.6455
     vertex 33.9986 11.9761 20.6455
   endloop
 endfacet
 facet normal 0.0980 0.9952 0.0000
   outer loop
     vertex 33.9986 11.9761 20.6455
     vertex 33.9986 11.9761 1.8165
     vertex 33.5823 12.0171 1.8165
   endloop
 endfacet
 facet normal -0.2903 0.9569 -0.0000
   outer loop
     vertex 32.7657 11.8546 1.8165
     vertex 32.7657 11.8546 20.6455
     vertex 33.1660 11.9761 20.6455
   endloop
 endfacet
 facet normal -0.2903 0.9569 -0.0000
   outer loop
     vertex 33.1660 11.9761 20.6455
     vertex 33.1660 11.9761 1.8165
     vertex 32.7657 11.8546 1.8165
   endloop
 endfacet
 facet normal -0.0000 0.0000 1.0000
   outer loop
     vertex 32.7657 11.8546 20.6455
     vertex 32.3967 11.6574 20.6455
     vertex 33.5823 9.8831 20.6455
   endloop
 endfacet
 facet normal 0.0000 -0.0000 1.0000
   outer loop
     vertex 34.7679 11.6574 20.6455
     vertex 34.3989 11.8546 20.6455
     vertex 33.5823 9.8831 20.6455
   endloop
 endfacet
 facet normal 0.2903 0.9569 -0.0000
   outer loop
     vertex 33.9986 11.9761 1.8165
     vertex 33.9986 11.9761 20.6455
     vertex 34.3989 11.8546 20.6455
   endloop
 endfacet
 facet normal 0.2903 0.9569 0.0000
   outer loop
     vertex 34.3989 11.8546 20.6455
     vertex 34.3989 11.8546 1.8165
     vertex 33.9986 11.9761 1.8165
   endloop
 endfacet
 facet normal -0.4714 0.8819 -0.0000
   outer loop
     vertex 32.3967 11.6574 1.8165
     vertex 32.3967 11.6574 20.6455
     vertex 32.7657 11.8546 20.6455
   endloop
 endfacet
 facet normal -0.4714 0.8819 -0.0000
   outer loop
     vertex 32.7657 11.8546 20.6455
     vertex 32.7657 11.8546 1.8165
     vertex 32.3967 11.6574 1.8165
   endloop
 endfacet
 facet normal -0.0000 0.0000 1.0000
   outer loop
     vertex 32.3967 11.6574 20.6455
     vertex 32.0733 11.3920 20.6455
     vertex 33.5823 9.8831 20.6455
   endloop
 endfacet
 facet normal 0.0000 -0.0000 1.0000
   outer loop
     vertex 35.0913 11.3920 20.6455
     vertex 34.7679 11.6574 20.6455
     vertex 33.5823 9.8831 20.6455
   endloop
 endfacet
 facet normal 0.4714 0.8819 -0.0000
   outer loop
     vertex 34.3989 11.8546 1.8165
     vertex 34.3989 11.8546 20.6455
     vertex 34.7679 11.6574 20.6455
   endloop
 endfacet
 facet normal 0.4714 0.8819 0.0000
   outer loop
     vertex 34.7679 11.6574 20.6455
     vertex 34.7679 11.6574 1.8165
     vertex 34.3989 11.8546 1.8165
   endloop
 endfacet
 facet normal -0.6344 0.7730 -0.0000
   outer loop
     vertex 32.0733 11.3920 1.8165
     vertex 32.0733 11.3920 20.6455
     vertex 32.3967 11.6574 20.6455
   endloop
 endfacet
 facet normal -0.6344 0.7730 -0.0000
   outer loop
     vertex 32.3967 11.6574 20.6455
     vertex 32.3967 11.6574 1.8165
     vertex 32.0733 11.3920 1.8165
   endloop
 endfacet
 facet normal -0.0000 0.0000 1.0000
   outer loop
     vertex 32.0733 11.3920 20.6455
     vertex 31.8079 11.0687 20.6455
     vertex 33.5823 9.8831 20.6455
   endloop
 endfacet
 facet normal 0.0000 -0.0000 1.0000
   outer loop
     vertex 35.3567 11.0687 20.6455
     vertex 35.0913 11.3920 20.6455
     vertex 33.5823 9.8831 20.6455
   endloop
 endfacet
 facet normal 0.6344 0.7730 -0.0000
   outer loop
     vertex 34.7679 11.6574 1.8165
     vertex 34.7679 11.6574 20.6455
     vertex 35.0913 11.3920 20.6455
   endloop
 endfacet
 facet normal 0.6344 0.7730 0.0000
   outer loop
     vertex 35.0913 11.3920 20.6455
     vertex 35.0913 11.3920 1.8165
     vertex 34.7679 11.6574 1.8165
   endloop
 endfacet
 facet normal -0.7730 0.6344 -0.0000
   outer loop
     vertex 31.8079 11.0687 1.8165
     vertex 31.8079 11.0687 20.6455
     vertex 32.0733 11.3920 20.6455
   endloop
 endfacet
 facet normal -0.7730 0.6344 -0.0000
   outer loop
     vertex 32.0733 11.3920 20.6455
     vertex 32.0733 11.3920 1.8165
     vertex 31.8079 11.0687 1.8165
   endloop
 endfacet
 facet normal -0.0000 0.0000 1.0000
   outer loop
     vertex 31.8079 11.0687 20.6455
     vertex 31.6107 10.6997 20.6455
     vertex 33.5823 9.8831 20.6455
   endloop
 endfacet
 facet normal 0.0000 -0.0000 1.0000
   outer loop
     vertex 35.5539 10.6997 20.6455
     vertex 35.3567 11.0687 20.6455
     vertex 33.5823 9.8831 20.6455
   endloop
 endfacet
 facet normal 0.7730 0.6344 -0.0000
   outer loop
     vertex 35.0913 11.3920 1.8165
     vertex 35.0913 11.3920 20.6455
     vertex 35.3567 11.0687 20.6455
   endloop
 endfacet
 facet normal 0.7730 0.6344 0.0000
   outer loop
     vertex 35.3567 11.0687 20.6455
     vertex 35.3567 11.0687 1.8165
     vertex 35.0913 11.3920 1.8165
   endloop
 endfacet
 facet normal -0.8819 0.4714 -0.0000
   outer loop
     vertex 31.6107 10.6997 1.8165
     vertex 31.6107 10.6997 20.6455
     vertex 31.8079 11.0687 20.6455
   endloop
 endfacet
 facet normal -0.8819 0.4714 -0.0000
   outer loop
     vertex 31.8079 11.0687 20.6455
     vertex 31.8079 11.0687 1.8165
     vertex 31.6107 10.6997 1.8165
   endloop
 endfacet
 facet normal -0.0000 0.0000 1.0000
   outer loop
     vertex 31.6107 10.6997 20.6455
     vertex 31.4893 10.2994 20.6455
     vertex 33.5823 9.8831 20.6455
   endloop
 endfacet
 facet normal 0.0000 -0.0000 1.0000
   outer loop
     vertex 35.6753 10.2994 20.6455
     vertex 35.5539 10.6997 20.6455
     vertex 33.5823 9.8831 20.6455
   endloop
 endfacet
 facet normal 0.8819 0.4714 -0.0000
   outer loop
     vertex 35.3567 11.0687 1.8165
     vertex 35.3567 11.0687 20.6455
     vertex 35.5539 10.6997 20.6455
   endloop
 endfacet
 facet normal 0.8819 0.4714 0.0000
   outer loop
     vertex 35.5539 10.6997 20.6455
     vertex 35.5539 10.6997 1.8165
     vertex 35.3567 11.0687 1.8165
   endloop
 endfacet
 facet normal -0.9569 0.2903 -0.0000
   outer loop
     vertex 31.4893 10.2994 1.8165
     vertex 31.4893 10.2994 20.6455
     vertex 31.6107 10.6997 20.6455
   endloop
 endfacet
 facet normal -0.9569 0.2903 -0.0000
   outer loop
     vertex 31.6107 10.6997 20.6455
     vertex 31.6107 10.6997 1.8165
     vertex 31.4893 10.2994 1.8165
   endloop
 endfacet
 facet normal -0.0000 0.0000 1.0000
   outer loop
     vertex 31.4893 10.2994 20.6455
     vertex 31.4483 9.8831 20.6455
     vertex 33.5823 9.8831 20.6455
   endloop
 endfacet
 facet normal -0.0000 -0.0000 1.0000
   outer loop
     vertex 35.7163 9.8831 20.6455
     vertex 35.6753 10.2994 20.6455
     vertex 33.5823 9.8831 20.6455
   endloop
 endfacet
 facet normal 0.9569 0.2903 -0.0000
   outer loop
     vertex 35.5539 10.6997 1.8165
     vertex 35.5539 10.6997 20.6455
     vertex 35.6753 10.2994 20.6455
   endloop
 endfacet
 facet normal 0.9569 0.2903 0.0000
   outer loop
     vertex 35.6753 10.2994 20.6455
     vertex 35.6753 10.2994 1.8165
     vertex 35.5539 10.6997 1.8165
   endloop
 endfacet
 facet normal -0.9952 0.0980 -0.0000
   outer loop
     vertex 31.4483 9.8831 1.8165
     vertex 31.4483 9.8831 20.6455
     vertex 31.4893 10.2994 20.6455
   endloop
 endfacet
 facet normal -0.9952 0.0980 -0.0000
   outer loop
     vertex 31.4893 10.2994 20.6455
     vertex 31.4893 10.2994 1.8165
     vertex 31.4483 9.8831 1.8165
   endloop
 endfacet
 facet normal -0.0000 -0.0000 1.0000
   outer loop
     vertex 31.4483 9.8831 20.6455
     vertex 31.4893 9.4668 20.6455
     vertex 33.5823 9.8831 20.6455
   endloop
 endfacet
 facet normal -0.0000 -0.0000 1.0000
   outer loop
     vertex 35.6753 9.4668 20.6455
     vertex 35.7163 9.8831 20.6455
     vertex 33.5823 9.8831 20.6455
   endloop
 endfacet
 facet normal 0.9952 0.0980 -0.0000
   outer loop
     vertex 35.6753 10.2994 1.8165
     vertex 35.6753 10.2994 20.6455
     vertex 35.7163 9.8831 20.6455
   endloop
 endfacet
 facet normal 0.9952 0.0980 0.0000
   outer loop
     vertex 35.7163 9.8831 20.6455
     vertex 35.7163 9.8831 1.8165
     vertex 35.6753 10.2994 1.8165
   endloop
 endfacet
 facet normal -0.9952 -0.0980 0.0000
   outer loop
     vertex 31.4893 9.4668 1.8165
     vertex 31.4893 9.4668 20.6455
     vertex 31.4483 9.8831 20.6455
   endloop
 endfacet
 facet normal -0.9952 -0.0980 -0.0000
   outer loop
     vertex 31.4483 9.8831 20.6455
     vertex 31.4483 9.8831 1.8165
     vertex 31.4893 9.4668 1.8165
   endloop
 endfacet
 facet normal -0.0000 -0.0000 1.0000
   outer loop
     vertex 31.4893 9.4668 20.6455
     vertex 31.6107 9.0664 20.6455
     vertex 33.5823 9.8831 20.6455
   endloop
 endfacet
 facet normal -0.0000 -0.0000 1.0000
   outer loop
     vertex 35.5539 9.0664 20.6455
     vertex 35.6753 9.4668 20.6455
     vertex 33.5823 9.8831 20.6455
   endloop
 endfacet
 facet normal 0.9952 -0.0980 -0.0000
   outer loop
     vertex 35.7163 9.8831 1.8165
     vertex 35.7163 9.8831 20.6455
     vertex 35.6753 9.4668 20.6455
   endloop
 endfacet
 facet normal 0.9952 -0.0980 -0.0000
   outer loop
     vertex 35.6753 9.4668 20.6455
     vertex 35.6753 9.4668 1.8165
     vertex 35.7163 9.8831 1.8165
   endloop
 endfacet
 facet normal -0.9569 -0.2903 0.0000
   outer loop
     vertex 31.6107 9.0664 1.8165
     vertex 31.6107 9.0664 20.6455
     vertex 31.4893 9.4668 20.6455
   endloop
 endfacet
 facet normal -0.9569 -0.2903 -0.0000
   outer loop
     vertex 31.4893 9.4668 20.6455
     vertex 31.4893 9.4668 1.8165
     vertex 31.6107 9.0664 1.8165
   endloop
 endfacet
 facet normal -0.0000 -0.0000 1.0000
   outer loop
     vertex 31.6107 9.0664 20.6455
     vertex 31.8079 8.6975 20.6455
     vertex 33.5823 9.8831 20.6455
   endloop
 endfacet
 facet normal -0.0000 -0.0000 1.0000
   outer loop
     vertex 35.3567 8.6975 20.6455
     vertex 35.5539 9.0664 20.6455
     vertex 33.5823 9.8831 20.6455
   endloop
 endfacet
 facet normal 0.9569 -0.2903 -0.0000
   outer loop
     vertex 35.6753 9.4668 1.8165
     vertex 35.6753 9.4668 20.6455
     vertex 35.5539 9.0664 20.6455
   endloop
 endfacet
 facet normal 0.9569 -0.2903 -0.0000
   outer loop
     vertex 35.5539 9.0664 20.6455
     vertex 35.5539 9.0664 1.8165
     vertex 35.6753 9.4668 1.8165
   endloop
 endfacet
 facet normal -0.8819 -0.4714 0.0000
   outer loop
     vertex 31.8079 8.6975 1.8165
     vertex 31.8079 8.6975 20.6455
     vertex 31.6107 9.0664 20.6455
   endloop
 endfacet
 facet normal -0.8819 -0.4714 -0.0000
   outer loop
     vertex 31.6107 9.0664 20.6455
     vertex 31.6107 9.0664 1.8165
     vertex 31.8079 8.6975 1.8165
   endloop
 endfacet
 facet normal -0.0000 -0.0000 1.0000
   outer loop
     vertex 31.8079 8.6975 20.6455
     vertex 32.0733 8.3741 20.6455
     vertex 33.5823 9.8831 20.6455
   endloop
 endfacet
 facet normal -0.0000 -0.0000 1.0000
   outer loop
     vertex 35.0913 8.3741 20.6455
     vertex 35.3567 8.6975 20.6455
     vertex 33.5823 9.8831 20.6455
   endloop
 endfacet
 facet normal 0.8819 -0.4714 -0.0000
   outer loop
     vertex 35.5539 9.0664 1.8165
     vertex 35.5539 9.0664 20.6455
     vertex 35.3567 8.6975 20.6455
   endloop
 endfacet
 facet normal 0.8819 -0.4714 -0.0000
   outer loop
     vertex 35.3567 8.6975 20.6455
     vertex 35.3567 8.6975 1.8165
     vertex 35.5539 9.0664 1.8165
   endloop
 endfacet
 facet normal -0.7730 -0.6344 0.0000
   outer loop
     vertex 32.0733 8.3741 1.8165
     vertex 32.0733 8.3741 20.6455
     vertex 31.8079 8.6975 20.6455
   endloop
 endfacet
 facet normal -0.7730 -0.6344 -0.0000
   outer loop
     vertex 31.8079 8.6975 20.6455
     vertex 31.8079 8.6975 1.8165
     vertex 32.0733 8.3741 1.8165
   endloop
 endfacet
 facet normal -0.0000 -0.0000 1.0000
   outer loop
     vertex 32.0733 8.3741 20.6455
     vertex 32.3967 8.1087 20.6455
     vertex 33.5823 9.8831 20.6455
   endloop
 endfacet
 facet normal -0.0000 -0.0000 1.0000
   outer loop
     vertex 34.7679 8.1087 20.6455
     vertex 35.0913 8.3741 20.6455
     vertex 33.5823 9.8831 20.6455
   endloop
 endfacet
 facet normal 0.7730 -0.6344 -0.0000
   outer loop
     vertex 35.3567 8.6975 1.8165
     vertex 35.3567 8.6975 20.6455
     vertex 35.0913 8.3741 20.6455
   endloop
 endfacet
 facet normal 0.7730 -0.6344 -0.0000
   outer loop
     vertex 35.0913 8.3741 20.6455
     vertex 35.0913 8.3741 1.8165
     vertex 35.3567 8.6975 1.8165
   endloop
 endfacet
 facet normal -0.6344 -0.7730 0.0000
   outer loop
     vertex 32.3967 8.1087 1.8165
     vertex 32.3967 8.1087 20.6455
     vertex 32.0733 8.3741 20.6455
   endloop
 endfacet
 facet normal -0.6344 -0.7730 -0.0000
   outer loop
     vertex 32.0733 8.3741 20.6455
     vertex 32.0733 8.3741 1.8165
     vertex 32.3967 8.1087 1.8165
   endloop
 endfacet
 facet normal -0.0000 -0.0000 1.0000
   outer loop
     vertex 32.3967 8.1087 20.6455
     vertex 32.7657 7.9115 20.6455
     vertex 33.5823 9.8831 20.6455
   endloop
 endfacet
 facet normal -0.0000 -0.0000 1.0000
   outer loop
     vertex 34.3989 7.9115 20.6455
     vertex 34.7679 8.1087 20.6455
     vertex 33.5823 9.8831 20.6455
   endloop
 endfacet
 facet normal 0.6344 -0.7730 -0.0000
   outer loop
     vertex 35.0913 8.3741 1.8165
     vertex 35.0913 8.3741 20.6455
     vertex 34.7679 8.1087 20.6455
   endloop
 endfacet
 facet normal 0.6344 -0.7730 -0.0000
   outer loop
     vertex 34.7679 8.1087 20.6455
     vertex 34.7679 8.1087 1.8165
     vertex 35.0913 8.3741 1.8165
   endloop
 endfacet
 facet normal -0.4714 -0.8819 0.0000
   outer loop
     vertex 32.7657 7.9115 1.8165
     vertex 32.7657 7.9115 20.6455
     vertex 32.3967 8.1087 20.6455
   endloop
 endfacet
 facet normal -0.4714 -0.8819 -0.0000
   outer loop
     vertex 32.3967 8.1087 20.6455
     vertex 32.3967 8.1087 1.8165
     vertex 32.7657 7.9115 1.8165
   endloop
 endfacet
 facet normal -0.0000 -0.0000 1.0000
   outer loop
     vertex 32.7657 7.9115 20.6455
     vertex 33.1660 7.7901 20.6455
     vertex 33.5823 9.8831 20.6455
   endloop
 endfacet
 facet normal -0.0000 -0.0000 1.0000
   outer loop
     vertex 33.9986 7.7901 20.6455
     vertex 34.3989 7.9115 20.6455
     vertex 33.5823 9.8831 20.6455
   endloop
 endfacet
 facet normal 0.4714 -0.8819 -0.0000
   outer loop
     vertex 34.7679 8.1087 1.8165
     vertex 34.7679 8.1087 20.6455
     vertex 34.3989 7.9115 20.6455
   endloop
 endfacet
 facet normal 0.4714 -0.8819 -0.0000
   outer loop
     vertex 34.3989 7.9115 20.6455
     vertex 34.3989 7.9115 1.8165
     vertex 34.7679 8.1087 1.8165
   endloop
 endfacet
 facet normal -0.2903 -0.9569 0.0000
   outer loop
     vertex 33.1660 7.7901 1.8165
     vertex 33.1660 7.7901 20.6455
     vertex 32.7657 7.9115 20.6455
   endloop
 endfacet
 facet normal -0.2903 -0.9569 -0.0000
   outer loop
     vertex 32.7657 7.9115 20.6455
     vertex 32.7657 7.9115 1.8165
     vertex 33.1660 7.7901 1.8165
   endloop
 endfacet
 facet normal -0.0000 -0.0000 1.0000
   outer loop
     vertex 33.1660 7.7901 20.6455
     vertex 33.5823 7.7491 20.6455
     vertex 33.5823 9.8831 20.6455
   endloop
 endfacet
 facet normal -0.0000 -0.0000 1.0000
   outer loop
     vertex 33.5823 7.7491 20.6455
     vertex 33.9986 7.7901 20.6455
     vertex 33.5823 9.8831 20.6455
   endloop
 endfacet
 facet normal 0.2903 -0.9569 -0.0000
   outer loop
     vertex 34.3989 7.9115 1.8165
     vertex 34.3989 7.9115 20.6455
     vertex 33.9986 7.7901 20.6455
   endloop
 endfacet
 facet normal 0.2903 -0.9569 -0.0000
   outer loop
     vertex 33.9986 7.7901 20.6455
     vertex 33.9986 7.7901 1.8165
     vertex 34.3989 7.9115 1.8165
   endloop
 endfacet
 facet normal -0.0980 -0.9952 0.0000
   outer loop
     vertex 33.5823 7.7491 1.8165
     vertex 33.5823 7.7491 20.6455
     vertex 33.1660 7.7901 20.6455
   endloop
 endfacet
 facet normal -0.0980 -0.9952 -0.0000
   outer loop
     vertex 33.1660 7.7901 20.6455
     vertex 33.1660 7.7901 1.8165
     vertex 33.5823 7.7491 1.8165
   endloop
 endfacet
 facet normal 0.0980 -0.9952 -0.0000
   outer loop
     vertex 33.9986 7.7901 1.8165
     vertex 33.9986 7.7901 20.6455
     vertex 33.5823 7.7491 20.6455
   endloop
 endfacet
 facet normal 0.0980 -0.9952 -0.0000
   outer loop
     vertex 33.5823 7.7491 20.6455
     vertex 33.5823 7.7491 1.8165
     vertex 33.9986 7.7901 1.8165
   endloop
 endfacet
endsolid
