solid Cheetah3Dfile
 facet normal 0.4999 0.8661 -0.0000
   outer loop
     vertex 6.4805 2.5962 -0.5000
     vertex 6.1291 2.7990 -0.5000
     vertex 6.1291 2.7990 0.5000
   endloop
 endfacet
 facet normal 0.4999 0.8661 -0.0000
   outer loop
     vertex 6.1291 2.7990 0.5000
     vertex 6.4805 2.5962 0.5000
     vertex 6.4805 2.5962 -0.5000
   endloop
 endfacet
 facet normal -0.0000 0.0000 -1.0000
   outer loop
     vertex 6.3269 2.5693 -0.5000
     vertex 6.2395 2.6197 -0.5000
     vertex 6.4805 2.5962 -0.5000
   endloop
 endfacet
 facet normal 0.0000 0.0000 -1.0000
   outer loop
     vertex 6.0790 2.7123 -0.5000
     vertex 5.9815 2.7686 -0.5000
     vertex 6.2395 2.6197 -0.5000
   endloop
 endfacet
 facet normal -0.0000 -0.0000 -1.0000
   outer loop
     vertex 6.1291 2.7990 -0.5000
     vertex 6.4805 2.5962 -0.5000
     vertex 5.9815 2.7686 -0.5000
   endloop
 endfacet
 facet normal 0.0000 0.0000 -1.0000
   outer loop
     vertex 6.2395 2.6197 -0.5000
     vertex 5.9815 2.7686 -0.5000
     vertex 6.4805 2.5962 -0.5000
   endloop
 endfacet
 facet normal 0.4999 0.8661 -0.0000
   outer loop
     vertex 3.2001 4.4895 0.5000
     vertex 6.1291 2.7990 0.5000
     vertex 6.1291 2.7990 -0.5000
   endloop
 endfacet
 facet normal 0.0000 -0.0000 1.0000
   outer loop
     vertex 6.4805 2.5962 0.5000
     vertex 6.1291 2.7990 0.5000
     vertex 6.3287 2.5682 0.5000
   endloop
 endfacet
 facet normal -0.0000 -0.0000 1.0000
   outer loop
     vertex 6.0791 2.7123 0.5000
     vertex 6.2216 2.6300 0.5000
     vertex 6.1291 2.7990 0.5000
   endloop
 endfacet
 facet normal -0.0000 -0.0000 1.0000
   outer loop
     vertex 6.3287 2.5682 0.5000
     vertex 6.1291 2.7990 0.5000
     vertex 6.2216 2.6300 0.5000
   endloop
 endfacet
 facet normal 0.4999 0.8661 -0.0000
   outer loop
     vertex 9.2070 1.0224 -0.5000
     vertex 6.4805 2.5962 -0.5000
     vertex 6.4805 2.5962 0.5000
   endloop
 endfacet
 facet normal -0.0000 0.0000 -1.0000
   outer loop
     vertex 8.9475 1.0224 -0.5000
     vertex 7.7715 1.6756 -0.5000
     vertex 9.2070 1.0224 -0.5000
   endloop
 endfacet
 facet normal 0.0000 -0.0000 -1.0000
   outer loop
     vertex 6.3269 2.5693 -0.5000
     vertex 6.4805 2.5962 -0.5000
     vertex 6.4304 2.5095 -0.5000
   endloop
 endfacet
 facet normal -0.0000 -0.0000 -1.0000
   outer loop
     vertex 9.2070 1.0224 -0.5000
     vertex 7.7715 1.6756 -0.5000
     vertex 6.4805 2.5962 -0.5000
   endloop
 endfacet
 facet normal 0.0000 -0.0000 -1.0000
   outer loop
     vertex 6.4304 2.5095 -0.5000
     vertex 6.4805 2.5962 -0.5000
     vertex 7.7715 1.6756 -0.5000
   endloop
 endfacet
 facet normal -0.0000 -0.0000 -1.0000
   outer loop
     vertex 6.1291 2.7990 -0.5000
     vertex 5.9815 2.7686 -0.5000
     vertex 3.2001 4.4895 -0.5000
   endloop
 endfacet
 facet normal 0.0000 -0.0000 -1.0000
   outer loop
     vertex 3.1026 4.4302 -0.5000
     vertex 3.2001 4.4895 -0.5000
     vertex 4.1659 3.8165 -0.5000
   endloop
 endfacet
 facet normal -0.0000 -0.0000 -1.0000
   outer loop
     vertex 5.9815 2.7686 -0.5000
     vertex 4.1659 3.8165 -0.5000
     vertex 3.2001 4.4895 -0.5000
   endloop
 endfacet
 facet normal 0.4999 0.8661 -0.0000
   outer loop
     vertex 6.1291 2.7990 -0.5000
     vertex 3.2001 4.4895 -0.5000
     vertex 3.2001 4.4895 0.5000
   endloop
 endfacet
 facet normal -0.0000 -0.0000 1.0000
   outer loop
     vertex 3.2001 4.4895 0.5000
     vertex 3.9978 3.9135 0.5000
     vertex 6.1291 2.7990 0.5000
   endloop
 endfacet
 facet normal -0.0000 -0.0000 1.0000
   outer loop
     vertex 6.0791 2.7123 0.5000
     vertex 6.1291 2.7990 0.5000
     vertex 6.0790 2.7123 0.5000
   endloop
 endfacet
 facet normal -0.0000 -0.0000 1.0000
   outer loop
     vertex 3.9978 3.9135 0.5000
     vertex 6.0790 2.7123 0.5000
     vertex 6.1291 2.7990 0.5000
   endloop
 endfacet
 facet normal -0.0000 -0.0000 1.0000
   outer loop
     vertex 6.4304 2.5095 0.5000
     vertex 6.4805 2.5962 0.5000
     vertex 6.3287 2.5682 0.5000
   endloop
 endfacet
 facet normal 0.4999 0.8661 -0.0000
   outer loop
     vertex 6.4805 2.5962 0.5000
     vertex 9.2070 1.0224 0.5000
     vertex 9.2070 1.0224 -0.5000
   endloop
 endfacet
 facet normal -0.0000 0.0000 -1.0000
   outer loop
     vertex 7.2181 -2.4245 -0.5000
     vertex 7.1221 -2.3905 -0.5000
     vertex 9.2070 1.0224 -0.5000
   endloop
 endfacet
 facet normal 0.0000 -0.0000 -1.0000
   outer loop
     vertex 8.9475 1.0224 -0.5000
     vertex 9.2070 1.0224 -0.5000
     vertex 9.0565 0.9618 -0.5000
   endloop
 endfacet
 facet normal -0.0000 -0.0000 -1.0000
   outer loop
     vertex 7.1221 -2.3905 -0.5000
     vertex 8.2196 -0.4886 -0.5000
     vertex 9.2070 1.0224 -0.5000
   endloop
 endfacet
 facet normal 0.0000 -0.0000 -1.0000
   outer loop
     vertex 9.0565 0.9618 -0.5000
     vertex 9.2070 1.0224 -0.5000
     vertex 8.2196 -0.4886 -0.5000
   endloop
 endfacet
 facet normal -0.0000 -0.0000 -1.0000
   outer loop
     vertex 3.1026 4.4302 -0.5000
     vertex 3.1000 4.4317 -0.5000
     vertex 3.1000 4.4906 -0.5000
   endloop
 endfacet
 facet normal -0.0000 -0.0000 -1.0000
   outer loop
     vertex 3.1000 4.4906 -0.5000
     vertex 3.2001 4.4895 -0.5000
     vertex 3.1026 4.4302 -0.5000
   endloop
 endfacet
 facet normal 1.0000 0.0001 0.0000
   outer loop
     vertex 3.2001 4.4895 0.5000
     vertex 3.2001 4.4895 -0.5000
     vertex 3.1991 11.4254 -0.5000
   endloop
 endfacet
 facet normal -0.0000 -0.0000 1.0000
   outer loop
     vertex 3.9978 3.9135 0.5000
     vertex 3.2001 4.4895 0.5000
     vertex 3.2554 4.3420 0.5000
   endloop
 endfacet
 facet normal -0.0000 -0.0000 -1.0000
   outer loop
     vertex 3.2554 4.3420 0.5000
     vertex 3.9864 3.9201 0.5000
     vertex 3.9978 3.9135 0.5000
   endloop
 endfacet
 facet normal -0.0000 0.0000 1.0000
   outer loop
     vertex 6.4805 2.5962 0.5000
     vertex 6.4304 2.5095 0.5000
     vertex 9.2070 1.0224 0.5000
   endloop
 endfacet
 facet normal -0.0000 -0.0000 1.0000
   outer loop
     vertex 7.6081 1.7773 0.5000
     vertex 9.0312 0.9867 0.5000
     vertex 6.4304 2.5095 0.5000
   endloop
 endfacet
 facet normal -0.0000 -0.0000 1.0000
   outer loop
     vertex 6.4304 2.5095 0.5000
     vertex 6.4304 2.5095 0.5000
     vertex 9.2070 1.0224 0.5000
   endloop
 endfacet
 facet normal -0.0000 -0.0000 1.0000
   outer loop
     vertex 9.0312 0.9867 0.5000
     vertex 9.2070 1.0224 0.5000
     vertex 6.4304 2.5095 0.5000
   endloop
 endfacet
 facet normal 0.8661 -0.4998 -0.0000
   outer loop
     vertex 7.2181 -2.4245 -0.5000
     vertex 9.2070 1.0224 -0.5000
     vertex 9.2070 1.0224 0.5000
   endloop
 endfacet
 facet normal 0.0000 0.0000 -1.0000
   outer loop
     vertex 8.9725 -5.7316 -0.5000
     vertex 7.9172 -3.9513 -0.5000
     vertex 9.2070 -5.8695 -0.5000
   endloop
 endfacet
 facet normal 0.0000 -0.0000 -1.0000
   outer loop
     vertex 7.0975 -2.4331 -0.5000
     vertex 7.1221 -2.3905 -0.5000
     vertex 7.9172 -3.9513 -0.5000
   endloop
 endfacet
 facet normal -0.0000 -0.0000 -1.0000
   outer loop
     vertex 7.2181 -2.4245 -0.5000
     vertex 9.2070 -5.8695 -0.5000
     vertex 7.1221 -2.3905 -0.5000
   endloop
 endfacet
 facet normal 0.0000 0.0000 -1.0000
   outer loop
     vertex 7.9172 -3.9513 -0.5000
     vertex 7.1221 -2.3905 -0.5000
     vertex 9.2070 -5.8695 -0.5000
   endloop
 endfacet
 facet normal -0.0000 -0.0000 -1.0000
   outer loop
     vertex 3.2001 4.4895 -0.5000
     vertex 3.1000 4.4906 -0.5000
     vertex 3.1000 4.6719 -0.5000
   endloop
 endfacet
 facet normal 1.0000 0.0001 -0.0000
   outer loop
     vertex 3.1991 11.4254 -0.5000
     vertex 3.1991 11.4254 0.5000
     vertex 3.2001 4.4895 0.5000
   endloop
 endfacet
 facet normal 0.0000 0.0000 -1.0000
   outer loop
     vertex 3.1000 4.6719 -0.5000
     vertex 3.0997 6.8433 -0.5000
     vertex 3.2001 4.4895 -0.5000
   endloop
 endfacet
 facet normal -0.0000 0.0000 -1.0000
   outer loop
     vertex 0.9987 11.3110 -0.5000
     vertex -0.5482 11.3202 -0.5000
     vertex 3.0990 11.3253 -0.5000
   endloop
 endfacet
 facet normal 0.0000 -0.0000 -1.0000
   outer loop
     vertex -0.6059 11.4254 -0.5000
     vertex 3.1991 11.4254 -0.5000
     vertex -0.5482 11.3202 -0.5000
   endloop
 endfacet
 facet normal -0.0000 -0.0000 -1.0000
   outer loop
     vertex 3.2001 4.4895 -0.5000
     vertex 3.0997 6.8433 -0.5000
     vertex 3.1991 11.4254 -0.5000
   endloop
 endfacet
 facet normal -0.0000 -0.0000 -1.0000
   outer loop
     vertex -0.5482 11.3202 -0.5000
     vertex 3.1991 11.4254 -0.5000
     vertex 3.0990 11.3253 -0.5000
   endloop
 endfacet
 facet normal -0.0000 0.0000 -1.0000
   outer loop
     vertex 3.0997 6.8433 -0.5000
     vertex 3.0990 11.3253 -0.5000
     vertex 3.1991 11.4254 -0.5000
   endloop
 endfacet
 facet normal -0.0000 0.0000 1.0000
   outer loop
     vertex 3.2001 4.4895 0.5000
     vertex 3.1026 4.4302 0.5000
     vertex 3.2554 4.3420 0.5000
   endloop
 endfacet
 facet normal -0.0000 -0.0000 1.0000
   outer loop
     vertex 9.0312 0.9867 0.5000
     vertex 9.0613 0.9700 0.5000
     vertex 9.2070 1.0224 0.5000
   endloop
 endfacet
 facet normal -0.0000 0.0000 1.0000
   outer loop
     vertex 8.3264 -0.3036 0.5000
     vertex 7.1504 -2.3415 0.5000
     vertex 9.0613 0.9700 0.5000
   endloop
 endfacet
 facet normal -0.0000 -0.0000 1.0000
   outer loop
     vertex 7.2181 -2.4245 0.5000
     vertex 9.2070 1.0224 0.5000
     vertex 7.1504 -2.3415 0.5000
   endloop
 endfacet
 facet normal -0.0000 0.0000 1.0000
   outer loop
     vertex 9.0613 0.9700 0.5000
     vertex 7.1504 -2.3415 0.5000
     vertex 9.2070 1.0224 0.5000
   endloop
 endfacet
 facet normal 0.8661 -0.4998 -0.0000
   outer loop
     vertex 9.2070 1.0224 0.5000
     vertex 7.2181 -2.4245 0.5000
     vertex 7.2181 -2.4245 -0.5000
   endloop
 endfacet
 facet normal 0.8660 0.5000 -0.0000
   outer loop
     vertex 9.2070 -5.8695 -0.5000
     vertex 7.2181 -2.4245 -0.5000
     vertex 7.2181 -2.4245 0.5000
   endloop
 endfacet
 facet normal -0.0000 -0.0000 -1.0000
   outer loop
     vertex 3.2513 -9.0765 -0.5000
     vertex 3.3501 -9.1354 -0.5000
     vertex 3.3511 -9.2515 -0.5000
   endloop
 endfacet
 facet normal 0.0000 -0.0000 -1.0000
   outer loop
     vertex 6.3052 -7.4158 -0.5000
     vertex 9.0422 -5.8491 -0.5000
     vertex 3.3501 -9.1354 -0.5000
   endloop
 endfacet
 facet normal -0.0000 -0.0000 -1.0000
   outer loop
     vertex 8.9725 -5.7316 -0.5000
     vertex 9.2070 -5.8695 -0.5000
     vertex 9.0422 -5.8491 -0.5000
   endloop
 endfacet
 facet normal -0.0000 0.0000 -1.0000
   outer loop
     vertex 3.3511 -9.2515 -0.5000
     vertex 3.3501 -9.1354 -0.5000
     vertex 9.2070 -5.8695 -0.5000
   endloop
 endfacet
 facet normal -0.0000 -0.0000 -1.0000
   outer loop
     vertex 9.0422 -5.8491 -0.5000
     vertex 9.2070 -5.8695 -0.5000
     vertex 3.3501 -9.1354 -0.5000
   endloop
 endfacet
 facet normal -0.0000 1.0000 -0.0000
   outer loop
     vertex -0.6059 11.4254 0.5000
     vertex 3.1991 11.4254 0.5000
     vertex 3.1991 11.4254 -0.5000
   endloop
 endfacet
 facet normal -0.0000 -0.0000 1.0000
   outer loop
     vertex -0.5468 11.3177 0.5000
     vertex 0.8084 11.3097 0.5000
     vertex -0.6059 11.4254 0.5000
   endloop
 endfacet
 facet normal -0.0000 -0.0000 1.0000
   outer loop
     vertex 3.0997 6.4373 0.5000
     vertex 3.1000 4.6719 0.5000
     vertex 3.0990 11.3253 0.5000
   endloop
 endfacet
 facet normal -0.0000 -0.0000 1.0000
   outer loop
     vertex 3.2001 4.4895 0.5000
     vertex 3.1991 11.4254 0.5000
     vertex 3.1000 4.6719 0.5000
   endloop
 endfacet
 facet normal -0.0000 -0.0000 1.0000
   outer loop
     vertex -0.6059 11.4254 0.5000
     vertex 0.8084 11.3097 0.5000
     vertex 3.1991 11.4254 0.5000
   endloop
 endfacet
 facet normal -0.0000 -0.0000 1.0000
   outer loop
     vertex 3.1000 4.6719 0.5000
     vertex 3.1991 11.4254 0.5000
     vertex 3.0990 11.3253 0.5000
   endloop
 endfacet
 facet normal -0.0000 -0.0000 1.0000
   outer loop
     vertex 0.8084 11.3097 0.5000
     vertex 3.0990 11.3253 0.5000
     vertex 3.1991 11.4254 0.5000
   endloop
 endfacet
 facet normal 0.0000 -0.0000 -1.0000
   outer loop
     vertex -4.5609 4.5755 -0.5000
     vertex -0.6059 11.4254 -0.5000
     vertex -4.4402 4.5742 -0.5000
   endloop
 endfacet
 facet normal -0.0000 -0.0000 -1.0000
   outer loop
     vertex -0.5482 11.3202 -0.5000
     vertex -0.5511 11.3202 -0.5000
     vertex -0.6059 11.4254 -0.5000
   endloop
 endfacet
 facet normal -0.0000 0.0000 -1.0000
   outer loop
     vertex -2.7096 7.5538 -0.5000
     vertex -4.4402 4.5742 -0.5000
     vertex -0.5511 11.3202 -0.5000
   endloop
 endfacet
 facet normal -0.0000 -0.0000 -1.0000
   outer loop
     vertex -0.6059 11.4254 -0.5000
     vertex -0.5511 11.3202 -0.5000
     vertex -4.4402 4.5742 -0.5000
   endloop
 endfacet
 facet normal -0.0000 1.0000 -0.0000
   outer loop
     vertex 3.1991 11.4254 -0.5000
     vertex -0.6059 11.4254 -0.5000
     vertex -0.6059 11.4254 0.5000
   endloop
 endfacet
 facet normal -0.0000 -0.0000 1.0000
   outer loop
     vertex 3.1026 4.4302 0.5000
     vertex 3.2001 4.4895 0.5000
     vertex 3.1000 4.4906 0.5000
   endloop
 endfacet
 facet normal -0.0000 -0.0000 1.0000
   outer loop
     vertex 3.1000 4.4906 0.5000
     vertex 3.1000 4.4317 0.5000
     vertex 3.1026 4.4302 0.5000
   endloop
 endfacet
 facet normal 0.0000 -0.0000 1.0000
   outer loop
     vertex 7.2181 -2.4245 0.5000
     vertex 7.1504 -2.3415 0.5000
     vertex 7.0959 -2.4359 0.5000
   endloop
 endfacet
 facet normal -0.0000 -0.0000 1.0000
   outer loop
     vertex 7.0959 -2.4359 0.5000
     vertex 7.1092 -2.4604 0.5000
     vertex 7.2181 -2.4245 0.5000
   endloop
 endfacet
 facet normal 0.8660 0.5000 -0.0000
   outer loop
     vertex 7.2181 -2.4245 0.5000
     vertex 9.2070 -5.8695 0.5000
     vertex 9.2070 -5.8695 -0.5000
   endloop
 endfacet
 facet normal 0.5001 -0.8660 -0.0000
   outer loop
     vertex 3.3511 -9.2515 -0.5000
     vertex 9.2070 -5.8695 -0.5000
     vertex 9.2070 -5.8695 0.5000
   endloop
 endfacet
 facet normal -0.0000 -0.0000 -1.0000
   outer loop
     vertex -2.7645 -5.6082 -0.5000
     vertex 0.1163 -7.2083 -0.5000
     vertex -2.7689 -5.7206 -0.5000
   endloop
 endfacet
 facet normal -0.0000 -0.0000 -1.0000
   outer loop
     vertex 3.2513 -9.0765 -0.5000
     vertex 3.3511 -9.2515 -0.5000
     vertex 0.1163 -7.2083 -0.5000
   endloop
 endfacet
 facet normal -0.0000 -0.0000 -1.0000
   outer loop
     vertex -2.7689 -5.7206 -0.5000
     vertex 0.1163 -7.2083 -0.5000
     vertex 3.3511 -9.2515 -0.5000
   endloop
 endfacet
 facet normal -0.0000 -0.0000 1.0000
   outer loop
     vertex -4.5609 4.5755 0.5000
     vertex -4.4374 4.5741 0.5000
     vertex -0.6059 11.4254 0.5000
   endloop
 endfacet
 facet normal 0.0000 -0.0000 1.0000
   outer loop
     vertex -2.9194 7.1877 0.5000
     vertex -0.5525 11.3178 0.5000
     vertex -4.4374 4.5741 0.5000
   endloop
 endfacet
 facet normal -0.0000 -0.0000 1.0000
   outer loop
     vertex -0.5468 11.3177 0.5000
     vertex -0.6059 11.4254 0.5000
     vertex -0.5525 11.3178 0.5000
   endloop
 endfacet
 facet normal -0.0000 -0.0000 1.0000
   outer loop
     vertex -4.4374 4.5741 0.5000
     vertex -0.5525 11.3178 0.5000
     vertex -0.6059 11.4254 0.5000
   endloop
 endfacet
 facet normal -0.0000 -0.0000 1.0000
   outer loop
     vertex 3.1000 4.4906 0.5000
     vertex 3.2001 4.4895 0.5000
     vertex 3.1000 4.6719 0.5000
   endloop
 endfacet
 facet normal -0.0000 0.0000 -1.0000
   outer loop
     vertex -2.5079 1.0205 -0.5000
     vertex -4.5609 4.5755 -0.5000
     vertex -2.4026 1.0845 -0.5000
   endloop
 endfacet
 facet normal -0.0000 -0.0000 -1.0000
   outer loop
     vertex -4.4402 4.5742 -0.5000
     vertex -4.4424 4.5704 -0.5000
     vertex -4.5609 4.5755 -0.5000
   endloop
 endfacet
 facet normal -0.0000 -0.0000 -1.0000
   outer loop
     vertex -2.5441 1.4595 -0.5000
     vertex -2.4026 1.0845 -0.5000
     vertex -4.4424 4.5704 -0.5000
   endloop
 endfacet
 facet normal -0.0000 -0.0000 -1.0000
   outer loop
     vertex -4.5609 4.5755 -0.5000
     vertex -4.4424 4.5704 -0.5000
     vertex -2.4026 1.0845 -0.5000
   endloop
 endfacet
 facet normal -0.8660 0.5000 -0.0000
   outer loop
     vertex -0.6059 11.4254 -0.5000
     vertex -4.5609 4.5755 -0.5000
     vertex -4.5609 4.5755 0.5000
   endloop
 endfacet
 facet normal -0.8660 0.5000 -0.0000
   outer loop
     vertex -4.5609 4.5755 0.5000
     vertex -0.6059 11.4254 0.5000
     vertex -0.6059 11.4254 -0.5000
   endloop
 endfacet
 facet normal -0.0000 -0.0000 1.0000
   outer loop
     vertex 7.1524 -2.5404 0.5000
     vertex 7.2181 -2.4245 0.5000
     vertex 7.1092 -2.4604 0.5000
   endloop
 endfacet
 facet normal -0.0000 0.0000 1.0000
   outer loop
     vertex 7.2181 -2.4245 0.5000
     vertex 7.1524 -2.5404 0.5000
     vertex 9.2070 -5.8695 0.5000
   endloop
 endfacet
 facet normal -0.0000 -0.0000 1.0000
   outer loop
     vertex 7.7776 -3.6984 0.5000
     vertex 9.0499 -5.8447 0.5000
     vertex 7.1524 -2.5404 0.5000
   endloop
 endfacet
 facet normal -0.0000 0.0000 1.0000
   outer loop
     vertex 6.6060 -7.2436 0.5000
     vertex 3.4473 -9.0816 0.5000
     vertex 9.0499 -5.8447 0.5000
   endloop
 endfacet
 facet normal -0.0000 -0.0000 1.0000
   outer loop
     vertex 3.3511 -9.2515 0.5000
     vertex 9.2070 -5.8695 0.5000
     vertex 3.4473 -9.0816 0.5000
   endloop
 endfacet
 facet normal -0.0000 -0.0000 1.0000
   outer loop
     vertex 7.1524 -2.5404 0.5000
     vertex 9.0499 -5.8447 0.5000
     vertex 9.2070 -5.8695 0.5000
   endloop
 endfacet
 facet normal -0.0000 -0.0000 1.0000
   outer loop
     vertex 3.4473 -9.0816 0.5000
     vertex 9.2070 -5.8695 0.5000
     vertex 9.0499 -5.8447 0.5000
   endloop
 endfacet
 facet normal 0.5001 -0.8660 -0.0000
   outer loop
     vertex 9.2070 -5.8695 0.5000
     vertex 3.3511 -9.2515 0.5000
     vertex 3.3511 -9.2515 -0.5000
   endloop
 endfacet
 facet normal -0.4997 -0.8662 -0.0000
   outer loop
     vertex -2.7689 -5.7206 -0.5000
     vertex 3.3511 -9.2515 -0.5000
     vertex 3.3511 -9.2515 0.5000
   endloop
 endfacet
 facet normal 0.0000 -0.0000 -1.0000
   outer loop
     vertex -4.7463 -8.9477 -0.5000
     vertex -3.4068 -6.6260 -0.5000
     vertex -4.8199 -9.2755 -0.5000
   endloop
 endfacet
 facet normal -0.0000 -0.0000 -1.0000
   outer loop
     vertex -2.8062 -5.5850 -0.5000
     vertex -2.7645 -5.6082 -0.5000
     vertex -3.4068 -6.6260 -0.5000
   endloop
 endfacet
 facet normal -0.0000 0.0000 -1.0000
   outer loop
     vertex -2.7689 -5.7206 -0.5000
     vertex -4.8199 -9.2755 -0.5000
     vertex -2.7645 -5.6082 -0.5000
   endloop
 endfacet
 facet normal 0.0000 -0.0000 -1.0000
   outer loop
     vertex -3.4068 -6.6260 -0.5000
     vertex -2.7645 -5.6082 -0.5000
     vertex -4.8199 -9.2755 -0.5000
   endloop
 endfacet
 facet normal -0.0000 -0.0000 1.0000
   outer loop
     vertex -2.5079 1.0205 0.5000
     vertex -2.3453 1.1193 0.5000
     vertex -4.5609 4.5755 0.5000
   endloop
 endfacet
 facet normal 0.0000 0.0000 1.0000
   outer loop
     vertex -2.3594 1.1568 0.5000
     vertex -4.4410 4.5680 0.5000
     vertex -2.3453 1.1193 0.5000
   endloop
 endfacet
 facet normal 0.0000 -0.0000 1.0000
   outer loop
     vertex -4.4374 4.5741 0.5000
     vertex -4.5609 4.5755 0.5000
     vertex -4.4410 4.5680 0.5000
   endloop
 endfacet
 facet normal -0.0000 -0.0000 1.0000
   outer loop
     vertex -2.3453 1.1193 0.5000
     vertex -4.4410 4.5680 0.5000
     vertex -4.5609 4.5755 0.5000
   endloop
 endfacet
 facet normal -0.0000 -0.0000 -1.0000
   outer loop
     vertex -2.3878 1.0452 -0.5000
     vertex -2.5079 1.0205 -0.5000
     vertex -2.4026 1.0845 -0.5000
   endloop
 endfacet
 facet normal -0.8660 -0.5001 -0.0000
   outer loop
     vertex -4.5609 4.5755 -0.5000
     vertex -2.5079 1.0205 -0.5000
     vertex -2.5079 1.0205 0.5000
   endloop
 endfacet
 facet normal -0.8660 -0.5001 -0.0000
   outer loop
     vertex -2.5079 1.0205 0.5000
     vertex -4.5609 4.5755 0.5000
     vertex -4.5609 4.5755 -0.5000
   endloop
 endfacet
 facet normal -0.0000 -0.0000 1.0000
   outer loop
     vertex 3.4473 -9.0816 0.5000
     vertex 3.3525 -9.1368 0.5000
     vertex 3.3511 -9.2515 0.5000
   endloop
 endfacet
 facet normal 0.0000 0.0000 1.0000
   outer loop
     vertex 0.4922 -7.4323 0.5000
     vertex -2.6563 -5.6834 0.5000
     vertex 3.3525 -9.1368 0.5000
   endloop
 endfacet
 facet normal -0.0000 -0.0000 1.0000
   outer loop
     vertex -2.7689 -5.7206 0.5000
     vertex 3.3511 -9.2515 0.5000
     vertex -2.6563 -5.6834 0.5000
   endloop
 endfacet
 facet normal 0.0000 -0.0000 1.0000
   outer loop
     vertex 3.3525 -9.1368 0.5000
     vertex -2.6563 -5.6834 0.5000
     vertex 3.3511 -9.2515 0.5000
   endloop
 endfacet
 facet normal -0.4997 -0.8662 -0.0000
   outer loop
     vertex 3.3511 -9.2515 0.5000
     vertex -2.7689 -5.7206 0.5000
     vertex -2.7689 -5.7206 -0.5000
   endloop
 endfacet
 facet normal 0.8662 -0.4997 -0.0000
   outer loop
     vertex -4.8199 -9.2755 -0.5000
     vertex -2.7689 -5.7206 -0.5000
     vertex -2.7689 -5.7206 0.5000
   endloop
 endfacet
 facet normal -0.0000 -0.0000 -1.0000
   outer loop
     vertex -4.8199 -9.2755 -0.5000
     vertex -4.8785 -9.1712 -0.5000
     vertex -4.8753 -9.1713 -0.5000
   endloop
 endfacet
 facet normal 0.0000 -0.0000 -1.0000
   outer loop
     vertex -4.8753 -9.1713 -0.5000
     vertex -4.7463 -8.9477 -0.5000
     vertex -4.8199 -9.2755 -0.5000
   endloop
 endfacet
 facet normal -0.0000 0.0000 1.0000
   outer loop
     vertex -2.3453 1.1193 0.5000
     vertex -2.5079 1.0205 0.5000
     vertex -2.3340 1.0053 0.5000
   endloop
 endfacet
 facet normal -0.0000 -0.0000 1.0000
   outer loop
     vertex -2.3340 1.0053 0.5000
     vertex -2.3080 1.0204 0.5000
     vertex -2.3453 1.1193 0.5000
   endloop
 endfacet
 facet normal -0.0000 -0.0000 -1.0000
   outer loop
     vertex -2.3865 1.0418 -0.5000
     vertex -2.5079 1.0205 -0.5000
     vertex -2.3878 1.0452 -0.5000
   endloop
 endfacet
 facet normal -0.5000 0.8660 -0.0000
   outer loop
     vertex -8.6239 -2.5105 0.5000
     vertex -2.5079 1.0205 0.5000
     vertex -2.5079 1.0205 -0.5000
   endloop
 endfacet
 facet normal -0.0000 0.0000 1.0000
   outer loop
     vertex -2.6926 -5.6633 0.5000
     vertex -2.7689 -5.7206 0.5000
     vertex -2.6563 -5.6834 0.5000
   endloop
 endfacet
 facet normal 0.8662 -0.4997 -0.0000
   outer loop
     vertex -2.7689 -5.7206 0.5000
     vertex -4.8199 -9.2755 0.5000
     vertex -4.8199 -9.2755 -0.5000
   endloop
 endfacet
 facet normal -0.0000 -0.0000 -1.0000
   outer loop
     vertex -8.6239 -2.5105 -0.5000
     vertex -8.5236 -2.6887 -0.5000
     vertex -8.6259 -9.2735 -0.5000
   endloop
 endfacet
 facet normal -0.0000 -0.0000 -1.0000
   outer loop
     vertex -8.5127 -5.9870 -0.5000
     vertex -8.5257 -9.1507 -0.5000
     vertex -8.5236 -2.6887 -0.5000
   endloop
 endfacet
 facet normal -0.0000 -0.0000 -1.0000
   outer loop
     vertex -6.5223 -9.1155 -0.5000
     vertex -4.8785 -9.1712 -0.5000
     vertex -8.5257 -9.1507 -0.5000
   endloop
 endfacet
 facet normal -0.0000 -0.0000 -1.0000
   outer loop
     vertex -4.8199 -9.2755 -0.5000
     vertex -8.6259 -9.2735 -0.5000
     vertex -4.8785 -9.1712 -0.5000
   endloop
 endfacet
 facet normal -0.0000 -0.0000 -1.0000
   outer loop
     vertex -8.5236 -2.6887 -0.5000
     vertex -8.5257 -9.1507 -0.5000
     vertex -8.6259 -9.2735 -0.5000
   endloop
 endfacet
 facet normal -0.0000 -0.0000 -1.0000
   outer loop
     vertex -4.8785 -9.1712 -0.5000
     vertex -8.6259 -9.2735 -0.5000
     vertex -8.5257 -9.1507 -0.5000
   endloop
 endfacet
 facet normal 0.0000 -0.0000 1.0000
   outer loop
     vertex -2.3340 1.0053 0.5000
     vertex -2.5079 1.0205 0.5000
     vertex -2.5125 0.9023 0.5000
   endloop
 endfacet
 facet normal -0.0000 -0.0000 -1.0000
   outer loop
     vertex -2.3785 1.0205 -0.5000
     vertex -2.5079 1.0205 -0.5000
     vertex -2.3865 1.0418 -0.5000
   endloop
 endfacet
 facet normal -0.5000 0.8660 -0.0000
   outer loop
     vertex -2.5079 1.0205 -0.5000
     vertex -8.6239 -2.5105 -0.5000
     vertex -8.6239 -2.5105 0.5000
   endloop
 endfacet
 facet normal -0.0000 -0.0000 1.0000
   outer loop
     vertex -8.5212 -2.5668 0.5000
     vertex -3.7281 0.2005 0.5000
     vertex -8.6239 -2.5105 0.5000
   endloop
 endfacet
 facet normal 0.0000 -0.0000 1.0000
   outer loop
     vertex -2.5125 0.9023 0.5000
     vertex -2.5079 1.0205 0.5000
     vertex -3.7281 0.2005 0.5000
   endloop
 endfacet
 facet normal -0.0000 -0.0000 1.0000
   outer loop
     vertex -8.6239 -2.5105 0.5000
     vertex -3.7281 0.2005 0.5000
     vertex -2.5079 1.0205 0.5000
   endloop
 endfacet
 facet normal -0.0000 0.0000 1.0000
   outer loop
     vertex -2.6961 -5.6614 0.5000
     vertex -2.7689 -5.7206 0.5000
     vertex -2.6926 -5.6633 0.5000
   endloop
 endfacet
 facet normal -0.0000 0.0000 1.0000
   outer loop
     vertex -2.8567 -5.6725 0.5000
     vertex -3.2499 -6.3541 0.5000
     vertex -2.7689 -5.7206 0.5000
   endloop
 endfacet
 facet normal -0.0000 -0.0000 1.0000
   outer loop
     vertex -4.8800 -9.1685 0.5000
     vertex -4.8199 -9.2755 0.5000
     vertex -4.8738 -9.1687 0.5000
   endloop
 endfacet
 facet normal -0.0000 -0.0000 1.0000
   outer loop
     vertex -2.7689 -5.7206 0.5000
     vertex -3.2499 -6.3541 0.5000
     vertex -4.8199 -9.2755 0.5000
   endloop
 endfacet
 facet normal -0.0000 -0.0000 1.0000
   outer loop
     vertex -4.8738 -9.1687 0.5000
     vertex -4.8199 -9.2755 0.5000
     vertex -3.2499 -6.3541 0.5000
   endloop
 endfacet
 facet normal -0.0005 -1.0000 -0.0000
   outer loop
     vertex -8.6259 -9.2735 -0.5000
     vertex -4.8199 -9.2755 -0.5000
     vertex -4.8199 -9.2755 0.5000
   endloop
 endfacet
 facet normal -1.0000 0.0003 -0.0000
   outer loop
     vertex -8.6239 -2.5105 -0.5000
     vertex -8.6259 -9.2735 -0.5000
     vertex -8.6259 -9.2735 0.5000
   endloop
 endfacet
 facet normal -0.0000 -0.0000 -1.0000
   outer loop
     vertex -2.5079 1.0205 -0.5000
     vertex -2.5377 0.8877 -0.5000
     vertex -8.6239 -2.5105 -0.5000
   endloop
 endfacet
 facet normal -0.0000 0.0000 -1.0000
   outer loop
     vertex -3.0148 0.6123 -0.5000
     vertex -8.5240 -2.5684 -0.5000
     vertex -2.5377 0.8877 -0.5000
   endloop
 endfacet
 facet normal -0.0000 -0.0000 -1.0000
   outer loop
     vertex -8.5236 -2.6887 -0.5000
     vertex -8.6239 -2.5105 -0.5000
     vertex -8.5240 -2.5684 -0.5000
   endloop
 endfacet
 facet normal -0.0000 -0.0000 -1.0000
   outer loop
     vertex -2.5377 0.8877 -0.5000
     vertex -8.5240 -2.5684 -0.5000
     vertex -8.6239 -2.5105 -0.5000
   endloop
 endfacet
 facet normal -0.0000 0.0000 -1.0000
   outer loop
     vertex -2.3838 0.9766 -0.5000
     vertex -2.5079 1.0205 -0.5000
     vertex -2.3785 1.0205 -0.5000
   endloop
 endfacet
 facet normal -0.0000 -0.0000 -1.0000
   outer loop
     vertex -2.3785 1.0205 -0.5000
     vertex -2.3658 0.9870 -0.5000
     vertex -2.3838 0.9766 -0.5000
   endloop
 endfacet
 facet normal -1.0000 0.0003 -0.0000
   outer loop
     vertex -8.6259 -9.2735 0.5000
     vertex -8.6239 -2.5105 0.5000
     vertex -8.6239 -2.5105 -0.5000
   endloop
 endfacet
 facet normal -0.0000 -0.0000 1.0000
   outer loop
     vertex -8.6239 -2.5105 0.5000
     vertex -8.5262 -2.6842 0.5000
     vertex -8.5266 -2.5699 0.5000
   endloop
 endfacet
 facet normal -0.0000 -0.0000 1.0000
   outer loop
     vertex -8.5266 -2.5699 0.5000
     vertex -8.5212 -2.5668 0.5000
     vertex -8.6239 -2.5105 0.5000
   endloop
 endfacet
 facet normal -0.0000 -0.0000 1.0000
   outer loop
     vertex -2.7689 -5.7206 0.5000
     vertex -2.6961 -5.6614 0.5000
     vertex -2.7651 -5.6230 0.5000
   endloop
 endfacet
 facet normal -0.0000 -0.0000 1.0000
   outer loop
     vertex -2.8567 -5.6725 0.5000
     vertex -2.7689 -5.7206 0.5000
     vertex -2.7651 -5.6230 0.5000
   endloop
 endfacet
 facet normal 0.0000 -0.0000 1.0000
   outer loop
     vertex -2.7651 -5.6230 0.5000
     vertex -2.8128 -5.5965 0.5000
     vertex -2.8567 -5.6725 0.5000
   endloop
 endfacet
 facet normal -0.0000 -0.0000 1.0000
   outer loop
     vertex -4.8199 -9.2755 0.5000
     vertex -4.8800 -9.1685 0.5000
     vertex -8.6259 -9.2735 0.5000
   endloop
 endfacet
 facet normal -0.0000 0.0000 1.0000
   outer loop
     vertex -6.3200 -9.1198 0.5000
     vertex -8.5257 -9.1585 0.5000
     vertex -4.8800 -9.1685 0.5000
   endloop
 endfacet
 facet normal 0.0000 -0.0000 1.0000
   outer loop
     vertex -8.5141 -6.3337 0.5000
     vertex -8.5262 -2.6842 0.5000
     vertex -8.5257 -9.1585 0.5000
   endloop
 endfacet
 facet normal -0.0000 0.0000 1.0000
   outer loop
     vertex -8.6239 -2.5105 0.5000
     vertex -8.6259 -9.2735 0.5000
     vertex -8.5262 -2.6842 0.5000
   endloop
 endfacet
 facet normal 0.0000 -0.0000 1.0000
   outer loop
     vertex -4.8800 -9.1685 0.5000
     vertex -8.5257 -9.1585 0.5000
     vertex -8.6259 -9.2735 0.5000
   endloop
 endfacet
 facet normal -0.0000 0.0000 1.0000
   outer loop
     vertex -8.5262 -2.6842 0.5000
     vertex -8.6259 -9.2735 0.5000
     vertex -8.5257 -9.1585 0.5000
   endloop
 endfacet
 facet normal -0.0005 -1.0000 -0.0000
   outer loop
     vertex -4.8199 -9.2755 0.5000
     vertex -8.6259 -9.2735 0.5000
     vertex -8.6259 -9.2735 -0.5000
   endloop
 endfacet
 facet normal -0.0000 -0.0000 -1.0000
   outer loop
     vertex -2.5377 0.8877 -0.5000
     vertex -2.5079 1.0205 -0.5000
     vertex -2.5125 0.9023 -0.5000
   endloop
 endfacet
 facet normal -0.0000 0.0000 -1.0000
   outer loop
     vertex -2.4087 0.9622 -0.5000
     vertex -2.5079 1.0205 -0.5000
     vertex -2.3838 0.9766 -0.5000
   endloop
 endfacet
 facet normal -0.0000 -0.0000 -1.0000
   outer loop
     vertex -2.5125 0.9023 -0.5000
     vertex -2.5079 1.0205 -0.5000
     vertex -2.4583 0.9336 -0.5000
   endloop
 endfacet
 facet normal -0.0000 0.0000 -1.0000
   outer loop
     vertex -2.4583 0.9336 -0.5000
     vertex -2.5079 1.0205 -0.5000
     vertex -2.4087 0.9622 -0.5000
   endloop
 endfacet
 facet normal -0.4999 -0.8661 -0.0000
   outer loop
     vertex 6.2395 2.6197 -0.5000
     vertex 6.2216 2.6300 0.5000
     vertex 6.0790 2.7123 -0.5000
   endloop
 endfacet
 facet normal -0.4997 -0.8662 -0.0000
   outer loop
     vertex 6.0790 2.7123 0.5000
     vertex 6.0790 2.7123 -0.5000
     vertex 6.0791 2.7123 0.5000
   endloop
 endfacet
 facet normal -0.4999 -0.8661 0.0000
   outer loop
     vertex 6.2216 2.6300 0.5000
     vertex 6.0791 2.7123 0.5000
     vertex 6.0790 2.7123 -0.5000
   endloop
 endfacet
 facet normal -0.4999 -0.8661 -0.0000
   outer loop
     vertex 3.9864 3.9201 0.5000
     vertex 4.1659 3.8165 -0.5000
     vertex 3.9978 3.9135 0.5000
   endloop
 endfacet
 facet normal -0.4999 -0.8661 0.0000
   outer loop
     vertex 6.0790 2.7123 -0.5000
     vertex 6.0790 2.7123 0.5000
     vertex 5.9815 2.7686 -0.5000
   endloop
 endfacet
 facet normal -0.4999 -0.8661 -0.0000
   outer loop
     vertex 3.9978 3.9135 0.5000
     vertex 4.1659 3.8165 -0.5000
     vertex 6.0790 2.7123 0.5000
   endloop
 endfacet
 facet normal -0.4999 -0.8661 0.0000
   outer loop
     vertex 5.9815 2.7686 -0.5000
     vertex 6.0790 2.7123 0.5000
     vertex 4.1659 3.8165 -0.5000
   endloop
 endfacet
 facet normal -0.4999 -0.8661 -0.0000
   outer loop
     vertex 6.2216 2.6300 0.5000
     vertex 6.2395 2.6197 -0.5000
     vertex 6.3287 2.5682 0.5000
   endloop
 endfacet
 facet normal -0.4999 -0.8661 0.0000
   outer loop
     vertex 6.4304 2.5095 -0.5000
     vertex 6.4304 2.5095 0.5000
     vertex 6.3269 2.5693 -0.5000
   endloop
 endfacet
 facet normal -0.4999 -0.8661 -0.0000
   outer loop
     vertex 6.3287 2.5682 0.5000
     vertex 6.2395 2.6197 -0.5000
     vertex 6.4304 2.5095 0.5000
   endloop
 endfacet
 facet normal -0.4999 -0.8661 0.0000
   outer loop
     vertex 6.3269 2.5693 -0.5000
     vertex 6.4304 2.5095 0.5000
     vertex 6.2395 2.6197 -0.5000
   endloop
 endfacet
 facet normal -0.4985 -0.8669 -0.0004
   outer loop
     vertex 6.4304 2.5095 0.5000
     vertex 6.2395 2.6197 -0.5000
     vertex 6.4304 2.5095 0.5000
   endloop
 endfacet
 facet normal -0.4999 -0.8661 0.0000
   outer loop
     vertex 4.1659 3.8165 -0.5000
     vertex 3.9864 3.9201 0.5000
     vertex 3.1026 4.4302 -0.5000
   endloop
 endfacet
 facet normal -0.4999 -0.8661 -0.0000
   outer loop
     vertex 3.1000 4.4317 0.5000
     vertex 3.1000 4.4317 -0.5000
     vertex 3.1026 4.4302 0.5000
   endloop
 endfacet
 facet normal -0.4999 -0.8661 0.0000
   outer loop
     vertex 3.1026 4.4302 -0.5000
     vertex 3.9864 3.9201 0.5000
     vertex 3.1000 4.4317 -0.5000
   endloop
 endfacet
 facet normal -0.4999 -0.8661 -0.0000
   outer loop
     vertex 3.1026 4.4302 0.5000
     vertex 3.1000 4.4317 -0.5000
     vertex 3.2554 4.3420 0.5000
   endloop
 endfacet
 facet normal -0.4999 -0.8661 -0.0000
   outer loop
     vertex 3.9864 3.9201 0.5000
     vertex 3.2554 4.3420 0.5000
     vertex 3.1000 4.4317 -0.5000
   endloop
 endfacet
 facet normal -0.5280 -0.8492 0.0000
   outer loop
     vertex 6.4304 2.5095 -0.5000
     vertex 7.7715 1.6756 -0.5000
     vertex 7.6081 1.7773 0.5000
   endloop
 endfacet
 facet normal -0.5280 -0.8492 -0.0000
   outer loop
     vertex 7.6081 1.7773 0.5000
     vertex 6.4304 2.5095 0.5000
     vertex 6.4304 2.5095 -0.5000
   endloop
 endfacet
 facet normal -1.0000 -0.0001 -0.0000
   outer loop
     vertex 3.0997 6.4373 0.5000
     vertex 3.0997 6.8433 -0.5000
     vertex 3.1000 4.6719 0.5000
   endloop
 endfacet
 facet normal -1.0000 -0.0001 0.0000
   outer loop
     vertex 3.1000 4.4317 -0.5000
     vertex 3.1000 4.4317 0.5000
     vertex 3.1000 4.4906 -0.5000
   endloop
 endfacet
 facet normal -1.0000 -0.0001 0.0000
   outer loop
     vertex 3.1000 4.6719 0.5000
     vertex 3.0997 6.8433 -0.5000
     vertex 3.1000 4.4906 0.5000
   endloop
 endfacet
 facet normal -1.0000 -0.0001 0.0000
   outer loop
     vertex 3.1000 4.4906 -0.5000
     vertex 3.1000 4.4317 0.5000
     vertex 3.1000 4.6719 -0.5000
   endloop
 endfacet
 facet normal -1.0000 -0.0001 -0.0000
   outer loop
     vertex 3.1000 4.4906 0.5000
     vertex 3.0997 6.8433 -0.5000
     vertex 3.1000 4.4317 0.5000
   endloop
 endfacet
 facet normal -1.0000 -0.0001 -0.0000
   outer loop
     vertex 3.1000 4.6719 -0.5000
     vertex 3.1000 4.4317 0.5000
     vertex 3.0997 6.8433 -0.5000
   endloop
 endfacet
 facet normal -0.4856 -0.8741 0.0095
   outer loop
     vertex 7.6081 1.7773 0.5000
     vertex 7.7715 1.6756 -0.5000
     vertex 9.0312 0.9867 0.5000
   endloop
 endfacet
 facet normal -0.4856 -0.8741 0.0095
   outer loop
     vertex 9.0565 0.9618 -0.5000
     vertex 9.0613 0.9700 0.5000
     vertex 8.9475 1.0224 -0.5000
   endloop
 endfacet
 facet normal -0.4856 -0.8741 0.0095
   outer loop
     vertex 9.0312 0.9867 0.5000
     vertex 7.7715 1.6756 -0.5000
     vertex 9.0613 0.9700 0.5000
   endloop
 endfacet
 facet normal -0.4856 -0.8741 0.0095
   outer loop
     vertex 8.9475 1.0224 -0.5000
     vertex 9.0613 0.9700 0.5000
     vertex 7.7715 1.6756 -0.5000
   endloop
 endfacet
 facet normal -1.0000 -0.0001 -0.0000
   outer loop
     vertex 3.0997 6.8433 -0.5000
     vertex 3.0997 6.4373 0.5000
     vertex 3.0990 11.3253 0.5000
   endloop
 endfacet
 facet normal -1.0000 -0.0001 -0.0000
   outer loop
     vertex 3.0990 11.3253 0.5000
     vertex 3.0990 11.3253 -0.5000
     vertex 3.0997 6.8433 -0.5000
   endloop
 endfacet
 facet normal -0.8661 0.4998 -0.0000
   outer loop
     vertex 9.0565 0.9618 -0.5000
     vertex 8.2196 -0.4886 -0.5000
     vertex 8.3264 -0.3036 0.5000
   endloop
 endfacet
 facet normal -0.8661 0.4998 0.0000
   outer loop
     vertex 8.3264 -0.3036 0.5000
     vertex 9.0613 0.9700 0.5000
     vertex 9.0565 0.9618 -0.5000
   endloop
 endfacet
 facet normal 0.0068 -1.0000 0.0000
   outer loop
     vertex 3.0990 11.3253 0.5000
     vertex 0.8084 11.3097 0.5000
     vertex 0.9987 11.3110 -0.5000
   endloop
 endfacet
 facet normal 0.0068 -1.0000 -0.0000
   outer loop
     vertex 0.9987 11.3110 -0.5000
     vertex 3.0990 11.3253 -0.5000
     vertex 3.0990 11.3253 0.5000
   endloop
 endfacet
 facet normal -0.8661 0.4998 -0.0000
   outer loop
     vertex 8.3264 -0.3036 0.5000
     vertex 8.2196 -0.4886 -0.5000
     vertex 7.1504 -2.3415 0.5000
   endloop
 endfacet
 facet normal -0.8661 0.4998 0.0000
   outer loop
     vertex 7.0975 -2.4331 -0.5000
     vertex 7.0959 -2.4359 0.5000
     vertex 7.1221 -2.3905 -0.5000
   endloop
 endfacet
 facet normal -0.8661 0.4998 0.0000
   outer loop
     vertex 7.1504 -2.3415 0.5000
     vertex 8.2196 -0.4886 -0.5000
     vertex 7.0959 -2.4359 0.5000
   endloop
 endfacet
 facet normal -0.8661 0.4998 0.0000
   outer loop
     vertex 7.1221 -2.3905 -0.5000
     vertex 7.0959 -2.4359 0.5000
     vertex 8.2196 -0.4886 -0.5000
   endloop
 endfacet
 facet normal -0.0060 -1.0000 -0.0024
   outer loop
     vertex 0.9987 11.3110 -0.5000
     vertex 0.8084 11.3097 0.5000
     vertex -0.5482 11.3202 -0.5000
   endloop
 endfacet
 facet normal -0.0061 -1.0000 -0.0024
   outer loop
     vertex -0.5525 11.3178 0.5000
     vertex -0.5511 11.3202 -0.5000
     vertex -0.5468 11.3177 0.5000
   endloop
 endfacet
 facet normal -0.0059 -1.0000 -0.0025
   outer loop
     vertex -0.5482 11.3202 -0.5000
     vertex 0.8084 11.3097 0.5000
     vertex -0.5511 11.3202 -0.5000
   endloop
 endfacet
 facet normal -0.0060 -1.0000 -0.0024
   outer loop
     vertex -0.5468 11.3177 0.5000
     vertex -0.5511 11.3202 -0.5000
     vertex 0.8084 11.3097 0.5000
   endloop
 endfacet
 facet normal -0.8799 -0.4751 -0.0027
   outer loop
     vertex 7.9172 -3.9513 -0.5000
     vertex 7.7776 -3.6984 0.5000
     vertex 7.0975 -2.4331 -0.5000
   endloop
 endfacet
 facet normal -0.8799 -0.4751 -0.0027
   outer loop
     vertex 7.0959 -2.4359 0.5000
     vertex 7.0975 -2.4331 -0.5000
     vertex 7.1092 -2.4604 0.5000
   endloop
 endfacet
 facet normal -0.8799 -0.4751 -0.0027
   outer loop
     vertex 7.7776 -3.6984 0.5000
     vertex 7.1524 -2.5404 0.5000
     vertex 7.0975 -2.4331 -0.5000
   endloop
 endfacet
 facet normal -0.8799 -0.4751 -0.0027
   outer loop
     vertex 7.1092 -2.4604 0.5000
     vertex 7.0975 -2.4331 -0.5000
     vertex 7.1524 -2.5404 0.5000
   endloop
 endfacet
 facet normal 0.8676 -0.4972 0.0000
   outer loop
     vertex -0.5525 11.3178 0.5000
     vertex -2.9194 7.1877 0.5000
     vertex -2.7096 7.5538 -0.5000
   endloop
 endfacet
 facet normal 0.8676 -0.4972 0.0000
   outer loop
     vertex -2.7096 7.5538 -0.5000
     vertex -0.5511 11.3202 -0.5000
     vertex -0.5525 11.3178 0.5000
   endloop
 endfacet
 facet normal -0.8602 -0.5099 0.0088
   outer loop
     vertex 7.7776 -3.6984 0.5000
     vertex 7.9172 -3.9513 -0.5000
     vertex 9.0499 -5.8447 0.5000
   endloop
 endfacet
 facet normal -0.8602 -0.5099 0.0088
   outer loop
     vertex 9.0422 -5.8491 -0.5000
     vertex 9.0499 -5.8447 0.5000
     vertex 8.9725 -5.7316 -0.5000
   endloop
 endfacet
 facet normal -0.8602 -0.5099 0.0088
   outer loop
     vertex 7.9172 -3.9513 -0.5000
     vertex 8.9725 -5.7316 -0.5000
     vertex 9.0499 -5.8447 0.5000
   endloop
 endfacet
 facet normal 0.8647 -0.5022 -0.0024
   outer loop
     vertex -2.7096 7.5538 -0.5000
     vertex -2.9194 7.1877 0.5000
     vertex -4.4402 4.5742 -0.5000
   endloop
 endfacet
 facet normal 0.8647 -0.5023 -0.0024
   outer loop
     vertex -4.4410 4.5680 0.5000
     vertex -4.4424 4.5704 -0.5000
     vertex -4.4374 4.5741 0.5000
   endloop
 endfacet
 facet normal 0.8648 -0.5022 -0.0027
   outer loop
     vertex -4.4402 4.5742 -0.5000
     vertex -2.9194 7.1877 0.5000
     vertex -4.4424 4.5704 -0.5000
   endloop
 endfacet
 facet normal 0.8647 -0.5022 -0.0024
   outer loop
     vertex -4.4374 4.5741 0.5000
     vertex -4.4424 4.5704 -0.5000
     vertex -2.9194 7.1877 0.5000
   endloop
 endfacet
 facet normal -0.4968 0.8679 -0.0000
   outer loop
     vertex 9.0422 -5.8491 -0.5000
     vertex 6.3052 -7.4158 -0.5000
     vertex 6.6060 -7.2436 0.5000
   endloop
 endfacet
 facet normal -0.4968 0.8679 -0.0000
   outer loop
     vertex 6.6060 -7.2436 0.5000
     vertex 9.0499 -5.8447 0.5000
     vertex 9.0422 -5.8491 -0.5000
   endloop
 endfacet
 facet normal 0.8536 0.5209 0.0001
   outer loop
     vertex -4.4410 4.5680 0.5000
     vertex -2.3594 1.1568 0.5000
     vertex -2.5441 1.4595 -0.5000
   endloop
 endfacet
 facet normal 0.8536 0.5209 0.0001
   outer loop
     vertex -2.5441 1.4595 -0.5000
     vertex -4.4424 4.5704 -0.5000
     vertex -4.4410 4.5680 0.5000
   endloop
 endfacet
 facet normal -0.5029 0.8643 0.0024
   outer loop
     vertex 6.6060 -7.2436 0.5000
     vertex 6.3052 -7.4158 -0.5000
     vertex 3.4473 -9.0816 0.5000
   endloop
 endfacet
 facet normal -0.5029 0.8643 0.0024
   outer loop
     vertex 3.3501 -9.1354 -0.5000
     vertex 3.3525 -9.1368 0.5000
     vertex 6.3052 -7.4158 -0.5000
   endloop
 endfacet
 facet normal -0.5029 0.8643 0.0025
   outer loop
     vertex 3.4473 -9.0816 0.5000
     vertex 6.3052 -7.4158 -0.5000
     vertex 3.3525 -9.1368 0.5000
   endloop
 endfacet
 facet normal 0.9336 0.3522 -0.0658
   outer loop
     vertex -2.5441 1.4595 -0.5000
     vertex -2.3594 1.1568 0.5000
     vertex -2.4026 1.0845 -0.5000
   endloop
 endfacet
 facet normal 0.9336 0.3522 -0.0658
   outer loop
     vertex -2.3080 1.0204 0.5000
     vertex -2.3658 0.9870 -0.5000
     vertex -2.3453 1.1193 0.5000
   endloop
 endfacet
 facet normal 0.9336 0.3522 -0.0658
   outer loop
     vertex -2.4026 1.0845 -0.5000
     vertex -2.3594 1.1568 0.5000
     vertex -2.3878 1.0452 -0.5000
   endloop
 endfacet
 facet normal 0.9336 0.3522 -0.0658
   outer loop
     vertex -2.3453 1.1193 0.5000
     vertex -2.3658 0.9870 -0.5000
     vertex -2.3594 1.1568 0.5000
   endloop
 endfacet
 facet normal 0.9336 0.3522 -0.0658
   outer loop
     vertex -2.3878 1.0452 -0.5000
     vertex -2.3594 1.1568 0.5000
     vertex -2.3865 1.0418 -0.5000
   endloop
 endfacet
 facet normal 0.9336 0.3522 -0.0658
   outer loop
     vertex -2.3658 0.9870 -0.5000
     vertex -2.3785 1.0205 -0.5000
     vertex -2.3594 1.1568 0.5000
   endloop
 endfacet
 facet normal 0.9336 0.3522 -0.0658
   outer loop
     vertex -2.3865 1.0418 -0.5000
     vertex -2.3594 1.1568 0.5000
     vertex -2.3785 1.0205 -0.5000
   endloop
 endfacet
 facet normal 0.5119 0.8590 -0.0000
   outer loop
     vertex 0.1163 -7.2083 -0.5000
     vertex 0.4922 -7.4323 0.5000
     vertex 3.2513 -9.0765 -0.5000
   endloop
 endfacet
 facet normal 0.5119 0.8590 -0.0000
   outer loop
     vertex 3.3525 -9.1368 0.5000
     vertex 3.3501 -9.1354 -0.5000
     vertex 0.4922 -7.4323 0.5000
   endloop
 endfacet
 facet normal 0.5119 0.8590 -0.0000
   outer loop
     vertex 3.2513 -9.0765 -0.5000
     vertex 0.4922 -7.4323 0.5000
     vertex 3.3501 -9.1354 -0.5000
   endloop
 endfacet
 facet normal 0.5000 -0.8660 -0.0000
   outer loop
     vertex -3.7281 0.2005 0.5000
     vertex -3.0148 0.6123 -0.5000
     vertex -2.5125 0.9023 0.5000
   endloop
 endfacet
 facet normal 0.5000 -0.8660 -0.0000
   outer loop
     vertex -2.3658 0.9870 -0.5000
     vertex -2.3080 1.0204 0.5000
     vertex -2.3838 0.9766 -0.5000
   endloop
 endfacet
 facet normal 0.5000 -0.8660 0.0000
   outer loop
     vertex -2.5125 0.9023 0.5000
     vertex -3.0148 0.6123 -0.5000
     vertex -2.3340 1.0053 0.5000
   endloop
 endfacet
 facet normal 0.5000 -0.8660 0.0000
   outer loop
     vertex -2.3838 0.9766 -0.5000
     vertex -2.3080 1.0204 0.5000
     vertex -2.4087 0.9622 -0.5000
   endloop
 endfacet
 facet normal 0.5000 -0.8660 -0.0000
   outer loop
     vertex -2.3340 1.0053 0.5000
     vertex -3.0148 0.6123 -0.5000
     vertex -2.3080 1.0204 0.5000
   endloop
 endfacet
 facet normal 0.5000 -0.8660 -0.0000
   outer loop
     vertex -2.4087 0.9622 -0.5000
     vertex -2.3080 1.0204 0.5000
     vertex -2.4583 0.9336 -0.5000
   endloop
 endfacet
 facet normal 0.5000 -0.8660 0.0000
   outer loop
     vertex -3.0148 0.6123 -0.5000
     vertex -2.5377 0.8877 -0.5000
     vertex -2.3080 1.0204 0.5000
   endloop
 endfacet
 facet normal 0.5000 -0.8660 0.0000
   outer loop
     vertex -2.4583 0.9336 -0.5000
     vertex -2.3080 1.0204 0.5000
     vertex -2.5125 0.9023 -0.5000
   endloop
 endfacet
 facet normal 0.5000 -0.8660 0.0000
   outer loop
     vertex -2.5377 0.8877 -0.5000
     vertex -2.5125 0.9023 -0.5000
     vertex -2.3080 1.0204 0.5000
   endloop
 endfacet
 facet normal 0.4855 0.8741 0.0133
   outer loop
     vertex 0.4922 -7.4323 0.5000
     vertex 0.1163 -7.2083 -0.5000
     vertex -2.6563 -5.6834 0.5000
   endloop
 endfacet
 facet normal 0.4855 0.8741 0.0133
   outer loop
     vertex -2.8062 -5.5850 -0.5000
     vertex -2.8128 -5.5965 0.5000
     vertex -2.7645 -5.6082 -0.5000
   endloop
 endfacet
 facet normal 0.4855 0.8741 0.0133
   outer loop
     vertex -2.6563 -5.6834 0.5000
     vertex 0.1163 -7.2083 -0.5000
     vertex -2.6926 -5.6633 0.5000
   endloop
 endfacet
 facet normal 0.4855 0.8741 0.0133
   outer loop
     vertex -2.7645 -5.6082 -0.5000
     vertex -2.8128 -5.5965 0.5000
     vertex 0.1163 -7.2083 -0.5000
   endloop
 endfacet
 facet normal 0.4855 0.8741 0.0134
   outer loop
     vertex -2.6926 -5.6633 0.5000
     vertex 0.1163 -7.2083 -0.5000
     vertex -2.6961 -5.6614 0.5000
   endloop
 endfacet
 facet normal 0.4855 0.8741 0.0133
   outer loop
     vertex -2.8128 -5.5965 0.5000
     vertex -2.7651 -5.6230 0.5000
     vertex 0.1163 -7.2083 -0.5000
   endloop
 endfacet
 facet normal 0.4855 0.8741 0.0133
   outer loop
     vertex -2.6961 -5.6614 0.5000
     vertex 0.1163 -7.2083 -0.5000
     vertex -2.7651 -5.6230 0.5000
   endloop
 endfacet
 facet normal 0.5000 -0.8660 -0.0000
   outer loop
     vertex -3.0148 0.6123 -0.5000
     vertex -3.7281 0.2005 0.5000
     vertex -8.5240 -2.5684 -0.5000
   endloop
 endfacet
 facet normal 0.5000 -0.8660 0.0000
   outer loop
     vertex -8.5266 -2.5699 0.5000
     vertex -8.5240 -2.5684 -0.5000
     vertex -8.5212 -2.5668 0.5000
   endloop
 endfacet
 facet normal 0.5000 -0.8660 -0.0000
   outer loop
     vertex -3.7281 0.2005 0.5000
     vertex -8.5212 -2.5668 0.5000
     vertex -8.5240 -2.5684 -0.5000
   endloop
 endfacet
 facet normal -0.8662 0.4997 -0.0000
   outer loop
     vertex -3.4068 -6.6260 -0.5000
     vertex -3.2499 -6.3541 0.5000
     vertex -2.8062 -5.5850 -0.5000
   endloop
 endfacet
 facet normal -0.8662 0.4997 -0.0000
   outer loop
     vertex -2.8128 -5.5965 0.5000
     vertex -2.8062 -5.5850 -0.5000
     vertex -2.8567 -5.6725 0.5000
   endloop
 endfacet
 facet normal -0.8662 0.4997 -0.0000
   outer loop
     vertex -3.2499 -6.3541 0.5000
     vertex -2.8567 -5.6725 0.5000
     vertex -2.8062 -5.5850 -0.5000
   endloop
 endfacet
 facet normal 1.0000 0.0033 0.0026
   outer loop
     vertex -8.5141 -6.3337 0.5000
     vertex -8.5127 -5.9870 -0.5000
     vertex -8.5262 -2.6842 0.5000
   endloop
 endfacet
 facet normal 1.0000 0.0033 0.0026
   outer loop
     vertex -8.5240 -2.5684 -0.5000
     vertex -8.5266 -2.5699 0.5000
     vertex -8.5236 -2.6887 -0.5000
   endloop
 endfacet
 facet normal 1.0000 0.0033 0.0025
   outer loop
     vertex -8.5262 -2.6842 0.5000
     vertex -8.5127 -5.9870 -0.5000
     vertex -8.5266 -2.5699 0.5000
   endloop
 endfacet
 facet normal 1.0000 0.0033 0.0026
   outer loop
     vertex -8.5236 -2.6887 -0.5000
     vertex -8.5266 -2.5699 0.5000
     vertex -8.5127 -5.9870 -0.5000
   endloop
 endfacet
 facet normal -0.8662 0.4997 0.0000
   outer loop
     vertex -3.2499 -6.3541 0.5000
     vertex -3.4068 -6.6260 -0.5000
     vertex -4.8738 -9.1687 0.5000
   endloop
 endfacet
 facet normal -0.8662 0.4997 0.0000
   outer loop
     vertex -4.8753 -9.1713 -0.5000
     vertex -4.8738 -9.1687 0.5000
     vertex -4.7463 -8.9477 -0.5000
   endloop
 endfacet
 facet normal -0.8662 0.4997 -0.0000
   outer loop
     vertex -3.4068 -6.6260 -0.5000
     vertex -4.7463 -8.9477 -0.5000
     vertex -4.8738 -9.1687 0.5000
   endloop
 endfacet
 facet normal 1.0000 -0.0041 -0.0000
   outer loop
     vertex -8.5257 -9.1507 -0.5000
     vertex -8.5127 -5.9870 -0.5000
     vertex -8.5141 -6.3337 0.5000
   endloop
 endfacet
 facet normal 1.0000 -0.0041 -0.0000
   outer loop
     vertex -8.5141 -6.3337 0.5000
     vertex -8.5257 -9.1585 0.5000
     vertex -8.5257 -9.1507 -0.5000
   endloop
 endfacet
 facet normal 0.0338 0.9994 -0.0026
   outer loop
     vertex -6.5223 -9.1155 -0.5000
     vertex -6.3200 -9.1198 0.5000
     vertex -4.8785 -9.1712 -0.5000
   endloop
 endfacet
 facet normal 0.0338 0.9994 -0.0026
   outer loop
     vertex -4.8738 -9.1687 0.5000
     vertex -4.8753 -9.1713 -0.5000
     vertex -4.8800 -9.1685 0.5000
   endloop
 endfacet
 facet normal 0.0338 0.9994 -0.0026
   outer loop
     vertex -4.8785 -9.1712 -0.5000
     vertex -6.3200 -9.1198 0.5000
     vertex -4.8753 -9.1713 -0.5000
   endloop
 endfacet
 facet normal 0.0338 0.9994 -0.0026
   outer loop
     vertex -4.8800 -9.1685 0.5000
     vertex -4.8753 -9.1713 -0.5000
     vertex -6.3200 -9.1198 0.5000
   endloop
 endfacet
 facet normal -0.0176 0.9998 0.0078
   outer loop
     vertex -8.5257 -9.1585 0.5000
     vertex -6.3200 -9.1198 0.5000
     vertex -6.5223 -9.1155 -0.5000
   endloop
 endfacet
 facet normal -0.0176 0.9998 0.0078
   outer loop
     vertex -6.5223 -9.1155 -0.5000
     vertex -8.5257 -9.1507 -0.5000
     vertex -8.5257 -9.1585 0.5000
   endloop
 endfacet
endsolid
