solid Cheetah3Dfile
 facet normal 0.4999 0.8661 -0.0000
   outer loop
     vertex 6.4805 2.5962 0.0000
     vertex 6.1291 2.7990 0.0000
     vertex 6.1291 2.7990 1.0000
   endloop
 endfacet
 facet normal 0.4999 0.8661 -0.0000
   outer loop
     vertex 6.1291 2.7990 1.0000
     vertex 6.4805 2.5962 1.0000
     vertex 6.4805 2.5962 0.0000
   endloop
 endfacet
 facet normal -0.5000 0.8660 -0.0000
   outer loop
     vertex -2.5079 1.0205 0.0000
     vertex -8.6239 -2.5105 0.0000
     vertex -8.6239 -2.5105 1.0000
   endloop
 endfacet
 facet normal -0.5000 0.8660 -0.0000
   outer loop
     vertex -8.6239 -2.5105 1.0000
     vertex -2.5079 1.0205 1.0000
     vertex -2.5079 1.0205 0.0000
   endloop
 endfacet
 facet normal 0.8662 -0.4997 -0.0000
   outer loop
     vertex -4.8199 -9.2755 0.0000
     vertex -2.7689 -5.7206 0.0000
     vertex -2.7689 -5.7206 1.0000
   endloop
 endfacet
 facet normal 0.8662 -0.4997 -0.0000
   outer loop
     vertex -2.7689 -5.7206 1.0000
     vertex -4.8199 -9.2755 1.0000
     vertex -4.8199 -9.2755 0.0000
   endloop
 endfacet
 facet normal -0.8660 -0.5001 -0.0000
   outer loop
     vertex -4.5609 4.5755 0.0000
     vertex -2.5079 1.0205 0.0000
     vertex -2.5079 1.0205 1.0000
   endloop
 endfacet
 facet normal -0.8660 -0.5001 -0.0000
   outer loop
     vertex -2.5079 1.0205 1.0000
     vertex -4.5609 4.5755 1.0000
     vertex -4.5609 4.5755 0.0000
   endloop
 endfacet
 facet normal -1.0000 0.0003 -0.0000
   outer loop
     vertex -8.6239 -2.5105 0.0000
     vertex -8.6259 -9.2735 0.0000
     vertex -8.6259 -9.2735 1.0000
   endloop
 endfacet
 facet normal -1.0000 0.0003 -0.0000
   outer loop
     vertex -8.6259 -9.2735 1.0000
     vertex -8.6239 -2.5105 1.0000
     vertex -8.6239 -2.5105 0.0000
   endloop
 endfacet
 facet normal -0.0005 -1.0000 -0.0000
   outer loop
     vertex -8.6259 -9.2735 0.0000
     vertex -4.8199 -9.2755 0.0000
     vertex -4.8199 -9.2755 1.0000
   endloop
 endfacet
 facet normal -0.0005 -1.0000 -0.0000
   outer loop
     vertex -4.8199 -9.2755 1.0000
     vertex -8.6259 -9.2735 1.0000
     vertex -8.6259 -9.2735 0.0000
   endloop
 endfacet
 facet normal -0.8660 0.5000 -0.0000
   outer loop
     vertex -0.6059 11.4254 0.0000
     vertex -4.5609 4.5755 0.0000
     vertex -4.5609 4.5755 1.0000
   endloop
 endfacet
 facet normal -0.8660 0.5000 -0.0000
   outer loop
     vertex -4.5609 4.5755 1.0000
     vertex -0.6059 11.4254 1.0000
     vertex -0.6059 11.4254 0.0000
   endloop
 endfacet
 facet normal -0.0000 1.0000 -0.0000
   outer loop
     vertex 3.1991 11.4254 0.0000
     vertex -0.6059 11.4254 0.0000
     vertex -0.6059 11.4254 1.0000
   endloop
 endfacet
 facet normal -0.0000 1.0000 -0.0000
   outer loop
     vertex -0.6059 11.4254 1.0000
     vertex 3.1991 11.4254 1.0000
     vertex 3.1991 11.4254 0.0000
   endloop
 endfacet
 facet normal 1.0000 0.0001 -0.0000
   outer loop
     vertex 3.1991 11.4254 0.0000
     vertex 3.1991 11.4254 1.0000
     vertex 3.2001 4.4895 1.0000
   endloop
 endfacet
 facet normal 1.0000 0.0001 0.0000
   outer loop
     vertex 3.2001 4.4895 1.0000
     vertex 3.2001 4.4895 0.0000
     vertex 3.1991 11.4254 0.0000
   endloop
 endfacet
 facet normal -0.4997 -0.8662 -0.0000
   outer loop
     vertex -2.7689 -5.7206 0.0000
     vertex 3.3511 -9.2515 0.0000
     vertex 3.3511 -9.2515 1.0000
   endloop
 endfacet
 facet normal -0.4997 -0.8662 -0.0000
   outer loop
     vertex 3.3511 -9.2515 1.0000
     vertex -2.7689 -5.7206 1.0000
     vertex -2.7689 -5.7206 0.0000
   endloop
 endfacet
 facet normal 0.8661 -0.4998 -0.0000
   outer loop
     vertex 7.2181 -2.4245 0.0000
     vertex 9.2071 1.0224 0.0000
     vertex 9.2071 1.0224 1.0000
   endloop
 endfacet
 facet normal 0.8661 -0.4998 -0.0000
   outer loop
     vertex 9.2071 1.0224 1.0000
     vertex 7.2181 -2.4245 1.0000
     vertex 7.2181 -2.4245 0.0000
   endloop
 endfacet
 facet normal 0.4999 0.8661 -0.0000
   outer loop
     vertex 6.1291 2.7990 0.0000
     vertex 3.2001 4.4895 0.0000
     vertex 3.2001 4.4895 1.0000
   endloop
 endfacet
 facet normal 0.4999 0.8661 -0.0000
   outer loop
     vertex 3.2001 4.4895 1.0000
     vertex 6.1291 2.7990 1.0000
     vertex 6.1291 2.7990 0.0000
   endloop
 endfacet
 facet normal 0.5001 -0.8660 -0.0000
   outer loop
     vertex 3.3511 -9.2515 0.0000
     vertex 9.2071 -5.8695 0.0000
     vertex 9.2071 -5.8695 1.0000
   endloop
 endfacet
 facet normal 0.5001 -0.8660 -0.0000
   outer loop
     vertex 9.2071 -5.8695 1.0000
     vertex 3.3511 -9.2515 1.0000
     vertex 3.3511 -9.2515 0.0000
   endloop
 endfacet
 facet normal 0.8660 0.5000 -0.0000
   outer loop
     vertex 9.2071 -5.8695 0.0000
     vertex 7.2181 -2.4245 0.0000
     vertex 7.2181 -2.4245 1.0000
   endloop
 endfacet
 facet normal 0.8660 0.5000 -0.0000
   outer loop
     vertex 7.2181 -2.4245 1.0000
     vertex 9.2071 -5.8695 1.0000
     vertex 9.2071 -5.8695 0.0000
   endloop
 endfacet
 facet normal 0.4999 0.8661 -0.0000
   outer loop
     vertex 9.2071 1.0224 0.0000
     vertex 6.4805 2.5962 0.0000
     vertex 6.4805 2.5962 1.0000
   endloop
 endfacet
 facet normal 0.4999 0.8661 -0.0000
   outer loop
     vertex 6.4805 2.5962 1.0000
     vertex 9.2071 1.0224 1.0000
     vertex 9.2071 1.0224 0.0000
   endloop
 endfacet
 facet normal -0.0000 -0.0000 1.0000
   outer loop
     vertex 5.9563 2.4995 1.0000
     vertex 6.4805 2.5962 1.0000
     vertex 6.1291 2.7990 1.0000
   endloop
 endfacet
 facet normal -0.0000 -0.0000 1.0000
   outer loop
     vertex 5.0888 0.1860 1.0000
     vertex 6.4805 2.5962 1.0000
     vertex 5.9563 2.4995 1.0000
   endloop
 endfacet
 facet normal -0.0000 -0.0000 1.0000
   outer loop
     vertex 4.7376 0.3889 1.0000
     vertex 5.0888 0.1860 1.0000
     vertex 5.9563 2.4995 1.0000
   endloop
 endfacet
 facet normal -0.0000 -0.0000 1.0000
   outer loop
     vertex -8.6239 -2.5105 1.0000
     vertex -2.7689 -5.7206 1.0000
     vertex -2.5079 1.0205 1.0000
   endloop
 endfacet
 facet normal 0.0000 -0.0000 1.0000
   outer loop
     vertex 9.2071 1.0224 1.0000
     vertex 6.4805 2.5962 1.0000
     vertex 5.0888 0.1860 1.0000
   endloop
 endfacet
 facet normal 0.0000 -0.0000 1.0000
   outer loop
     vertex 9.2071 -5.8695 1.0000
     vertex 7.2181 -2.4245 1.0000
     vertex 3.3511 -9.2515 1.0000
   endloop
 endfacet
 facet normal 0.0000 -0.0000 1.0000
   outer loop
     vertex 6.1291 2.7990 1.0000
     vertex 3.2001 4.4895 1.0000
     vertex 5.9563 2.4995 1.0000
   endloop
 endfacet
 facet normal -0.0000 -0.0000 1.0000
   outer loop
     vertex 9.2071 1.0224 1.0000
     vertex 5.0888 0.1860 1.0000
     vertex 7.2181 -2.4245 1.0000
   endloop
 endfacet
 facet normal -0.0000 -0.0000 1.0000
   outer loop
     vertex 3.3511 -9.2515 1.0000
     vertex 7.2181 -2.4245 1.0000
     vertex -2.7689 -5.7206 1.0000
   endloop
 endfacet
 facet normal -0.0000 -0.0000 1.0000
   outer loop
     vertex -0.6059 11.4254 1.0000
     vertex 3.2001 4.4895 1.0000
     vertex 3.1991 11.4254 1.0000
   endloop
 endfacet
 facet normal -0.0000 -0.0000 1.0000
   outer loop
     vertex 4.7376 0.3889 1.0000
     vertex 5.9563 2.4995 1.0000
     vertex 3.2001 4.4895 1.0000
   endloop
 endfacet
 facet normal 0.0000 -0.0000 1.0000
   outer loop
     vertex 7.2181 -2.4245 1.0000
     vertex 5.0888 0.1860 1.0000
     vertex -2.7689 -5.7206 1.0000
   endloop
 endfacet
 facet normal -0.0000 0.0000 1.0000
   outer loop
     vertex -0.6059 11.4254 1.0000
     vertex -4.5609 4.5755 1.0000
     vertex 3.2001 4.4895 1.0000
   endloop
 endfacet
 facet normal -0.0000 0.0000 1.0000
   outer loop
     vertex 3.2001 4.4895 1.0000
     vertex -2.5079 1.0205 1.0000
     vertex 4.7376 0.3889 1.0000
   endloop
 endfacet
 facet normal -0.0000 0.0000 1.0000
   outer loop
     vertex 4.7376 0.3889 1.0000
     vertex -2.7689 -5.7206 1.0000
     vertex 5.0888 0.1860 1.0000
   endloop
 endfacet
 facet normal -0.0000 -0.0000 1.0000
   outer loop
     vertex -8.6259 -9.2735 1.0000
     vertex -4.8199 -9.2755 1.0000
     vertex -8.6239 -2.5105 1.0000
   endloop
 endfacet
 facet normal -0.0000 -0.0000 1.0000
   outer loop
     vertex -4.5609 4.5755 1.0000
     vertex -2.5079 1.0205 1.0000
     vertex 3.2001 4.4895 1.0000
   endloop
 endfacet
 facet normal -0.0000 -0.0000 1.0000
   outer loop
     vertex -2.7689 -5.7206 1.0000
     vertex 4.7376 0.3889 1.0000
     vertex -2.5079 1.0205 1.0000
   endloop
 endfacet
 facet normal 0.0000 -0.0000 1.0000
   outer loop
     vertex -2.7689 -5.7206 1.0000
     vertex -8.6239 -2.5105 1.0000
     vertex -4.8199 -9.2755 1.0000
   endloop
 endfacet
 facet normal 0.0000 -0.0000 -1.0000
   outer loop
     vertex -8.6259 -9.2735 0.0000
     vertex -8.6239 -2.5105 0.0000
     vertex -4.8199 -9.2755 0.0000
   endloop
 endfacet
 facet normal 0.0000 -0.0000 -1.0000
   outer loop
     vertex -8.6239 -2.5105 0.0000
     vertex -2.5079 1.0205 0.0000
     vertex -4.8199 -9.2755 0.0000
   endloop
 endfacet
 facet normal -0.0000 -0.0000 -1.0000
   outer loop
     vertex -4.8199 -9.2755 0.0000
     vertex -2.5079 1.0205 0.0000
     vertex -2.7689 -5.7206 0.0000
   endloop
 endfacet
 facet normal 0.0000 -0.0000 -1.0000
   outer loop
     vertex -2.7689 -5.7206 0.0000
     vertex -2.5079 1.0205 0.0000
     vertex 3.3511 -9.2515 0.0000
   endloop
 endfacet
 facet normal -0.0000 0.0000 -1.0000
   outer loop
     vertex 3.3511 -9.2515 0.0000
     vertex -2.5079 1.0205 0.0000
     vertex 9.2071 -5.8695 0.0000
   endloop
 endfacet
 facet normal -0.0000 -0.0000 -1.0000
   outer loop
     vertex 9.2071 -5.8695 0.0000
     vertex -2.5079 1.0205 0.0000
     vertex 7.2181 -2.4245 0.0000
   endloop
 endfacet
 facet normal -0.0000 -0.0000 -1.0000
   outer loop
     vertex 9.2071 1.0224 0.0000
     vertex 7.2181 -2.4245 0.0000
     vertex -2.5079 1.0205 0.0000
   endloop
 endfacet
 facet normal -0.0000 -0.0000 -1.0000
   outer loop
     vertex 3.2001 4.4895 0.0000
     vertex 6.1291 2.7990 0.0000
     vertex -2.5079 1.0205 0.0000
   endloop
 endfacet
 facet normal -0.0000 -0.0000 -1.0000
   outer loop
     vertex 6.4805 2.5962 0.0000
     vertex -2.5079 1.0205 0.0000
     vertex 6.1291 2.7990 0.0000
   endloop
 endfacet
 facet normal -0.0000 -0.0000 -1.0000
   outer loop
     vertex 9.2071 1.0224 0.0000
     vertex -2.5079 1.0205 0.0000
     vertex 6.4805 2.5962 0.0000
   endloop
 endfacet
 facet normal -0.0000 -0.0000 -1.0000
   outer loop
     vertex 3.2001 4.4895 0.0000
     vertex -2.5079 1.0205 0.0000
     vertex -4.5609 4.5755 0.0000
   endloop
 endfacet
 facet normal -0.0000 -0.0000 -1.0000
   outer loop
     vertex 3.2001 4.4895 0.0000
     vertex -4.5609 4.5755 0.0000
     vertex -0.6059 11.4254 0.0000
   endloop
 endfacet
 facet normal -0.0000 -0.0000 -1.0000
   outer loop
     vertex 3.2001 4.4895 0.0000
     vertex -0.6059 11.4254 0.0000
     vertex 3.1991 11.4254 0.0000
   endloop
 endfacet
endsolid
