solid Cheetah3Dfile
 facet normal -0.0000 -0.0000 -1.0000
   outer loop
     vertex 9.6003 13.4685 -1.5000
     vertex 19.4415 7.7886 -1.5000
     vertex 17.9923 7.5345 -1.5000
   endloop
 endfacet
 facet normal -0.0000 -0.0000 -1.0000
   outer loop
     vertex 17.9923 7.5345 -1.5000
     vertex 8.6800 12.9092 -1.5000
     vertex 9.6003 13.4685 -1.5000
   endloop
 endfacet
 facet normal -0.0000 -0.0000 -1.0000
   outer loop
     vertex 8.6800 12.9092 -1.5000
     vertex 8.6559 12.9231 -1.5000
     vertex 8.6558 13.4790 -1.5000
   endloop
 endfacet
 facet normal -0.0000 -0.0000 -1.0000
   outer loop
     vertex 8.6558 13.4790 -1.5000
     vertex 9.6003 13.4685 -1.5000
     vertex 8.6800 12.9092 -1.5000
   endloop
 endfacet
 facet normal 0.4999 0.8661 -0.0000
   outer loop
     vertex 19.4415 7.7886 -1.5000
     vertex 9.6003 13.4685 -1.5000
     vertex 9.6003 13.4685 1.5000
   endloop
 endfacet
 facet normal -0.0000 0.0000 -1.0000
   outer loop
     vertex 25.7326 3.0669 -1.5000
     vertex 18.9694 6.9706 -1.5000
     vertex 27.6213 3.0672 -1.5000
   endloop
 endfacet
 facet normal 0.0000 -0.0000 -1.0000
   outer loop
     vertex 17.9923 7.5345 -1.5000
     vertex 19.4415 7.7886 -1.5000
     vertex 18.9694 6.9706 -1.5000
   endloop
 endfacet
 facet normal -0.0000 -0.0000 -1.0000
   outer loop
     vertex 27.6213 3.0672 -1.5000
     vertex 18.9694 6.9706 -1.5000
     vertex 19.4415 7.7886 -1.5000
   endloop
 endfacet
 facet normal -0.0000 -0.0000 -1.0000
   outer loop
     vertex 9.6003 13.4685 -1.5000
     vertex 8.6558 13.4790 -1.5000
     vertex 8.6556 15.1901 -1.5000
   endloop
 endfacet
 facet normal 0.4999 0.8661 -0.0000
   outer loop
     vertex 9.6003 13.4685 1.5000
     vertex 19.4415 7.7886 1.5000
     vertex 19.4415 7.7886 -1.5000
   endloop
 endfacet
 facet normal 1.0000 0.0001 0.0000
   outer loop
     vertex 9.6003 13.4685 1.5000
     vertex 9.6003 13.4685 -1.5000
     vertex 9.5973 34.2762 -1.5000
   endloop
 endfacet
 facet normal 0.4999 0.8661 -0.0000
   outer loop
     vertex 27.6213 3.0672 -1.5000
     vertex 19.4415 7.7886 -1.5000
     vertex 19.4415 7.7886 1.5000
   endloop
 endfacet
 facet normal -0.0000 0.0000 -1.0000
   outer loop
     vertex 21.6543 -7.2735 -1.5000
     vertex 20.7489 -6.9528 -1.5000
     vertex 27.6213 3.0672 -1.5000
   endloop
 endfacet
 facet normal 0.0000 -0.0000 -1.0000
   outer loop
     vertex 25.7326 3.0669 -1.5000
     vertex 27.6213 3.0672 -1.5000
     vertex 26.3313 2.7213 -1.5000
   endloop
 endfacet
 facet normal -0.0000 -0.0000 -1.0000
   outer loop
     vertex 20.7489 -6.9528 -1.5000
     vertex 26.3313 2.7213 -1.5000
     vertex 27.6213 3.0672 -1.5000
   endloop
 endfacet
 facet normal 0.0000 0.0000 -1.0000
   outer loop
     vertex 8.6556 15.1901 -1.5000
     vertex 8.6530 33.3317 -1.5000
     vertex 9.6003 13.4685 -1.5000
   endloop
 endfacet
 facet normal -0.0000 0.0000 -1.0000
   outer loop
     vertex -1.2863 33.3078 -1.5000
     vertex -1.8177 34.2762 -1.5000
     vertex -1.2724 33.3317 -1.5000
   endloop
 endfacet
 facet normal -0.0000 -0.0000 -1.0000
   outer loop
     vertex 9.6003 13.4685 -1.5000
     vertex 8.6530 33.3317 -1.5000
     vertex 9.5973 34.2762 -1.5000
   endloop
 endfacet
 facet normal -0.0000 0.0000 -1.0000
   outer loop
     vertex -1.2724 33.3317 -1.5000
     vertex -1.8177 34.2762 -1.5000
     vertex 8.6530 33.3317 -1.5000
   endloop
 endfacet
 facet normal -0.0000 -0.0000 -1.0000
   outer loop
     vertex 9.5973 34.2762 -1.5000
     vertex 8.6530 33.3317 -1.5000
     vertex -1.8177 34.2762 -1.5000
   endloop
 endfacet
 facet normal -0.0000 -0.0000 1.0000
   outer loop
     vertex 17.9923 7.5345 1.5000
     vertex 19.4415 7.7886 1.5000
     vertex 9.6003 13.4685 1.5000
   endloop
 endfacet
 facet normal -0.0000 0.0000 1.0000
   outer loop
     vertex 9.6003 13.4685 1.5000
     vertex 8.6800 12.9092 1.5000
     vertex 17.9923 7.5345 1.5000
   endloop
 endfacet
 facet normal 1.0000 0.0001 -0.0000
   outer loop
     vertex 9.5973 34.2762 -1.5000
     vertex 9.5973 34.2762 1.5000
     vertex 9.6003 13.4685 1.5000
   endloop
 endfacet
 facet normal 0.4999 0.8661 -0.0000
   outer loop
     vertex 19.4415 7.7886 1.5000
     vertex 27.6213 3.0672 1.5000
     vertex 27.6213 3.0672 -1.5000
   endloop
 endfacet
 facet normal 0.8661 -0.4998 -0.0000
   outer loop
     vertex 21.6543 -7.2735 -1.5000
     vertex 27.6213 3.0672 -1.5000
     vertex 27.6213 3.0672 1.5000
   endloop
 endfacet
 facet normal 0.0000 0.0000 -1.0000
   outer loop
     vertex 25.9700 -16.6373 -1.5000
     vertex 20.5638 -7.2736 -1.5000
     vertex 27.6213 -17.6085 -1.5000
   endloop
 endfacet
 facet normal -0.0000 -0.0000 -1.0000
   outer loop
     vertex 20.7489 -6.9528 -1.5000
     vertex 21.6543 -7.2735 -1.5000
     vertex 20.5638 -7.2736 -1.5000
   endloop
 endfacet
 facet normal -0.0000 -0.0000 -1.0000
   outer loop
     vertex 27.6213 -17.6085 -1.5000
     vertex 20.5638 -7.2736 -1.5000
     vertex 21.6543 -7.2735 -1.5000
   endloop
 endfacet
 facet normal -0.0000 -0.0000 -1.0000
   outer loop
     vertex -1.8177 34.2762 -1.5000
     vertex -1.2863 33.3078 -1.5000
     vertex -13.6827 13.7265 -1.5000
   endloop
 endfacet
 facet normal -0.0000 -0.0000 -1.0000
   outer loop
     vertex -12.5850 13.7143 -1.5000
     vertex -13.6827 13.7265 -1.5000
     vertex -12.5921 13.7265 -1.5000
   endloop
 endfacet
 facet normal -0.0000 -0.0000 -1.0000
   outer loop
     vertex -1.2863 33.3078 -1.5000
     vertex -12.5921 13.7265 -1.5000
     vertex -13.6827 13.7265 -1.5000
   endloop
 endfacet
 facet normal -0.0000 1.0000 -0.0000
   outer loop
     vertex 9.5973 34.2762 -1.5000
     vertex -1.8177 34.2762 -1.5000
     vertex -1.8177 34.2762 1.5000
   endloop
 endfacet
 facet normal -0.0000 0.0000 1.0000
   outer loop
     vertex 19.4415 7.7886 1.5000
     vertex 17.9923 7.5345 1.5000
     vertex 27.6213 3.0672 1.5000
   endloop
 endfacet
 facet normal -0.0000 -0.0000 1.0000
   outer loop
     vertex 25.7326 3.0669 1.5000
     vertex 27.6213 3.0672 1.5000
     vertex 18.9694 6.9706 1.5000
   endloop
 endfacet
 facet normal -0.0000 -0.0000 1.0000
   outer loop
     vertex 17.9923 7.5345 1.5000
     vertex 18.9694 6.9706 1.5000
     vertex 27.6213 3.0672 1.5000
   endloop
 endfacet
 facet normal -0.0000 -0.0000 1.0000
   outer loop
     vertex 8.6800 12.9092 1.5000
     vertex 9.6003 13.4685 1.5000
     vertex 8.6558 13.4790 1.5000
   endloop
 endfacet
 facet normal -0.0000 -0.0000 1.0000
   outer loop
     vertex 8.6558 13.4790 1.5000
     vertex 8.6559 12.9231 1.5000
     vertex 8.6800 12.9092 1.5000
   endloop
 endfacet
 facet normal -0.0000 1.0000 -0.0000
   outer loop
     vertex -1.8177 34.2762 1.5000
     vertex 9.5973 34.2762 1.5000
     vertex 9.5973 34.2762 -1.5000
   endloop
 endfacet
 facet normal -0.0000 -0.0000 1.0000
   outer loop
     vertex -1.2863 33.3078 1.5000
     vertex -1.2724 33.3317 1.5000
     vertex -1.8177 34.2762 1.5000
   endloop
 endfacet
 facet normal -0.0000 -0.0000 1.0000
   outer loop
     vertex 8.6556 15.1901 1.5000
     vertex 9.6003 13.4685 1.5000
     vertex 8.6530 33.3317 1.5000
   endloop
 endfacet
 facet normal -0.0000 -0.0000 1.0000
   outer loop
     vertex -1.8177 34.2762 1.5000
     vertex -1.2724 33.3317 1.5000
     vertex 9.5973 34.2762 1.5000
   endloop
 endfacet
 facet normal -0.0000 -0.0000 1.0000
   outer loop
     vertex 9.6003 13.4685 1.5000
     vertex 9.5973 34.2762 1.5000
     vertex 8.6530 33.3317 1.5000
   endloop
 endfacet
 facet normal -0.0000 -0.0000 1.0000
   outer loop
     vertex -1.2724 33.3317 1.5000
     vertex 8.6530 33.3317 1.5000
     vertex 9.5973 34.2762 1.5000
   endloop
 endfacet
 facet normal 0.8661 -0.4998 -0.0000
   outer loop
     vertex 27.6213 3.0672 1.5000
     vertex 21.6543 -7.2735 1.5000
     vertex 21.6543 -7.2735 -1.5000
   endloop
 endfacet
 facet normal 0.8660 0.5000 -0.0000
   outer loop
     vertex 27.6213 -17.6085 -1.5000
     vertex 21.6543 -7.2735 -1.5000
     vertex 21.6543 -7.2735 1.5000
   endloop
 endfacet
 facet normal -0.0000 -0.0000 -1.0000
   outer loop
     vertex 9.1263 -26.1293 -1.5000
     vertex 10.0531 -26.6640 -1.5000
     vertex 10.0533 -27.7545 -1.5000
   endloop
 endfacet
 facet normal -0.0000 -0.0000 -1.0000
   outer loop
     vertex 25.9700 -16.6373 -1.5000
     vertex 27.6213 -17.6085 -1.5000
     vertex 26.3312 -17.2629 -1.5000
   endloop
 endfacet
 facet normal -0.0000 0.0000 -1.0000
   outer loop
     vertex 10.0533 -27.7545 -1.5000
     vertex 10.0531 -26.6640 -1.5000
     vertex 27.6213 -17.6085 -1.5000
   endloop
 endfacet
 facet normal -0.0000 -0.0000 -1.0000
   outer loop
     vertex 26.3312 -17.2629 -1.5000
     vertex 27.6213 -17.6085 -1.5000
     vertex 10.0531 -26.6640 -1.5000
   endloop
 endfacet
 facet normal -0.0000 -0.0000 -1.0000
   outer loop
     vertex -7.5237 3.0615 -1.5000
     vertex -13.6827 13.7265 -1.5000
     vertex -12.5850 13.7143 -1.5000
   endloop
 endfacet
 facet normal -0.0000 -0.0000 -1.0000
   outer loop
     vertex -12.5850 13.7143 -1.5000
     vertex -6.7164 3.5521 -1.5000
     vertex -7.5237 3.0615 -1.5000
   endloop
 endfacet
 facet normal -0.8660 0.5000 -0.0000
   outer loop
     vertex -1.8177 34.2762 -1.5000
     vertex -13.6827 13.7265 -1.5000
     vertex -13.6827 13.7265 1.5000
   endloop
 endfacet
 facet normal -0.8660 0.5000 -0.0000
   outer loop
     vertex -13.6827 13.7265 1.5000
     vertex -1.8177 34.2762 1.5000
     vertex -1.8177 34.2762 -1.5000
   endloop
 endfacet
 facet normal -0.0000 -0.0000 1.0000
   outer loop
     vertex 25.7326 3.0669 1.5000
     vertex 26.3313 2.7213 1.5000
     vertex 27.6213 3.0672 1.5000
   endloop
 endfacet
 facet normal -0.0000 -0.0000 1.0000
   outer loop
     vertex 20.7489 -6.9528 1.5000
     vertex 21.6543 -7.2735 1.5000
     vertex 26.3313 2.7213 1.5000
   endloop
 endfacet
 facet normal -0.0000 -0.0000 1.0000
   outer loop
     vertex 27.6213 3.0672 1.5000
     vertex 26.3313 2.7213 1.5000
     vertex 21.6543 -7.2735 1.5000
   endloop
 endfacet
 facet normal -0.0000 -0.0000 1.0000
   outer loop
     vertex 8.6558 13.4790 1.5000
     vertex 9.6003 13.4685 1.5000
     vertex 8.6556 15.1901 1.5000
   endloop
 endfacet
 facet normal -0.0000 -0.0000 1.0000
   outer loop
     vertex -12.5850 13.7143 1.5000
     vertex -12.5921 13.7265 1.5000
     vertex -13.6827 13.7265 1.5000
   endloop
 endfacet
 facet normal 0.0000 -0.0000 1.0000
   outer loop
     vertex -1.2863 33.3078 1.5000
     vertex -1.8177 34.2762 1.5000
     vertex -12.5921 13.7265 1.5000
   endloop
 endfacet
 facet normal -0.0000 -0.0000 1.0000
   outer loop
     vertex -13.6827 13.7265 1.5000
     vertex -12.5921 13.7265 1.5000
     vertex -1.8177 34.2762 1.5000
   endloop
 endfacet
 facet normal 0.8660 0.5000 -0.0000
   outer loop
     vertex 21.6543 -7.2735 1.5000
     vertex 27.6213 -17.6085 1.5000
     vertex 27.6213 -17.6085 -1.5000
   endloop
 endfacet
 facet normal 0.5001 -0.8660 -0.0000
   outer loop
     vertex 10.0533 -27.7545 -1.5000
     vertex 27.6213 -17.6085 -1.5000
     vertex 27.6213 -17.6085 1.5000
   endloop
 endfacet
 facet normal 0.0000 -0.0000 -1.0000
   outer loop
     vertex -8.3067 -17.1618 -1.5000
     vertex -8.2654 -16.0952 -1.5000
     vertex 9.1263 -26.1293 -1.5000
   endloop
 endfacet
 facet normal -0.0000 -0.0000 -1.0000
   outer loop
     vertex 9.1263 -26.1293 -1.5000
     vertex 10.0533 -27.7545 -1.5000
     vertex -8.3067 -17.1618 -1.5000
   endloop
 endfacet
 facet normal -0.0000 -0.0000 -1.0000
   outer loop
     vertex -6.5333 3.2351 -1.5000
     vertex -7.5237 3.0615 -1.5000
     vertex -6.7164 3.5521 -1.5000
   endloop
 endfacet
 facet normal -0.8660 -0.5001 -0.0000
   outer loop
     vertex -13.6827 13.7265 -1.5000
     vertex -7.5237 3.0615 -1.5000
     vertex -7.5237 3.0615 1.5000
   endloop
 endfacet
 facet normal -0.8660 -0.5001 -0.0000
   outer loop
     vertex -7.5237 3.0615 1.5000
     vertex -13.6827 13.7265 1.5000
     vertex -13.6827 13.7265 -1.5000
   endloop
 endfacet
 facet normal -0.0000 -0.0000 1.0000
   outer loop
     vertex 20.7489 -6.9528 1.5000
     vertex 20.5638 -7.2736 1.5000
     vertex 20.7383 -7.5758 1.5000
   endloop
 endfacet
 facet normal -0.0000 -0.0000 1.0000
   outer loop
     vertex 20.7383 -7.5758 1.5000
     vertex 21.6543 -7.2735 1.5000
     vertex 20.7489 -6.9528 1.5000
   endloop
 endfacet
 facet normal -0.0000 -0.0000 1.0000
   outer loop
     vertex -7.5237 3.0615 1.5000
     vertex -6.7164 3.5521 1.5000
     vertex -12.5850 13.7143 1.5000
   endloop
 endfacet
 facet normal 0.0000 0.0000 1.0000
   outer loop
     vertex -12.5850 13.7143 1.5000
     vertex -13.6827 13.7265 1.5000
     vertex -7.5237 3.0615 1.5000
   endloop
 endfacet
 facet normal -0.0000 0.0000 1.0000
   outer loop
     vertex 21.6543 -7.2735 1.5000
     vertex 21.1142 -8.2270 1.5000
     vertex 27.6213 -17.6085 1.5000
   endloop
 endfacet
 facet normal -0.0000 0.0000 1.0000
   outer loop
     vertex 10.9714 -26.1336 1.5000
     vertex 10.0533 -27.7545 1.5000
     vertex 26.3312 -17.2629 1.5000
   endloop
 endfacet
 facet normal -0.0000 -0.0000 1.0000
   outer loop
     vertex 21.1142 -8.2270 1.5000
     vertex 26.3312 -17.2629 1.5000
     vertex 27.6213 -17.6085 1.5000
   endloop
 endfacet
 facet normal -0.0000 -0.0000 1.0000
   outer loop
     vertex 10.0533 -27.7545 1.5000
     vertex 27.6213 -17.6085 1.5000
     vertex 26.3312 -17.2629 1.5000
   endloop
 endfacet
 facet normal 0.5001 -0.8660 -0.0000
   outer loop
     vertex 27.6213 -17.6085 1.5000
     vertex 10.0533 -27.7545 1.5000
     vertex 10.0533 -27.7545 -1.5000
   endloop
 endfacet
 facet normal -0.4997 -0.8662 -0.0000
   outer loop
     vertex -8.3067 -17.1618 -1.5000
     vertex 10.0533 -27.7545 -1.5000
     vertex 10.0533 -27.7545 1.5000
   endloop
 endfacet
 facet normal 0.0000 -0.0000 -1.0000
   outer loop
     vertex -13.7649 -24.7323 -1.5000
     vertex -8.6528 -15.8717 -1.5000
     vertex -14.4597 -27.8265 -1.5000
   endloop
 endfacet
 facet normal -0.0000 -0.0000 -1.0000
   outer loop
     vertex -8.2654 -16.0952 -1.5000
     vertex -8.3067 -17.1618 -1.5000
     vertex -8.6528 -15.8717 -1.5000
   endloop
 endfacet
 facet normal -0.0000 -0.0000 -1.0000
   outer loop
     vertex -14.4597 -27.8265 -1.5000
     vertex -8.6528 -15.8717 -1.5000
     vertex -8.3067 -17.1618 -1.5000
   endloop
 endfacet
 facet normal -0.0000 -0.0000 -1.0000
   outer loop
     vertex -6.4332 3.0617 -1.5000
     vertex -7.5237 3.0615 -1.5000
     vertex -6.5333 3.2351 -1.5000
   endloop
 endfacet
 facet normal -0.5000 0.8660 -0.0000
   outer loop
     vertex -25.8717 -7.5315 1.5000
     vertex -7.5237 3.0615 1.5000
     vertex -7.5237 3.0615 -1.5000
   endloop
 endfacet
 facet normal -0.0000 -0.0000 1.0000
   outer loop
     vertex 21.1142 -8.2270 1.5000
     vertex 21.6543 -7.2735 1.5000
     vertex 20.7383 -7.5758 1.5000
   endloop
 endfacet
 facet normal -0.0000 -0.0000 1.0000
   outer loop
     vertex -7.5237 3.0615 1.5000
     vertex -6.5333 3.2351 1.5000
     vertex -6.7164 3.5521 1.5000
   endloop
 endfacet
 facet normal -0.0000 -0.0000 1.0000
   outer loop
     vertex 10.9714 -26.1336 1.5000
     vertex 10.0531 -26.6640 1.5000
     vertex 10.0533 -27.7545 1.5000
   endloop
 endfacet
 facet normal -0.0000 0.0000 1.0000
   outer loop
     vertex -7.1045 -16.7650 1.5000
     vertex -8.3067 -17.1618 1.5000
     vertex 10.0531 -26.6640 1.5000
   endloop
 endfacet
 facet normal -0.0000 -0.0000 1.0000
   outer loop
     vertex 10.0533 -27.7545 1.5000
     vertex 10.0531 -26.6640 1.5000
     vertex -8.3067 -17.1618 1.5000
   endloop
 endfacet
 facet normal -0.4997 -0.8662 -0.0000
   outer loop
     vertex 10.0533 -27.7545 1.5000
     vertex -8.3067 -17.1618 1.5000
     vertex -8.3067 -17.1618 -1.5000
   endloop
 endfacet
 facet normal 0.8662 -0.4997 -0.0000
   outer loop
     vertex -14.4597 -27.8265 -1.5000
     vertex -8.3067 -17.1618 -1.5000
     vertex -8.3067 -17.1618 1.5000
   endloop
 endfacet
 facet normal -0.0000 -0.0000 -1.0000
   outer loop
     vertex -13.7649 -24.7323 -1.5000
     vertex -14.4597 -27.8265 -1.5000
     vertex -14.9979 -26.8694 -1.5000
   endloop
 endfacet
 facet normal -0.0000 -0.0000 -1.0000
   outer loop
     vertex -6.3530 2.6468 -1.5000
     vertex -7.5237 3.0615 -1.5000
     vertex -6.4332 3.0617 -1.5000
   endloop
 endfacet
 facet normal -0.0000 -0.0000 -1.0000
   outer loop
     vertex -6.4332 3.0617 -1.5000
     vertex -6.2334 2.7158 -1.5000
     vertex -6.3530 2.6468 -1.5000
   endloop
 endfacet
 facet normal -0.5000 0.8660 -0.0000
   outer loop
     vertex -7.5237 3.0615 -1.5000
     vertex -25.8717 -7.5315 -1.5000
     vertex -25.8717 -7.5315 1.5000
   endloop
 endfacet
 facet normal -0.0000 -0.0000 1.0000
   outer loop
     vertex -25.8717 -7.5315 1.5000
     vertex -24.9028 -8.0627 1.5000
     vertex -7.5669 1.9460 1.5000
   endloop
 endfacet
 facet normal 0.0000 -0.0000 1.0000
   outer loop
     vertex -7.5669 1.9460 1.5000
     vertex -7.5237 3.0615 1.5000
     vertex -25.8717 -7.5315 1.5000
   endloop
 endfacet
 facet normal -0.0000 0.0000 1.0000
   outer loop
     vertex -6.5333 3.2351 1.5000
     vertex -7.5237 3.0615 1.5000
     vertex -6.4332 3.0617 1.5000
   endloop
 endfacet
 facet normal -0.0000 0.0000 1.0000
   outer loop
     vertex -8.2654 -16.0952 1.5000
     vertex -8.3067 -17.1618 1.5000
     vertex -7.1045 -16.7650 1.5000
   endloop
 endfacet
 facet normal 0.8662 -0.4997 -0.0000
   outer loop
     vertex -8.3067 -17.1618 1.5000
     vertex -14.4597 -27.8265 1.5000
     vertex -14.4597 -27.8265 -1.5000
   endloop
 endfacet
 facet normal -0.0000 -0.0000 -1.0000
   outer loop
     vertex -25.8717 -7.5315 -1.5000
     vertex -24.9277 -9.2102 -1.5000
     vertex -25.8777 -27.8205 -1.5000
   endloop
 endfacet
 facet normal -0.0000 -0.0000 -1.0000
   outer loop
     vertex -14.9979 -26.8694 -1.5000
     vertex -14.4597 -27.8265 -1.5000
     vertex -15.0050 -26.8818 -1.5000
   endloop
 endfacet
 facet normal -0.0000 -0.0000 -1.0000
   outer loop
     vertex -24.9277 -9.2102 -1.5000
     vertex -24.9330 -26.8765 -1.5000
     vertex -25.8777 -27.8205 -1.5000
   endloop
 endfacet
 facet normal -0.0000 -0.0000 -1.0000
   outer loop
     vertex -15.0050 -26.8818 -1.5000
     vertex -14.4597 -27.8265 -1.5000
     vertex -24.9330 -26.8765 -1.5000
   endloop
 endfacet
 facet normal 0.0000 -0.0000 -1.0000
   outer loop
     vertex -25.8777 -27.8205 -1.5000
     vertex -24.9330 -26.8765 -1.5000
     vertex -14.4597 -27.8265 -1.5000
   endloop
 endfacet
 facet normal -0.0000 0.0000 -1.0000
   outer loop
     vertex -6.5880 2.5112 -1.5000
     vertex -7.5237 3.0615 -1.5000
     vertex -6.3530 2.6468 -1.5000
   endloop
 endfacet
 facet normal -0.0000 -0.0000 -1.0000
   outer loop
     vertex -7.5237 3.0615 -1.5000
     vertex -7.8051 1.8085 -1.5000
     vertex -25.8717 -7.5315 -1.5000
   endloop
 endfacet
 facet normal -0.0000 0.0000 -1.0000
   outer loop
     vertex -24.9277 -9.2102 -1.5000
     vertex -25.8717 -7.5315 -1.5000
     vertex -24.9274 -8.0769 -1.5000
   endloop
 endfacet
 facet normal -0.0000 -0.0000 -1.0000
   outer loop
     vertex -7.8051 1.8085 -1.5000
     vertex -24.9274 -8.0769 -1.5000
     vertex -25.8717 -7.5315 -1.5000
   endloop
 endfacet
 facet normal -1.0000 0.0003 -0.0000
   outer loop
     vertex -25.8777 -27.8205 1.5000
     vertex -25.8717 -7.5315 1.5000
     vertex -25.8717 -7.5315 -1.5000
   endloop
 endfacet
 facet normal -0.0000 -0.0000 1.0000
   outer loop
     vertex -25.8717 -7.5315 1.5000
     vertex -24.9277 -9.2102 1.5000
     vertex -24.9274 -8.0769 1.5000
   endloop
 endfacet
 facet normal -0.0000 -0.0000 1.0000
   outer loop
     vertex -24.9274 -8.0769 1.5000
     vertex -24.9028 -8.0627 1.5000
     vertex -25.8717 -7.5315 1.5000
   endloop
 endfacet
 facet normal 0.0000 -0.0000 1.0000
   outer loop
     vertex -6.3530 2.6468 1.5000
     vertex -7.5237 3.0615 1.5000
     vertex -7.5669 1.9460 1.5000
   endloop
 endfacet
 facet normal -0.0000 0.0000 1.0000
   outer loop
     vertex -6.4332 3.0617 1.5000
     vertex -7.5237 3.0615 1.5000
     vertex -6.3530 2.6468 1.5000
   endloop
 endfacet
 facet normal -0.0000 -0.0000 1.0000
   outer loop
     vertex -6.3530 2.6468 1.5000
     vertex -6.2334 2.7159 1.5000
     vertex -6.4332 3.0617 1.5000
   endloop
 endfacet
 facet normal -0.0000 -0.0000 1.0000
   outer loop
     vertex -9.1351 -16.7076 1.5000
     vertex -8.3067 -17.1618 1.5000
     vertex -8.2654 -16.0952 1.5000
   endloop
 endfacet
 facet normal 0.0000 -0.0000 1.0000
   outer loop
     vertex -8.2654 -16.0952 1.5000
     vertex -8.6528 -15.8717 1.5000
     vertex -9.1351 -16.7076 1.5000
   endloop
 endfacet
 facet normal 0.0000 -0.0000 1.0000
   outer loop
     vertex -8.3067 -17.1618 1.5000
     vertex -9.1351 -16.7076 1.5000
     vertex -14.9979 -26.8694 1.5000
   endloop
 endfacet
 facet normal -0.0000 -0.0000 1.0000
   outer loop
     vertex -14.9979 -26.8694 1.5000
     vertex -14.4597 -27.8265 1.5000
     vertex -8.3067 -17.1618 1.5000
   endloop
 endfacet
 facet normal -0.0005 -1.0000 -0.0000
   outer loop
     vertex -25.8777 -27.8205 -1.5000
     vertex -14.4597 -27.8265 -1.5000
     vertex -14.4597 -27.8265 1.5000
   endloop
 endfacet
 facet normal -1.0000 0.0003 -0.0000
   outer loop
     vertex -25.8717 -7.5315 -1.5000
     vertex -25.8777 -27.8205 -1.5000
     vertex -25.8777 -27.8205 1.5000
   endloop
 endfacet
 facet normal -0.0000 0.0000 -1.0000
   outer loop
     vertex -7.0558 2.2411 -1.5000
     vertex -7.5237 3.0615 -1.5000
     vertex -6.5880 2.5112 -1.5000
   endloop
 endfacet
 facet normal -0.0000 -0.0000 -1.0000
   outer loop
     vertex -7.8051 1.8085 -1.5000
     vertex -7.5237 3.0615 -1.5000
     vertex -7.5669 1.9460 -1.5000
   endloop
 endfacet
 facet normal -0.0000 0.0000 1.0000
   outer loop
     vertex -14.9979 -26.8694 1.5000
     vertex -15.0050 -26.8818 1.5000
     vertex -14.4597 -27.8265 1.5000
   endloop
 endfacet
 facet normal 0.0000 -0.0000 1.0000
   outer loop
     vertex -24.9277 -9.2102 1.5000
     vertex -25.8717 -7.5315 1.5000
     vertex -24.9330 -26.8765 1.5000
   endloop
 endfacet
 facet normal -0.0000 -0.0000 1.0000
   outer loop
     vertex -14.4597 -27.8265 1.5000
     vertex -15.0050 -26.8818 1.5000
     vertex -25.8777 -27.8205 1.5000
   endloop
 endfacet
 facet normal -0.0000 0.0000 1.0000
   outer loop
     vertex -25.8717 -7.5315 1.5000
     vertex -25.8777 -27.8205 1.5000
     vertex -24.9330 -26.8765 1.5000
   endloop
 endfacet
 facet normal 0.0000 -0.0000 1.0000
   outer loop
     vertex -15.0050 -26.8818 1.5000
     vertex -24.9330 -26.8765 1.5000
     vertex -25.8777 -27.8205 1.5000
   endloop
 endfacet
 facet normal -0.0005 -1.0000 -0.0000
   outer loop
     vertex -14.4597 -27.8265 1.5000
     vertex -25.8777 -27.8205 1.5000
     vertex -25.8777 -27.8205 -1.5000
   endloop
 endfacet
 facet normal -0.0000 -0.0000 -1.0000
   outer loop
     vertex -7.5669 1.9460 -1.5000
     vertex -7.5237 3.0615 -1.5000
     vertex -7.0558 2.2411 -1.5000
   endloop
 endfacet
 facet normal -0.8662 0.4998 -0.0000
   outer loop
     vertex -15.0050 -26.8818 -1.5000
     vertex -15.0050 -26.8818 1.5000
     vertex -14.9979 -26.8694 -1.5000
   endloop
 endfacet
 facet normal -0.8662 0.4997 -0.0000
   outer loop
     vertex -8.6528 -15.8717 1.5000
     vertex -8.6528 -15.8717 -1.5000
     vertex -9.1351 -16.7076 1.5000
   endloop
 endfacet
 facet normal -0.8662 0.4997 -0.0000
   outer loop
     vertex -14.9979 -26.8694 -1.5000
     vertex -15.0050 -26.8818 1.5000
     vertex -13.7649 -24.7323 -1.5000
   endloop
 endfacet
 facet normal -0.8662 0.4997 -0.0000
   outer loop
     vertex -9.1351 -16.7076 1.5000
     vertex -8.6528 -15.8717 -1.5000
     vertex -14.9979 -26.8694 1.5000
   endloop
 endfacet
 facet normal -0.8662 0.4997 -0.0000
   outer loop
     vertex -13.7649 -24.7323 -1.5000
     vertex -15.0050 -26.8818 1.5000
     vertex -8.6528 -15.8717 -1.5000
   endloop
 endfacet
 facet normal -0.8662 0.4998 0.0001
   outer loop
     vertex -14.9979 -26.8694 1.5000
     vertex -8.6528 -15.8717 -1.5000
     vertex -15.0050 -26.8818 1.5000
   endloop
 endfacet
 facet normal 0.4997 0.8662 -0.0000
   outer loop
     vertex -8.6528 -15.8717 -1.5000
     vertex -8.6528 -15.8717 1.5000
     vertex -8.2654 -16.0952 -1.5000
   endloop
 endfacet
 facet normal 0.4997 0.8662 0.0000
   outer loop
     vertex 10.0531 -26.6640 1.5000
     vertex 10.0531 -26.6640 -1.5000
     vertex -7.1045 -16.7650 1.5000
   endloop
 endfacet
 facet normal 0.4997 0.8662 -0.0000
   outer loop
     vertex -8.2654 -16.0952 -1.5000
     vertex -8.6528 -15.8717 1.5000
     vertex 9.1263 -26.1293 -1.5000
   endloop
 endfacet
 facet normal 0.4997 0.8662 -0.0000
   outer loop
     vertex -7.1045 -16.7650 1.5000
     vertex 10.0531 -26.6640 -1.5000
     vertex -8.2654 -16.0952 1.5000
   endloop
 endfacet
 facet normal 0.4997 0.8662 0.0000
   outer loop
     vertex 9.1263 -26.1293 -1.5000
     vertex -8.6528 -15.8717 1.5000
     vertex 10.0531 -26.6640 -1.5000
   endloop
 endfacet
 facet normal 0.4997 0.8662 0.0000
   outer loop
     vertex -8.2654 -16.0952 1.5000
     vertex 10.0531 -26.6640 -1.5000
     vertex -8.6528 -15.8717 1.5000
   endloop
 endfacet
 facet normal 0.0005 1.0000 -0.0000
   outer loop
     vertex -15.0050 -26.8818 -1.5000
     vertex -24.9330 -26.8765 -1.5000
     vertex -24.9330 -26.8765 1.5000
   endloop
 endfacet
 facet normal 0.0005 1.0000 -0.0000
   outer loop
     vertex -24.9330 -26.8765 1.5000
     vertex -15.0050 -26.8818 1.5000
     vertex -15.0050 -26.8818 -1.5000
   endloop
 endfacet
 facet normal -0.5001 0.8660 -0.0000
   outer loop
     vertex 10.0531 -26.6640 -1.5000
     vertex 10.0531 -26.6640 1.5000
     vertex 26.3312 -17.2629 -1.5000
   endloop
 endfacet
 facet normal -0.5001 0.8660 -0.0000
   outer loop
     vertex 26.3312 -17.2629 1.5000
     vertex 26.3312 -17.2629 -1.5000
     vertex 10.9714 -26.1336 1.5000
   endloop
 endfacet
 facet normal -0.5001 0.8660 -0.0000
   outer loop
     vertex 10.0531 -26.6640 1.5000
     vertex 10.9714 -26.1336 1.5000
     vertex 26.3312 -17.2629 -1.5000
   endloop
 endfacet
 facet normal 1.0000 -0.0003 -0.0000
   outer loop
     vertex -24.9274 -8.0769 -1.5000
     vertex -24.9274 -8.0769 1.5000
     vertex -24.9277 -9.2102 -1.5000
   endloop
 endfacet
 facet normal 1.0000 -0.0003 -0.0000
   outer loop
     vertex -24.9330 -26.8765 1.5000
     vertex -24.9330 -26.8765 -1.5000
     vertex -24.9277 -9.2102 1.5000
   endloop
 endfacet
 facet normal 1.0000 -0.0003 -0.0000
   outer loop
     vertex -24.9277 -9.2102 -1.5000
     vertex -24.9274 -8.0769 1.5000
     vertex -24.9330 -26.8765 -1.5000
   endloop
 endfacet
 facet normal 1.0000 -0.0003 0.0000
   outer loop
     vertex -24.9277 -9.2102 1.5000
     vertex -24.9330 -26.8765 -1.5000
     vertex -24.9274 -8.0769 1.5000
   endloop
 endfacet
 facet normal -0.8660 -0.5000 0.0000
   outer loop
     vertex 26.3312 -17.2629 -1.5000
     vertex 26.3312 -17.2629 1.5000
     vertex 25.9700 -16.6373 -1.5000
   endloop
 endfacet
 facet normal -0.8660 -0.5000 -0.0000
   outer loop
     vertex 20.5638 -7.2736 1.5000
     vertex 20.5638 -7.2736 -1.5000
     vertex 20.7383 -7.5758 1.5000
   endloop
 endfacet
 facet normal -0.8660 -0.5000 -0.0000
   outer loop
     vertex 25.9700 -16.6373 -1.5000
     vertex 26.3312 -17.2629 1.5000
     vertex 20.5638 -7.2736 -1.5000
   endloop
 endfacet
 facet normal -0.8660 -0.5000 0.0000
   outer loop
     vertex 20.7383 -7.5758 1.5000
     vertex 20.5638 -7.2736 -1.5000
     vertex 21.1142 -8.2270 1.5000
   endloop
 endfacet
 facet normal -0.8660 -0.5000 0.0000
   outer loop
     vertex 26.3312 -17.2629 1.5000
     vertex 21.1142 -8.2270 1.5000
     vertex 20.5638 -7.2736 -1.5000
   endloop
 endfacet
 facet normal 0.5000 -0.8660 0.0000
   outer loop
     vertex -6.2334 2.7158 -1.5000
     vertex -6.2334 2.7159 1.5000
     vertex -6.3530 2.6468 -1.5000
   endloop
 endfacet
 facet normal 0.5000 -0.8660 -0.0000
   outer loop
     vertex -24.9274 -8.0769 1.5000
     vertex -24.9274 -8.0769 -1.5000
     vertex -24.9028 -8.0627 1.5000
   endloop
 endfacet
 facet normal 0.5000 -0.8660 0.0000
   outer loop
     vertex -6.3530 2.6468 -1.5000
     vertex -6.2334 2.7159 1.5000
     vertex -6.5880 2.5112 -1.5000
   endloop
 endfacet
 facet normal 0.5000 -0.8660 -0.0000
   outer loop
     vertex -24.9028 -8.0627 1.5000
     vertex -24.9274 -8.0769 -1.5000
     vertex -7.5669 1.9460 1.5000
   endloop
 endfacet
 facet normal 0.5000 -0.8660 0.0000
   outer loop
     vertex -6.5880 2.5112 -1.5000
     vertex -6.2334 2.7159 1.5000
     vertex -7.0558 2.2411 -1.5000
   endloop
 endfacet
 facet normal 0.5000 -0.8660 0.0000
   outer loop
     vertex -7.5669 1.9460 1.5000
     vertex -24.9274 -8.0769 -1.5000
     vertex -6.3530 2.6468 1.5000
   endloop
 endfacet
 facet normal 0.5000 -0.8660 0.0000
   outer loop
     vertex -7.0558 2.2411 -1.5000
     vertex -6.2334 2.7159 1.5000
     vertex -7.5669 1.9460 -1.5000
   endloop
 endfacet
 facet normal 0.5000 -0.8660 0.0000
   outer loop
     vertex -6.3530 2.6468 1.5000
     vertex -24.9274 -8.0769 -1.5000
     vertex -6.2334 2.7159 1.5000
   endloop
 endfacet
 facet normal 0.5000 -0.8660 -0.0000
   outer loop
     vertex -7.5669 1.9460 -1.5000
     vertex -6.2334 2.7159 1.5000
     vertex -7.8051 1.8085 -1.5000
   endloop
 endfacet
 facet normal 0.5000 -0.8660 0.0000
   outer loop
     vertex -24.9274 -8.0769 -1.5000
     vertex -7.8051 1.8085 -1.5000
     vertex -6.2334 2.7159 1.5000
   endloop
 endfacet
 facet normal -0.8661 0.4998 -0.0000
   outer loop
     vertex 20.5638 -7.2736 -1.5000
     vertex 20.5638 -7.2736 1.5000
     vertex 20.7489 -6.9528 -1.5000
   endloop
 endfacet
 facet normal -0.8661 0.4998 -0.0000
   outer loop
     vertex 26.3313 2.7213 1.5000
     vertex 26.3313 2.7213 -1.5000
     vertex 20.7489 -6.9528 1.5000
   endloop
 endfacet
 facet normal -0.8661 0.4998 -0.0000
   outer loop
     vertex 20.7489 -6.9528 -1.5000
     vertex 20.5638 -7.2736 1.5000
     vertex 26.3313 2.7213 -1.5000
   endloop
 endfacet
 facet normal -0.8661 0.4998 0.0000
   outer loop
     vertex 20.7489 -6.9528 1.5000
     vertex 26.3313 2.7213 -1.5000
     vertex 20.5638 -7.2736 1.5000
   endloop
 endfacet
 facet normal 0.8660 0.5000 -0.0000
   outer loop
     vertex -12.5921 13.7265 -1.5000
     vertex -12.5921 13.7265 1.5000
     vertex -12.5850 13.7143 -1.5000
   endloop
 endfacet
 facet normal 0.8660 0.5001 -0.0000
   outer loop
     vertex -6.2334 2.7159 1.5000
     vertex -6.2334 2.7158 -1.5000
     vertex -6.4332 3.0617 1.5000
   endloop
 endfacet
 facet normal 0.8660 0.5001 -0.0000
   outer loop
     vertex -12.5850 13.7143 -1.5000
     vertex -12.5921 13.7265 1.5000
     vertex -6.7164 3.5521 -1.5000
   endloop
 endfacet
 facet normal 0.8660 0.5001 -0.0000
   outer loop
     vertex -6.4332 3.0617 1.5000
     vertex -6.2334 2.7158 -1.5000
     vertex -6.5333 3.2351 1.5000
   endloop
 endfacet
 facet normal 0.8660 0.5001 0.0000
   outer loop
     vertex -6.7164 3.5521 -1.5000
     vertex -12.5921 13.7265 1.5000
     vertex -6.5333 3.2351 -1.5000
   endloop
 endfacet
 facet normal 0.8660 0.5001 -0.0000
   outer loop
     vertex -6.5333 3.2351 1.5000
     vertex -6.2334 2.7158 -1.5000
     vertex -6.7164 3.5521 1.5000
   endloop
 endfacet
 facet normal 0.8660 0.5001 -0.0000
   outer loop
     vertex -6.5333 3.2351 -1.5000
     vertex -12.5921 13.7265 1.5000
     vertex -6.4332 3.0617 -1.5000
   endloop
 endfacet
 facet normal 0.8660 0.5001 -0.0000
   outer loop
     vertex -6.7164 3.5521 1.5000
     vertex -6.2334 2.7158 -1.5000
     vertex -12.5850 13.7143 1.5000
   endloop
 endfacet
 facet normal 0.8660 0.5001 0.0000
   outer loop
     vertex -6.4332 3.0617 -1.5000
     vertex -12.5921 13.7265 1.5000
     vertex -6.2334 2.7158 -1.5000
   endloop
 endfacet
 facet normal 0.8660 0.5001 0.0001
   outer loop
     vertex -12.5850 13.7143 1.5000
     vertex -6.2334 2.7158 -1.5000
     vertex -12.5921 13.7265 1.5000
   endloop
 endfacet
 facet normal -0.4999 -0.8661 0.0000
   outer loop
     vertex 26.3313 2.7213 -1.5000
     vertex 26.3313 2.7213 1.5000
     vertex 25.7326 3.0669 -1.5000
   endloop
 endfacet
 facet normal -0.4999 -0.8661 -0.0000
   outer loop
     vertex 18.9694 6.9706 1.5000
     vertex 18.9694 6.9706 -1.5000
     vertex 25.7326 3.0669 1.5000
   endloop
 endfacet
 facet normal -0.4999 -0.8661 0.0000
   outer loop
     vertex 25.7326 3.0669 -1.5000
     vertex 26.3313 2.7213 1.5000
     vertex 18.9694 6.9706 -1.5000
   endloop
 endfacet
 facet normal -0.4999 -0.8661 0.0000
   outer loop
     vertex 25.7326 3.0669 1.5000
     vertex 18.9694 6.9706 -1.5000
     vertex 26.3313 2.7213 1.5000
   endloop
 endfacet
 facet normal 0.8660 -0.5000 -0.0000
   outer loop
     vertex -1.2724 33.3317 -1.5000
     vertex -1.2724 33.3317 1.5000
     vertex -1.2863 33.3078 -1.5000
   endloop
 endfacet
 facet normal 0.8660 -0.5000 -0.0000
   outer loop
     vertex -12.5921 13.7265 1.5000
     vertex -12.5921 13.7265 -1.5000
     vertex -1.2863 33.3078 1.5000
   endloop
 endfacet
 facet normal 0.8660 -0.5000 0.0000
   outer loop
     vertex -1.2863 33.3078 -1.5000
     vertex -1.2724 33.3317 1.5000
     vertex -12.5921 13.7265 -1.5000
   endloop
 endfacet
 facet normal 0.8660 -0.5000 -0.0000
   outer loop
     vertex -1.2863 33.3078 1.5000
     vertex -12.5921 13.7265 -1.5000
     vertex -1.2724 33.3317 1.5000
   endloop
 endfacet
 facet normal -0.4999 -0.8661 0.0000
   outer loop
     vertex 18.9694 6.9706 -1.5000
     vertex 18.9694 6.9706 1.5000
     vertex 17.9923 7.5345 -1.5000
   endloop
 endfacet
 facet normal -0.4999 -0.8661 -0.0000
   outer loop
     vertex 8.6559 12.9231 1.5000
     vertex 8.6559 12.9231 -1.5000
     vertex 8.6800 12.9092 1.5000
   endloop
 endfacet
 facet normal -0.4999 -0.8661 -0.0000
   outer loop
     vertex 17.9923 7.5345 -1.5000
     vertex 18.9694 6.9706 1.5000
     vertex 8.6800 12.9092 -1.5000
   endloop
 endfacet
 facet normal -0.4999 -0.8661 -0.0000
   outer loop
     vertex 8.6800 12.9092 1.5000
     vertex 8.6559 12.9231 -1.5000
     vertex 17.9923 7.5345 1.5000
   endloop
 endfacet
 facet normal -0.4999 -0.8661 0.0000
   outer loop
     vertex 8.6800 12.9092 -1.5000
     vertex 18.9694 6.9706 1.5000
     vertex 8.6559 12.9231 -1.5000
   endloop
 endfacet
 facet normal -0.4999 -0.8661 0.0000
   outer loop
     vertex 17.9923 7.5345 1.5000
     vertex 8.6559 12.9231 -1.5000
     vertex 18.9694 6.9706 1.5000
   endloop
 endfacet
 facet normal -0.0000 -1.0000 -0.0000
   outer loop
     vertex -1.2724 33.3317 -1.5000
     vertex 8.6530 33.3317 -1.5000
     vertex 8.6530 33.3317 1.5000
   endloop
 endfacet
 facet normal -0.0000 -1.0000 -0.0000
   outer loop
     vertex 8.6530 33.3317 1.5000
     vertex -1.2724 33.3317 1.5000
     vertex -1.2724 33.3317 -1.5000
   endloop
 endfacet
 facet normal -1.0000 -0.0001 0.0000
   outer loop
     vertex 8.6559 12.9231 -1.5000
     vertex 8.6559 12.9231 1.5000
     vertex 8.6558 13.4790 -1.5000
   endloop
 endfacet
 facet normal -1.0000 -0.0001 -0.0000
   outer loop
     vertex 8.6530 33.3317 1.5000
     vertex 8.6530 33.3317 -1.5000
     vertex 8.6556 15.1901 1.5000
   endloop
 endfacet
 facet normal -1.0000 -0.0001 -0.0000
   outer loop
     vertex 8.6558 13.4790 -1.5000
     vertex 8.6559 12.9231 1.5000
     vertex 8.6556 15.1901 -1.5000
   endloop
 endfacet
 facet normal -1.0000 -0.0001 -0.0000
   outer loop
     vertex 8.6556 15.1901 1.5000
     vertex 8.6530 33.3317 -1.5000
     vertex 8.6558 13.4790 1.5000
   endloop
 endfacet
 facet normal -1.0000 -0.0001 0.0000
   outer loop
     vertex 8.6556 15.1901 -1.5000
     vertex 8.6559 12.9231 1.5000
     vertex 8.6530 33.3317 -1.5000
   endloop
 endfacet
 facet normal -1.0000 -0.0001 0.0000
   outer loop
     vertex 8.6558 13.4790 1.5000
     vertex 8.6530 33.3317 -1.5000
     vertex 8.6559 12.9231 1.5000
   endloop
 endfacet
endsolid
